<svg xmlns="http://www.w3.org/2000/svg" xmlns:v="https://svgstorm.com"
viewBox = "0 0 1024 1024"
width="1024"
height="1024">
<g fill="None" fill-opacity="0.0" stroke="#000000" stroke-opacity="0.00" stroke-width="0.3"><path d="
M 0.00 1024.00 
L 1024.00 1024.00
L 1024.00 0.00
L 0.00 0.00
L 0.00 1024.00
M 729.00 236.00 
C 730.75 236.69 731.91 236.30 733.00 237.00
C 743.34 243.62 757.87 258.24 762.00 268.00
C 778.28 289.25 785.74 308.33 792.78 335.22 C 799.82 362.11 794.96 401.16 796.00 431.00 C 797.04 460.84 795.70 500.15 796.00 530.00 C 796.30 559.85 798.14 597.28 790.67 623.67 C 783.21 650.07 771.14 665.76 752.75 684.75 C 734.37 703.75 722.11 717.01 699.25 730.25 C 676.40 743.50 652.55 752.02 624.00 754.00 C 595.45 755.98 556.38 754.75 526.00 755.00 C 495.62 755.25 457.18 754.88 427.00 755.00 C 396.82 755.12 361.45 756.70 334.99 748.01 C 308.53 739.31 292.58 729.58 272.00 712.00
C 267.71 708.34 263.62 704.24 260.00 700.00
C 250.51 688.89 242.05 676.96 236.00 664.00
C 235.12 662.90 231.14 662.16 231.00 659.00
C 232.28 658.47 232.86 659.97 234.00 660.00
C 224.69 641.85 220.62 621.45 219.00 601.00
C 217.00 591.53 216.30 578.94 217.00 567.00 C 217.70 555.06 216.21 542.97 216.00 531.00 C 215.79 519.03 216.01 506.14 216.00 494.00 C 215.99 481.86 215.82 469.19 216.00 457.00
C 216.21 442.26 215.59 426.08 216.00 410.00 C 216.41 393.92 214.21 374.61 218.00 360.00
C 218.34 351.09 219.00 341.59 221.00 333.00
C 221.04 333.42 219.61 333.37 219.98 329.97 C 220.35 326.58 221.90 326.88 223.00 325.00
C 238.98 259.49 302.81 205.36 371.00 204.00
C 410.87 199.18 453.12 204.26 494.00 203.00 C 534.88 201.74 577.01 203.00 618.00 203.00
C 658.08 203.00 697.25 211.43 729.00 236.00
M 796.00 723.00 
C 831.84 727.33 853.39 770.03 831.08 800.08 C 808.77 830.14 763.59 825.62 746.70 793.31 C 729.80 760.99 757.92 718.40 796.00 723.00 Z"/>
</g>
<g fill="None" fill-opacity="0.0" stroke="#727272" stroke-opacity="0.44" stroke-width="0.3"><path d="
M 371.00 204.00 
C 412.08 203.18 454.01 205.22 495.00 204.00 C 535.99 202.78 577.98 206.87 618.00 203.00
C 577.01 203.00 534.88 201.74 494.00 203.00 C 453.12 204.26 410.87 199.18 371.00 204.00 Z"/>
</g>
<g fill="None" fill-opacity="0.0" stroke="#FEFEFE" stroke-opacity="1.00" stroke-width="0.3"><path d="
M 371.00 204.00 
C 302.81 205.36 238.98 259.49 223.00 325.00
C 222.38 327.55 221.51 330.82 221.00 333.00
C 219.00 341.59 218.34 351.09 218.00 360.00
C 216.68 394.55 218.00 429.42 218.00 464.00
C 218.00 509.35 215.44 556.14 219.00 601.00
C 220.62 621.45 224.69 641.85 234.00 660.00
C 234.70 661.36 235.36 662.63 236.00 664.00
C 242.05 676.96 250.51 688.89 260.00 700.00
C 263.92 703.92 268.13 708.13 272.00 712.00
C 292.58 729.58 308.53 739.31 334.99 748.01 C 361.45 756.70 396.82 755.12 427.00 755.00 C 457.18 754.88 495.62 755.25 526.00 755.00 C 556.38 754.75 595.45 755.98 624.00 754.00 C 652.55 752.02 676.40 743.50 699.25 730.25 C 722.11 717.01 734.37 703.75 752.75 684.75 C 771.14 665.76 783.21 650.07 790.67 623.67 C 798.14 597.28 796.30 559.85 796.00 530.00 C 795.70 500.15 797.04 460.84 796.00 431.00 C 794.96 401.16 799.82 362.11 792.78 335.22 C 785.74 308.33 778.28 289.25 762.00 268.00
C 759.98 265.37 757.23 262.61 755.00 260.00
C 750.08 255.08 744.87 249.87 740.00 245.00
C 738.41 243.64 736.60 242.26 735.00 241.00
C 732.93 239.37 730.91 237.48 729.00 236.00
C 697.25 211.43 658.08 203.00 618.00 203.00
C 577.98 206.87 535.99 202.78 495.00 204.00 C 454.01 205.22 412.08 203.18 371.00 204.00
M 658.00 593.00 
C 654.05 589.62 650.60 585.60 647.00 582.00
C 634.33 571.17 623.62 557.97 611.25 546.75 C 598.88 535.53 587.26 518.52 570.00 517.00
C 566.02 516.65 560.96 516.45 557.00 517.00
C 551.45 517.78 545.62 520.83 541.00 524.00
C 536.99 526.75 532.69 530.13 530.00 534.00
C 529.26 535.07 528.69 536.08 528.00 537.00
C 528.24 537.31 528.00 538.00 528.00 538.00
C 526.90 540.79 525.04 543.19 524.00 546.00
C 518.30 561.44 523.90 577.19 534.00 589.00
C 540.28 595.28 547.24 601.26 553.00 608.00
C 570.97 629.03 592.91 648.01 612.00 667.00
C 609.90 669.08 605.85 667.50 603.00 668.00
C 566.60 671.52 527.28 669.35 490.00 669.00 C 452.72 668.65 412.32 672.39 376.00 668.00
C 362.66 667.73 349.24 663.19 338.30 655.70 C 327.37 648.21 320.42 641.23 313.70 629.30 C 306.97 617.38 303.21 604.07 303.00 589.00 C 302.79 573.92 303.10 554.99 303.00 539.00 C 302.90 523.01 303.06 504.30 303.00 488.00 C 302.94 471.70 303.07 453.13 303.00 437.00 C 302.93 420.87 303.11 402.48 303.00 387.00 C 302.89 371.52 302.45 354.12 308.31 341.31 C 314.16 328.49 318.74 320.51 329.25 311.25 C 339.76 301.99 348.43 298.68 362.07 294.07 C 375.72 289.47 394.22 291.19 410.00 291.00 C 425.78 290.81 444.72 291.11 461.00 291.00 C 477.28 290.89 494.58 291.09 511.00 291.00 C 527.42 290.91 545.71 291.14 562.00 291.00 C 578.29 290.86 597.32 291.27 613.00 291.00 C 628.68 290.73 645.21 290.42 658.22 295.78 C 671.23 301.13 679.98 305.17 689.25 315.75 C 698.52 326.33 703.73 334.36 707.78 348.22 C 711.82 362.09 709.56 380.34 710.00 396.00 C 710.44 411.66 709.75 430.93 710.00 447.00 C 710.25 463.07 709.79 482.14 710.00 498.00 C 710.21 513.86 709.68 533.04 710.00 548.00 C 710.32 562.96 710.38 583.88 707.02 596.02 C 703.67 608.16 695.16 624.64 684.77 617.23 C 674.38 609.82 667.54 601.15 658.00 593.00 Z"/>
</g>
<g fill="None" fill-opacity="0.0" stroke="#4A4B4C" stroke-opacity="0.63" stroke-width="0.3"><path d="
M 735.00 241.00 
C 734.47 240.42 732.13 236.33 733.00 237.00
C 731.91 236.30 730.75 236.69 729.00 236.00
C 730.91 237.48 732.93 239.37 735.00 241.00 Z"/>
</g>
<g fill="None" fill-opacity="0.0" stroke="#201F20" stroke-opacity="0.32" stroke-width="0.3"><path d="
M 735.00 241.00 
C 736.60 242.26 738.41 243.64 740.00 245.00
C 745.32 249.55 750.50 254.73 755.00 260.00
C 757.23 262.61 759.98 265.37 762.00 268.00
C 757.87 258.24 743.34 243.62 733.00 237.00
C 732.13 236.33 734.47 240.42 735.00 241.00 Z"/>
</g>
<g fill="None" fill-opacity="0.0" stroke="#838382" stroke-opacity="0.82" stroke-width="0.3"><path d="
M 755.00 260.00 
C 750.50 254.73 745.32 249.55 740.00 245.00
C 744.87 249.87 750.08 255.08 755.00 260.00 Z"/>
</g>
<g fill="None" fill-opacity="0.0" stroke="#000000" stroke-opacity="0.00" stroke-width="0.3"><path d="
M 376.00 668.00 
C 451.60 669.51 527.39 668.00 603.00 668.00
C 605.85 667.50 609.90 669.08 612.00 667.00
C 592.91 648.01 570.97 629.03 553.00 608.00
C 546.72 601.72 539.76 595.74 534.00 589.00
C 523.90 577.19 518.30 561.44 524.00 546.00
C 524.35 542.96 523.16 539.56 528.00 538.00
C 528.00 538.00 528.24 537.31 528.00 537.00
C 525.72 534.07 531.64 529.38 533.30 527.30 C 534.96 525.23 543.05 519.59 541.00 523.00
C 540.78 523.37 541.00 524.00 541.00 524.00
C 545.62 520.83 551.45 517.78 557.00 517.00
C 562.47 514.75 565.41 515.43 570.00 517.00
C 587.26 518.52 598.88 535.53 611.25 546.75 C 623.62 557.97 634.33 571.17 647.00 582.00
C 650.95 585.38 654.40 589.40 658.00 593.00
C 667.54 601.15 674.38 609.82 684.77 617.23 C 695.16 624.64 703.67 608.16 707.02 596.02 C 710.38 583.88 710.32 562.96 710.00 548.00 C 709.68 533.04 710.21 513.86 710.00 498.00 C 709.79 482.14 710.25 463.07 710.00 447.00 C 709.75 430.93 710.44 411.66 710.00 396.00 C 709.56 380.34 711.82 362.09 707.78 348.22 C 703.73 334.36 698.52 326.33 689.25 315.75 C 679.98 305.17 671.23 301.13 658.22 295.78 C 645.21 290.42 628.68 290.73 613.00 291.00 C 597.32 291.27 578.29 290.86 562.00 291.00 C 545.71 291.14 527.42 290.91 511.00 291.00 C 494.58 291.09 477.28 290.89 461.00 291.00 C 444.72 291.11 425.78 290.81 410.00 291.00 C 394.22 291.19 375.72 289.47 362.07 294.07 C 348.43 298.68 339.76 301.99 329.25 311.25 C 318.74 320.51 314.16 328.49 308.31 341.31 C 302.45 354.12 302.89 371.52 303.00 387.00 C 303.11 402.48 302.93 420.87 303.00 437.00 C 303.07 453.13 302.94 471.70 303.00 488.00 C 303.06 504.30 302.90 523.01 303.00 539.00 C 303.10 554.99 302.79 573.92 303.00 589.00 C 303.21 604.07 306.97 617.38 313.70 629.30 C 320.42 641.23 327.37 648.21 338.30 655.70 C 349.24 663.19 362.66 667.73 376.00 668.00 Z"/>
</g>
<g fill="None" fill-opacity="0.0" stroke="#272828" stroke-opacity="0.38" stroke-width="0.3"><path d="
M 221.00 333.00 
C 221.51 330.82 222.38 327.55 223.00 325.00
C 221.90 326.88 220.35 326.58 219.98 329.97 C 219.61 333.37 221.04 333.42 221.00 333.00 Z"/>
</g>
<g fill="None" fill-opacity="0.0" stroke="#272727" stroke-opacity="0.32" stroke-width="0.3"><path d="
M 216.00 457.00 
C 216.16 458.56 217.85 462.50 218.00 464.00
C 218.00 429.42 216.68 394.55 218.00 360.00
C 214.21 374.61 216.41 393.92 216.00 410.00 C 215.59 426.08 216.21 442.26 216.00 457.00 Z"/>
</g>
<g fill="None" fill-opacity="0.0" stroke="#1F1F1F" stroke-opacity="0.13" stroke-width="0.3"><path d="
M 219.00 601.00 
C 215.44 556.14 218.00 509.35 218.00 464.00
C 217.85 462.50 216.16 458.56 216.00 457.00
C 215.82 469.19 215.99 481.86 216.00 494.00 C 216.01 506.14 215.79 519.03 216.00 531.00 C 216.21 542.97 217.70 555.06 217.00 567.00 C 216.30 578.94 217.00 591.53 219.00 601.00 Z"/>
</g>
<g fill="None" fill-opacity="0.0" stroke="#272727" stroke-opacity="0.64" stroke-width="0.3"><path d="
M 557.00 517.00 
C 560.96 516.45 566.02 516.65 570.00 517.00
C 565.41 515.43 562.47 514.75 557.00 517.00 Z"/>
</g>
<g fill="None" fill-opacity="0.0" stroke="#1D1D1E" stroke-opacity="0.22" stroke-width="0.3"><path d="
M 528.00 537.00 
C 528.69 536.08 529.26 535.07 530.00 534.00
C 531.04 531.61 536.65 523.46 541.00 523.00
C 543.05 519.59 534.96 525.23 533.30 527.30 C 531.64 529.38 525.72 534.07 528.00 537.00 Z"/>
</g>
<g fill="None" fill-opacity="0.0" stroke="#1F1F1F" stroke-opacity="0.67" stroke-width="0.3"><path d="
M 530.00 534.00 
C 532.69 530.13 536.99 526.75 541.00 524.00
C 541.00 524.00 540.78 523.37 541.00 523.00
C 536.65 523.46 531.04 531.61 530.00 534.00 Z"/>
</g>
<g fill="None" fill-opacity="0.0" stroke="#313030" stroke-opacity="0.64" stroke-width="0.3"><path d="
M 524.00 546.00 
C 525.04 543.19 526.90 540.79 528.00 538.00
C 523.16 539.56 524.35 542.96 524.00 546.00 Z"/>
</g>
<g fill="None" fill-opacity="0.0" stroke="#777676" stroke-opacity="0.79" stroke-width="0.3"><path d="
M 658.00 593.00 
C 654.40 589.40 650.95 585.38 647.00 582.00
C 650.60 585.60 654.05 589.62 658.00 593.00 Z"/>
</g>
<g fill="None" fill-opacity="0.0" stroke="#7C7B7C" stroke-opacity="0.61" stroke-width="0.3"><path d="
M 553.00 608.00 
C 547.24 601.26 540.28 595.28 534.00 589.00
C 539.76 595.74 546.72 601.72 553.00 608.00 Z"/>
</g>
<g fill="None" fill-opacity="0.0" stroke="#333333" stroke-opacity="0.38" stroke-width="0.3"><path d="
M 236.00 664.00 
C 235.36 662.63 234.70 661.36 234.00 660.00
C 232.86 659.97 232.28 658.47 231.00 659.00
C 231.14 662.16 235.12 662.90 236.00 664.00 Z"/>
</g>
<g fill="None" fill-opacity="0.0" stroke="#5C5C5C" stroke-opacity="0.56" stroke-width="0.3"><path d="
M 603.00 668.00 
C 527.39 668.00 451.60 669.51 376.00 668.00
C 412.32 672.39 452.72 668.65 490.00 669.00 C 527.28 669.35 566.60 671.52 603.00 668.00 Z"/>
</g>
<g fill="None" fill-opacity="0.0" stroke="#818181" stroke-opacity="0.70" stroke-width="0.3"><path d="
M 272.00 712.00 
C 268.13 708.13 263.92 703.92 260.00 700.00
C 263.62 704.24 267.71 708.34 272.00 712.00 Z"/>
</g>
<g fill="None" fill-opacity="0.0" stroke="#20B735" stroke-opacity="1.00" stroke-width="0.3"><path d="
M 796.00 723.00 
C 757.92 718.40 729.80 760.99 746.70 793.31 C 763.59 825.62 808.77 830.14 831.08 800.08 C 853.39 770.03 831.84 727.33 796.00 723.00 Z"/>
</g>
<g fill="#000000" fill-opacity="0.00" stroke="None">
<path d="
M 0.00 1024.00 
L 1024.00 1024.00
L 1024.00 0.00
L 0.00 0.00
L 0.00 1024.00
M 729.00 236.00 
C 730.75 236.69 731.91 236.30 733.00 237.00
C 743.34 243.62 757.87 258.24 762.00 268.00
C 778.28 289.25 785.74 308.33 792.78 335.22 C 799.82 362.11 794.96 401.16 796.00 431.00 C 797.04 460.84 795.70 500.15 796.00 530.00 C 796.30 559.85 798.14 597.28 790.67 623.67 C 783.21 650.07 771.14 665.76 752.75 684.75 C 734.37 703.75 722.11 717.01 699.25 730.25 C 676.40 743.50 652.55 752.02 624.00 754.00 C 595.45 755.98 556.38 754.75 526.00 755.00 C 495.62 755.25 457.18 754.88 427.00 755.00 C 396.82 755.12 361.45 756.70 334.99 748.01 C 308.53 739.31 292.58 729.58 272.00 712.00
C 267.71 708.34 263.62 704.24 260.00 700.00
C 250.51 688.89 242.05 676.96 236.00 664.00
C 235.12 662.90 231.14 662.16 231.00 659.00
C 232.28 658.47 232.86 659.97 234.00 660.00
C 224.69 641.85 220.62 621.45 219.00 601.00
C 217.00 591.53 216.30 578.94 217.00 567.00 C 217.70 555.06 216.21 542.97 216.00 531.00 C 215.79 519.03 216.01 506.14 216.00 494.00 C 215.99 481.86 215.82 469.19 216.00 457.00
C 216.21 442.26 215.59 426.08 216.00 410.00 C 216.41 393.92 214.21 374.61 218.00 360.00
C 218.34 351.09 219.00 341.59 221.00 333.00
C 221.04 333.42 219.61 333.37 219.98 329.97 C 220.35 326.58 221.90 326.88 223.00 325.00
C 238.98 259.49 302.81 205.36 371.00 204.00
C 410.87 199.18 453.12 204.26 494.00 203.00 C 534.88 201.74 577.01 203.00 618.00 203.00
C 658.08 203.00 697.25 211.43 729.00 236.00
M 796.00 723.00 
C 831.84 727.33 853.39 770.03 831.08 800.08 C 808.77 830.14 763.59 825.62 746.70 793.31 C 729.80 760.99 757.92 718.40 796.00 723.00 Z"/>
</g>
<g fill="#727272" fill-opacity="0.44" stroke="None">
<path d="
M 371.00 204.00 
C 412.08 203.18 454.01 205.22 495.00 204.00 C 535.99 202.78 577.98 206.87 618.00 203.00
C 577.01 203.00 534.88 201.74 494.00 203.00 C 453.12 204.26 410.87 199.18 371.00 204.00 Z"/>
</g>
<g fill="#FEFEFE" fill-opacity="1.00" stroke="None">
<path d="
M 371.00 204.00 
C 302.81 205.36 238.98 259.49 223.00 325.00
C 222.38 327.55 221.51 330.82 221.00 333.00
C 219.00 341.59 218.34 351.09 218.00 360.00
C 216.68 394.55 218.00 429.42 218.00 464.00
C 218.00 509.35 215.44 556.14 219.00 601.00
C 220.62 621.45 224.69 641.85 234.00 660.00
C 234.70 661.36 235.36 662.63 236.00 664.00
C 242.05 676.96 250.51 688.89 260.00 700.00
C 263.92 703.92 268.13 708.13 272.00 712.00
C 292.58 729.58 308.53 739.31 334.99 748.01 C 361.45 756.70 396.82 755.12 427.00 755.00 C 457.18 754.88 495.62 755.25 526.00 755.00 C 556.38 754.75 595.45 755.98 624.00 754.00 C 652.55 752.02 676.40 743.50 699.25 730.25 C 722.11 717.01 734.37 703.75 752.75 684.75 C 771.14 665.76 783.21 650.07 790.67 623.67 C 798.14 597.28 796.30 559.85 796.00 530.00 C 795.70 500.15 797.04 460.84 796.00 431.00 C 794.96 401.16 799.82 362.11 792.78 335.22 C 785.74 308.33 778.28 289.25 762.00 268.00
C 759.98 265.37 757.23 262.61 755.00 260.00
C 750.08 255.08 744.87 249.87 740.00 245.00
C 738.41 243.64 736.60 242.26 735.00 241.00
C 732.93 239.37 730.91 237.48 729.00 236.00
C 697.25 211.43 658.08 203.00 618.00 203.00
C 577.98 206.87 535.99 202.78 495.00 204.00 C 454.01 205.22 412.08 203.18 371.00 204.00
M 658.00 593.00 
C 654.05 589.62 650.60 585.60 647.00 582.00
C 634.33 571.17 623.62 557.97 611.25 546.75 C 598.88 535.53 587.26 518.52 570.00 517.00
C 566.02 516.65 560.96 516.45 557.00 517.00
C 551.45 517.78 545.62 520.83 541.00 524.00
C 536.99 526.75 532.69 530.13 530.00 534.00
C 529.26 535.07 528.69 536.08 528.00 537.00
C 528.24 537.31 528.00 538.00 528.00 538.00
C 526.90 540.79 525.04 543.19 524.00 546.00
C 518.30 561.44 523.90 577.19 534.00 589.00
C 540.28 595.28 547.24 601.26 553.00 608.00
C 570.97 629.03 592.91 648.01 612.00 667.00
C 609.90 669.08 605.85 667.50 603.00 668.00
C 566.60 671.52 527.28 669.35 490.00 669.00 C 452.72 668.65 412.32 672.39 376.00 668.00
C 362.66 667.73 349.24 663.19 338.30 655.70 C 327.37 648.21 320.42 641.23 313.70 629.30 C 306.97 617.38 303.21 604.07 303.00 589.00 C 302.79 573.92 303.10 554.99 303.00 539.00 C 302.90 523.01 303.06 504.30 303.00 488.00 C 302.94 471.70 303.07 453.13 303.00 437.00 C 302.93 420.87 303.11 402.48 303.00 387.00 C 302.89 371.52 302.45 354.12 308.31 341.31 C 314.16 328.49 318.74 320.51 329.25 311.25 C 339.76 301.99 348.43 298.68 362.07 294.07 C 375.72 289.47 394.22 291.19 410.00 291.00 C 425.78 290.81 444.72 291.11 461.00 291.00 C 477.28 290.89 494.58 291.09 511.00 291.00 C 527.42 290.91 545.71 291.14 562.00 291.00 C 578.29 290.86 597.32 291.27 613.00 291.00 C 628.68 290.73 645.21 290.42 658.22 295.78 C 671.23 301.13 679.98 305.17 689.25 315.75 C 698.52 326.33 703.73 334.36 707.78 348.22 C 711.82 362.09 709.56 380.34 710.00 396.00 C 710.44 411.66 709.75 430.93 710.00 447.00 C 710.25 463.07 709.79 482.14 710.00 498.00 C 710.21 513.86 709.68 533.04 710.00 548.00 C 710.32 562.96 710.38 583.88 707.02 596.02 C 703.67 608.16 695.16 624.64 684.77 617.23 C 674.38 609.82 667.54 601.15 658.00 593.00 Z"/>
</g>
<g fill="#4A4B4C" fill-opacity="0.63" stroke="None">
<path d="
M 735.00 241.00 
C 734.47 240.42 732.13 236.33 733.00 237.00
C 731.91 236.30 730.75 236.69 729.00 236.00
C 730.91 237.48 732.93 239.37 735.00 241.00 Z"/>
</g>
<g fill="#201F20" fill-opacity="0.32" stroke="None">
<path d="
M 735.00 241.00 
C 736.60 242.26 738.41 243.64 740.00 245.00
C 745.32 249.55 750.50 254.73 755.00 260.00
C 757.23 262.61 759.98 265.37 762.00 268.00
C 757.87 258.24 743.34 243.62 733.00 237.00
C 732.13 236.33 734.47 240.42 735.00 241.00 Z"/>
</g>
<g fill="#838382" fill-opacity="0.82" stroke="None">
<path d="
M 755.00 260.00 
C 750.50 254.73 745.32 249.55 740.00 245.00
C 744.87 249.87 750.08 255.08 755.00 260.00 Z"/>
</g>
<g fill="#000000" fill-opacity="0.00" stroke="None">
<path d="
M 376.00 668.00 
C 451.60 669.51 527.39 668.00 603.00 668.00
C 605.85 667.50 609.90 669.08 612.00 667.00
C 592.91 648.01 570.97 629.03 553.00 608.00
C 546.72 601.72 539.76 595.74 534.00 589.00
C 523.90 577.19 518.30 561.44 524.00 546.00
C 524.35 542.96 523.16 539.56 528.00 538.00
C 528.00 538.00 528.24 537.31 528.00 537.00
C 525.72 534.07 531.64 529.38 533.30 527.30 C 534.96 525.23 543.05 519.59 541.00 523.00
C 540.78 523.37 541.00 524.00 541.00 524.00
C 545.62 520.83 551.45 517.78 557.00 517.00
C 562.47 514.75 565.41 515.43 570.00 517.00
C 587.26 518.52 598.88 535.53 611.25 546.75 C 623.62 557.97 634.33 571.17 647.00 582.00
C 650.95 585.38 654.40 589.40 658.00 593.00
C 667.54 601.15 674.38 609.82 684.77 617.23 C 695.16 624.64 703.67 608.16 707.02 596.02 C 710.38 583.88 710.32 562.96 710.00 548.00 C 709.68 533.04 710.21 513.86 710.00 498.00 C 709.79 482.14 710.25 463.07 710.00 447.00 C 709.75 430.93 710.44 411.66 710.00 396.00 C 709.56 380.34 711.82 362.09 707.78 348.22 C 703.73 334.36 698.52 326.33 689.25 315.75 C 679.98 305.17 671.23 301.13 658.22 295.78 C 645.21 290.42 628.68 290.73 613.00 291.00 C 597.32 291.27 578.29 290.86 562.00 291.00 C 545.71 291.14 527.42 290.91 511.00 291.00 C 494.58 291.09 477.28 290.89 461.00 291.00 C 444.72 291.11 425.78 290.81 410.00 291.00 C 394.22 291.19 375.72 289.47 362.07 294.07 C 348.43 298.68 339.76 301.99 329.25 311.25 C 318.74 320.51 314.16 328.49 308.31 341.31 C 302.45 354.12 302.89 371.52 303.00 387.00 C 303.11 402.48 302.93 420.87 303.00 437.00 C 303.07 453.13 302.94 471.70 303.00 488.00 C 303.06 504.30 302.90 523.01 303.00 539.00 C 303.10 554.99 302.79 573.92 303.00 589.00 C 303.21 604.07 306.97 617.38 313.70 629.30 C 320.42 641.23 327.37 648.21 338.30 655.70 C 349.24 663.19 362.66 667.73 376.00 668.00 Z"/>
</g>
<g fill="#272828" fill-opacity="0.38" stroke="None">
<path d="
M 221.00 333.00 
C 221.51 330.82 222.38 327.55 223.00 325.00
C 221.90 326.88 220.35 326.58 219.98 329.97 C 219.61 333.37 221.04 333.42 221.00 333.00 Z"/>
</g>
<g fill="#272727" fill-opacity="0.32" stroke="None">
<path d="
M 216.00 457.00 
C 216.16 458.56 217.85 462.50 218.00 464.00
C 218.00 429.42 216.68 394.55 218.00 360.00
C 214.21 374.61 216.41 393.92 216.00 410.00 C 215.59 426.08 216.21 442.26 216.00 457.00 Z"/>
</g>
<g fill="#1F1F1F" fill-opacity="0.13" stroke="None">
<path d="
M 219.00 601.00 
C 215.44 556.14 218.00 509.35 218.00 464.00
C 217.85 462.50 216.16 458.56 216.00 457.00
C 215.82 469.19 215.99 481.86 216.00 494.00 C 216.01 506.14 215.79 519.03 216.00 531.00 C 216.21 542.97 217.70 555.06 217.00 567.00 C 216.30 578.94 217.00 591.53 219.00 601.00 Z"/>
</g>
<g fill="#272727" fill-opacity="0.64" stroke="None">
<path d="
M 557.00 517.00 
C 560.96 516.45 566.02 516.65 570.00 517.00
C 565.41 515.43 562.47 514.75 557.00 517.00 Z"/>
</g>
<g fill="#1D1D1E" fill-opacity="0.22" stroke="None">
<path d="
M 528.00 537.00 
C 528.69 536.08 529.26 535.07 530.00 534.00
C 531.04 531.61 536.65 523.46 541.00 523.00
C 543.05 519.59 534.96 525.23 533.30 527.30 C 531.64 529.38 525.72 534.07 528.00 537.00 Z"/>
</g>
<g fill="#1F1F1F" fill-opacity="0.67" stroke="None">
<path d="
M 530.00 534.00 
C 532.69 530.13 536.99 526.75 541.00 524.00
C 541.00 524.00 540.78 523.37 541.00 523.00
C 536.65 523.46 531.04 531.61 530.00 534.00 Z"/>
</g>
<g fill="#313030" fill-opacity="0.64" stroke="None">
<path d="
M 524.00 546.00 
C 525.04 543.19 526.90 540.79 528.00 538.00
C 523.16 539.56 524.35 542.96 524.00 546.00 Z"/>
</g>
<g fill="#777676" fill-opacity="0.79" stroke="None">
<path d="
M 658.00 593.00 
C 654.40 589.40 650.95 585.38 647.00 582.00
C 650.60 585.60 654.05 589.62 658.00 593.00 Z"/>
</g>
<g fill="#7C7B7C" fill-opacity="0.61" stroke="None">
<path d="
M 553.00 608.00 
C 547.24 601.26 540.28 595.28 534.00 589.00
C 539.76 595.74 546.72 601.72 553.00 608.00 Z"/>
</g>
<g fill="#333333" fill-opacity="0.38" stroke="None">
<path d="
M 236.00 664.00 
C 235.36 662.63 234.70 661.36 234.00 660.00
C 232.86 659.97 232.28 658.47 231.00 659.00
C 231.14 662.16 235.12 662.90 236.00 664.00 Z"/>
</g>
<g fill="#5C5C5C" fill-opacity="0.56" stroke="None">
<path d="
M 603.00 668.00 
C 527.39 668.00 451.60 669.51 376.00 668.00
C 412.32 672.39 452.72 668.65 490.00 669.00 C 527.28 669.35 566.60 671.52 603.00 668.00 Z"/>
</g>
<g fill="#818181" fill-opacity="0.70" stroke="None">
<path d="
M 272.00 712.00 
C 268.13 708.13 263.92 703.92 260.00 700.00
C 263.62 704.24 267.71 708.34 272.00 712.00 Z"/>
</g>
<g fill="#20B735" fill-opacity="1.00" stroke="None">
<path d="
M 796.00 723.00 
C 757.92 718.40 729.80 760.99 746.70 793.31 C 763.59 825.62 808.77 830.14 831.08 800.08 C 853.39 770.03 831.84 727.33 796.00 723.00 Z"/>
</g>
</svg>