<svg xmlns="http://www.w3.org/2000/svg" xmlns:v="https://svgstorm.com"
viewBox = "0 0 1080 1080"
width="1080"
height="1080">
<g fill="None" fill-opacity="0.0" stroke="#FEFEFE" stroke-opacity="1.00" stroke-width="0.3"><path d="
M 0.00 1080.00
L 1080.00 1080.00
L 1080.00 0.00
L 0.00 0.00
L 0.00 1080.00
M 825.00 383.00
C 825.00 461.67 825.00 540.33 825.00 619.00
C 823.34 541.40 823.33 460.53 825.00 383.00
M 793.00 694.00
C 789.31 707.10 777.01 718.66 766.25 729.25 C 755.49 739.84 741.86 749.48 729.00 757.00
C 731.33 751.84 739.14 746.08 742.77 740.76 C 746.40 735.45 753.24 727.58 759.00 727.00
C 757.63 723.24 762.50 717.72 767.00 719.00
C 772.38 707.21 783.65 702.54 793.00 694.00
M 836.00 850.00
C 831.94 850.49 826.76 851.45 822.00 851.00
C 776.26 846.71 751.22 792.33 776.25 754.25 C 801.29 716.18 855.93 717.45 881.25 753.75 C 906.56 790.06 882.11 849.08 836.00 850.00
M 640.00 784.00
C 560.23 786.33 478.52 784.34 398.00 785.00
C 477.77 782.67 559.48 784.67 640.00 784.00 Z"/>
</g>
<g fill="None" fill-opacity="0.0" stroke="#B6B6B6" stroke-opacity="1.00" stroke-width="0.3"><path d="
M 825.00 383.00
C 823.33 460.53 823.34 541.40 825.00 619.00
C 825.00 540.33 825.00 461.67 825.00 383.00 Z"/>
</g>
<g fill="None" fill-opacity="0.0" stroke="#FEF0F1" stroke-opacity="1.00" stroke-width="0.3"><path d="
M 793.00 694.00
C 783.65 702.54 772.38 707.21 767.00 719.00
C 762.50 717.72 757.63 723.24 759.00 727.00
C 753.24 727.58 746.40 735.45 742.77 740.76 C 739.14 746.08 731.33 751.84 729.00 757.00
C 741.86 749.48 755.49 739.84 766.25 729.25 C 777.01 718.66 789.31 707.10 793.00 694.00 Z"/>
</g>
<g fill="None" fill-opacity="0.0" stroke="#FC0E21" stroke-opacity="1.00" stroke-width="0.3"><path d="
M 822.00 851.00
C 825.73 850.99 831.53 850.09 836.00 850.00
C 882.11 849.08 906.56 790.06 881.25 753.75 C 855.93 717.45 801.29 716.18 776.25 754.25 C 751.22 792.33 776.26 846.71 822.00 851.00 Z"/>
</g>
<g fill="None" fill-opacity="0.0" stroke="#AAAAAB" stroke-opacity="1.00" stroke-width="0.3"><path d="
M 640.00 784.00
C 559.48 784.67 477.77 782.67 398.00 785.00
C 478.52 784.34 560.23 786.33 640.00 784.00 Z"/>
</g>
<g fill="None" fill-opacity="0.0" stroke="#BC2128" stroke-opacity="1.00" stroke-width="0.3"><path d="
M 822.00 851.00
C 826.76 851.45 831.94 850.49 836.00 850.00
C 831.53 850.09 825.73 850.99 822.00 851.00 Z"/>
</g>
<g fill="#FEFEFE" fill-opacity="1.00" stroke="None">
<path d="
M 0.00 1080.00
L 1080.00 1080.00
L 1080.00 0.00
L 0.00 0.00
L 0.00 1080.00
M 825.00 383.00
C 825.00 461.67 825.00 540.33 825.00 619.00
C 823.34 541.40 823.33 460.53 825.00 383.00
M 793.00 694.00
C 789.31 707.10 777.01 718.66 766.25 729.25 C 755.49 739.84 741.86 749.48 729.00 757.00
C 731.33 751.84 739.14 746.08 742.77 740.76 C 746.40 735.45 753.24 727.58 759.00 727.00
C 757.63 723.24 762.50 717.72 767.00 719.00
C 772.38 707.21 783.65 702.54 793.00 694.00
M 836.00 850.00
C 831.94 850.49 826.76 851.45 822.00 851.00
C 776.26 846.71 751.22 792.33 776.25 754.25 C 801.29 716.18 855.93 717.45 881.25 753.75 C 906.56 790.06 882.11 849.08 836.00 850.00
M 640.00 784.00
C 560.23 786.33 478.52 784.34 398.00 785.00
C 477.77 782.67 559.48 784.67 640.00 784.00 Z"/>
</g>
<g fill="#B6B6B6" fill-opacity="1.00" stroke="None">
<path d="
M 825.00 383.00
C 823.33 460.53 823.34 541.40 825.00 619.00
C 825.00 540.33 825.00 461.67 825.00 383.00 Z"/>
</g>
<g fill="#FEF0F1" fill-opacity="1.00" stroke="None">
<path d="
M 793.00 694.00
C 783.65 702.54 772.38 707.21 767.00 719.00
C 762.50 717.72 757.63 723.24 759.00 727.00
C 753.24 727.58 746.40 735.45 742.77 740.76 C 739.14 746.08 731.33 751.84 729.00 757.00
C 741.86 749.48 755.49 739.84 766.25 729.25 C 777.01 718.66 789.31 707.10 793.00 694.00 Z"/>
</g>
<g fill="#FC0E21" fill-opacity="1.00" stroke="None">
<path d="
M 822.00 851.00
C 825.73 850.99 831.53 850.09 836.00 850.00
C 882.11 849.08 906.56 790.06 881.25 753.75 C 855.93 717.45 801.29 716.18 776.25 754.25 C 751.22 792.33 776.26 846.71 822.00 851.00 Z"/>
</g>
<g fill="#AAAAAB" fill-opacity="1.00" stroke="None">
<path d="
M 640.00 784.00
C 559.48 784.67 477.77 782.67 398.00 785.00
C 478.52 784.34 560.23 786.33 640.00 784.00 Z"/>
</g>
<g fill="#BC2128" fill-opacity="1.00" stroke="None">
<path d="
M 822.00 851.00
C 826.76 851.45 831.94 850.49 836.00 850.00
C 831.53 850.09 825.73 850.99 822.00 851.00 Z"/>
</g>
</svg>
