<svg xmlns="http://www.w3.org/2000/svg" xmlns:v="https://svgstorm.com"
viewBox = "0 0 1080 1080"
width="1080"
height="1080">
<g fill="None" fill-opacity="0.0" stroke="#FEFEFE" stroke-opacity="1.00" stroke-width="0.3"><path d="
M 0.00 1080.00 
L 1080.00 1080.00
L 1080.00 0.00
L 0.00 0.00
L 0.00 1080.00
M 676.00 243.00 
C 680.58 243.00 684.62 243.30 689.00 244.00
C 761.51 255.54 820.93 314.91 825.00 390.00
C 826.60 419.42 824.72 449.55 825.00 479.00 C 825.28 508.45 825.85 538.68 825.00 568.00 C 824.15 597.32 828.00 627.32 824.00 656.00
C 819.50 688.22 803.51 718.28 781.00 742.00
C 794.92 754.72 800.75 764.83 816.25 776.75 C 831.75 788.67 827.70 810.88 813.25 822.25 C 798.80 833.62 783.18 848.76 767.00 833.00
C 762.76 829.04 758.37 824.73 754.00 821.00
C 749.09 816.80 743.94 812.06 740.00 807.00
C 739.68 806.80 739.20 806.32 739.00 806.00
C 733.08 801.39 728.60 794.71 723.00 790.00
C 721.65 789.04 720.73 788.08 719.00 788.00
C 716.47 788.54 712.87 790.20 710.00 791.00
C 703.70 792.76 697.48 793.77 691.00 795.00
C 684.75 796.18 677.91 797.74 671.00 798.00
C 625.20 799.75 578.83 798.28 533.00 798.00 C 487.17 797.72 440.75 800.48 395.00 798.00
C 365.74 796.41 338.25 784.89 314.75 767.25 C 291.26 749.60 278.16 733.80 264.69 706.31 C 251.23 678.81 248.41 644.05 250.00 610.00 C 251.59 575.95 248.71 534.30 250.00 499.00 C 251.29 463.70 247.70 424.13 251.00 389.00
C 251.42 384.48 251.25 380.35 252.00 376.00
C 259.57 332.11 285.97 289.03 326.00 266.00
C 335.17 260.72 344.34 256.79 354.00 253.00
C 366.83 246.30 381.56 245.35 396.00 243.00
C 425.69 238.18 458.25 243.23 489.00 242.00 C 519.75 240.77 552.17 241.92 583.00 242.00 C 613.83 242.08 646.09 240.11 676.00 243.00 Z"/>
</g>
<g fill="None" fill-opacity="0.0" stroke="#D8D9DB" stroke-opacity="1.00" stroke-width="0.3"><path d="
M 396.00 243.00 
C 489.33 243.00 582.67 243.00 676.00 243.00
C 646.09 240.11 613.83 242.08 583.00 242.00 C 552.17 241.92 519.75 240.77 489.00 242.00 C 458.25 243.23 425.69 238.18 396.00 243.00 Z"/>
</g>
<g fill="None" fill-opacity="0.0" stroke="#525960" stroke-opacity="1.00" stroke-width="0.3"><path d="
M 354.00 253.00 
C 345.46 257.46 333.94 262.73 326.00 266.00
C 285.97 289.03 259.57 332.11 252.00 376.00
C 251.78 379.40 251.81 385.17 251.00 389.00
C 247.70 424.13 251.29 463.70 250.00 499.00 C 248.71 534.30 251.59 575.95 250.00 610.00 C 248.41 644.05 251.23 678.81 264.69 706.31 C 278.16 733.80 291.26 749.60 314.75 767.25 C 338.25 784.89 365.74 796.41 395.00 798.00
C 440.05 796.07 487.20 796.73 533.00 797.00 C 578.80 797.27 626.05 795.36 671.00 798.00
C 677.91 797.74 684.75 796.18 691.00 795.00
C 694.59 793.74 704.80 791.60 710.00 791.00
C 712.87 790.20 716.47 788.54 719.00 788.00
C 726.71 786.37 736.09 803.21 743.25 808.75 C 750.41 814.29 760.65 826.07 767.00 833.00
C 783.18 848.76 798.80 833.62 813.25 822.25 C 827.70 810.88 831.75 788.67 816.25 776.75 C 800.75 764.83 794.92 754.72 781.00 742.00
C 803.51 718.28 819.50 688.22 824.00 656.00
C 823.75 569.06 821.28 477.24 825.00 390.00
C 820.93 314.91 761.51 255.54 689.00 244.00
C 641.60 244.83 591.62 243.92 543.00 244.00 C 494.38 244.08 443.84 245.04 396.00 243.00
C 381.56 245.35 366.83 246.30 354.00 253.00
M 712.00 346.00 
C 718.05 349.54 725.19 357.90 728.00 364.00
C 735.11 374.37 737.51 386.40 740.00 398.00
C 745.47 423.54 739.92 453.20 741.00 480.00 C 742.08 506.80 742.04 537.23 741.00 564.00 C 739.96 590.77 745.77 621.03 739.00 646.00
C 736.61 654.80 732.99 662.94 728.00 671.00
C 725.24 677.32 720.85 684.77 714.75 677.25 C 708.66 669.73 704.40 667.61 698.75 661.25 C 693.11 654.89 688.15 651.13 682.75 645.25 C 677.35 639.37 672.29 635.55 666.75 630.25 C 661.21 624.95 656.41 619.30 650.75 614.25 C 645.09 609.20 640.54 602.88 635.00 598.00
C 622.33 588.48 605.69 596.29 595.75 605.75 C 585.82 615.21 570.76 627.84 578.00 642.00
C 582.84 651.48 592.95 658.75 600.00 667.00
C 608.38 676.80 618.25 686.67 628.00 695.00
C 632.98 699.26 637.78 704.08 642.00 709.00
C 643.29 710.50 646.06 710.94 644.00 713.00
C 640.32 716.68 628.59 713.47 623.00 714.00 C 617.41 714.53 605.89 715.08 601.00 713.00
C 600.50 713.00 599.50 713.00 599.00 713.00
C 545.00 713.00 491.00 712.98 437.00 713.00
C 436.50 713.00 436.00 713.00 436.00 713.00
C 432.13 715.86 424.93 713.23 420.00 714.00 C 415.07 714.77 408.25 713.82 404.00 713.00
C 389.11 711.82 373.66 704.30 362.00 695.00
C 356.08 691.54 348.60 683.14 346.00 677.00
C 340.37 667.81 337.74 658.25 335.00 648.00
C 331.47 634.79 334.91 619.25 334.00 605.00 C 333.09 590.75 334.37 575.41 334.00 561.00 C 333.63 546.59 334.07 531.41 334.00 517.00 C 333.93 502.59 333.81 487.23 334.00 473.00 C 334.19 458.77 333.42 442.77 334.00 429.00 C 334.58 415.23 331.75 398.88 336.00 389.00
C 341.69 366.02 352.80 350.49 375.03 338.03 C 397.26 325.57 429.41 329.22 457.00 329.00 C 484.59 328.78 518.44 329.38 547.00 329.00 C 575.56 328.62 609.55 329.79 638.00 329.00 C 666.45 328.21 689.98 328.44 712.00 346.00 Z"/>
</g>
<g fill="None" fill-opacity="0.0" stroke="#333C43" stroke-opacity="1.00" stroke-width="0.3"><path d="
M 689.00 244.00 
C 684.62 243.30 680.58 243.00 676.00 243.00
C 582.67 243.00 489.33 243.00 396.00 243.00
C 443.84 245.04 494.38 244.08 543.00 244.00 C 591.62 243.92 641.60 244.83 689.00 244.00 Z"/>
</g>
<g fill="None" fill-opacity="0.0" stroke="#323B43" stroke-opacity="1.00" stroke-width="0.3"><path d="
M 326.00 266.00 
C 333.94 262.73 345.46 257.46 354.00 253.00
C 344.34 256.79 335.17 260.72 326.00 266.00 Z"/>
</g>
<g fill="None" fill-opacity="0.0" stroke="#FEFEFE" stroke-opacity="1.00" stroke-width="0.3"><path d="
M 336.00 389.00 
C 331.00 409.18 336.37 431.91 335.00 453.00 C 333.63 474.09 335.11 496.68 335.00 518.00 C 334.89 539.32 333.94 561.67 335.00 583.00 C 336.06 604.33 332.05 626.89 335.00 648.00
C 337.74 658.25 340.37 667.81 346.00 677.00
C 350.07 683.65 355.99 690.21 362.00 695.00
C 373.66 704.30 389.11 711.82 404.00 713.00
C 414.52 713.83 425.45 713.00 436.00 713.00
C 436.00 713.00 436.50 713.00 437.00 713.00
C 444.22 707.66 458.47 713.60 468.00 712.00 C 477.53 710.40 490.76 712.54 501.00 712.00 C 511.24 711.46 523.55 711.85 534.00 712.00 C 544.45 712.15 556.72 711.06 567.00 712.00 C 577.28 712.94 590.03 709.19 599.00 713.00
C 599.50 713.00 600.50 713.00 601.00 713.00
C 607.25 713.00 616.00 714.22 622.00 713.00 C 628.00 711.78 638.95 716.04 644.00 713.00
C 646.06 710.94 643.29 710.50 642.00 709.00
C 637.38 704.43 632.54 699.54 628.00 695.00
C 618.25 686.67 608.38 676.80 600.00 667.00
C 592.28 659.28 581.80 652.17 578.00 642.00
C 570.76 627.84 585.82 615.21 595.75 605.75 C 605.69 596.29 622.33 588.48 635.00 598.00
C 666.83 621.91 690.70 658.34 722.00 681.00
C 722.98 677.26 726.16 674.41 728.00 671.00
C 732.99 662.94 736.61 654.80 739.00 646.00
C 742.81 619.36 739.40 591.27 740.00 564.00 C 740.60 536.73 740.76 508.36 740.00 481.00 C 739.24 453.64 742.64 425.23 740.00 398.00
C 737.51 386.40 735.11 374.37 728.00 364.00
C 723.48 357.40 718.24 350.97 712.00 346.00
C 689.98 328.44 666.45 328.21 638.00 329.00 C 609.55 329.79 575.56 328.62 547.00 329.00 C 518.44 329.38 484.59 328.78 457.00 329.00 C 429.41 329.22 397.26 325.57 375.03 338.03 C 352.80 350.49 341.69 366.02 336.00 389.00 Z"/>
</g>
<g fill="None" fill-opacity="0.0" stroke="#333C43" stroke-opacity="1.00" stroke-width="0.3"><path d="
M 712.00 346.00 
C 718.24 350.97 723.48 357.40 728.00 364.00
C 725.19 357.90 718.05 349.54 712.00 346.00 Z"/>
</g>
<g fill="None" fill-opacity="0.0" stroke="#272F39" stroke-opacity="1.00" stroke-width="0.3"><path d="
M 251.00 389.00 
C 251.81 385.17 251.78 379.40 252.00 376.00
C 251.25 380.35 251.42 384.48 251.00 389.00 Z"/>
</g>
<g fill="None" fill-opacity="0.0" stroke="#202A33" stroke-opacity="1.00" stroke-width="0.3"><path d="
M 335.00 648.00 
C 332.05 626.89 336.06 604.33 335.00 583.00 C 333.94 561.67 334.89 539.32 335.00 518.00 C 335.11 496.68 333.63 474.09 335.00 453.00 C 336.37 431.91 331.00 409.18 336.00 389.00
C 331.75 398.88 334.58 415.23 334.00 429.00 C 333.42 442.77 334.19 458.77 334.00 473.00 C 333.81 487.23 333.93 502.59 334.00 517.00 C 334.07 531.41 333.63 546.59 334.00 561.00 C 334.37 575.41 333.09 590.75 334.00 605.00 C 334.91 619.25 331.47 634.79 335.00 648.00 Z"/>
</g>
<g fill="None" fill-opacity="0.0" stroke="#202A32" stroke-opacity="1.00" stroke-width="0.3"><path d="
M 824.00 656.00 
C 828.00 627.32 824.15 597.32 825.00 568.00 C 825.85 538.68 825.28 508.45 825.00 479.00 C 824.72 449.55 826.60 419.42 825.00 390.00
C 821.28 477.24 823.75 569.06 824.00 656.00 Z"/>
</g>
<g fill="None" fill-opacity="0.0" stroke="#2C363E" stroke-opacity="1.00" stroke-width="0.3"><path d="
M 739.00 646.00 
C 745.77 621.03 739.96 590.77 741.00 564.00 C 742.04 537.23 742.08 506.80 741.00 480.00 C 739.92 453.20 745.47 423.54 740.00 398.00
C 742.64 425.23 739.24 453.64 740.00 481.00 C 740.76 508.36 740.60 536.73 740.00 564.00 C 739.40 591.27 742.81 619.36 739.00 646.00 Z"/>
</g>
<g fill="None" fill-opacity="0.0" stroke="#363E46" stroke-opacity="1.00" stroke-width="0.3"><path d="
M 728.00 671.00 
C 726.16 674.41 722.98 677.26 722.00 681.00
C 690.70 658.34 666.83 621.91 635.00 598.00
C 640.54 602.88 645.09 609.20 650.75 614.25 C 656.41 619.30 661.21 624.95 666.75 630.25 C 672.29 635.55 677.35 639.37 682.75 645.25 C 688.15 651.13 693.11 654.89 698.75 661.25 C 704.40 667.61 708.66 669.73 714.75 677.25 C 720.85 684.77 725.24 677.32 728.00 671.00 Z"/>
</g>
<g fill="None" fill-opacity="0.0" stroke="#2A333A" stroke-opacity="1.00" stroke-width="0.3"><path d="
M 600.00 667.00 
C 592.95 658.75 582.84 651.48 578.00 642.00
C 581.80 652.17 592.28 659.28 600.00 667.00 Z"/>
</g>
<g fill="None" fill-opacity="0.0" stroke="#303940" stroke-opacity="1.00" stroke-width="0.3"><path d="
M 362.00 695.00 
C 355.99 690.21 350.07 683.65 346.00 677.00
C 348.60 683.14 356.08 691.54 362.00 695.00 Z"/>
</g>
<g fill="None" fill-opacity="0.0" stroke="#9EA2A5" stroke-opacity="1.00" stroke-width="0.3"><path d="
M 642.00 709.00 
C 637.78 704.08 632.98 699.26 628.00 695.00
C 632.54 699.54 637.38 704.43 642.00 709.00 Z"/>
</g>
<g fill="None" fill-opacity="0.0" stroke="#9B9FA4" stroke-opacity="1.00" stroke-width="0.3"><path d="
M 437.00 713.00 
C 491.00 712.98 545.00 713.00 599.00 713.00
C 590.03 709.19 577.28 712.94 567.00 712.00 C 556.72 711.06 544.45 712.15 534.00 712.00 C 523.55 711.85 511.24 711.46 501.00 712.00 C 490.76 712.54 477.53 710.40 468.00 712.00 C 458.47 713.60 444.22 707.66 437.00 713.00 Z"/>
</g>
<g fill="None" fill-opacity="0.0" stroke="#1C272F" stroke-opacity="1.00" stroke-width="0.3"><path d="
M 436.00 713.00 
C 425.45 713.00 414.52 713.83 404.00 713.00
C 408.25 713.82 415.07 714.77 420.00 714.00 C 424.93 713.23 432.13 715.86 436.00 713.00 Z"/>
</g>
<g fill="None" fill-opacity="0.0" stroke="#242D37" stroke-opacity="1.00" stroke-width="0.3"><path d="
M 644.00 713.00 
C 638.95 716.04 628.00 711.78 622.00 713.00 C 616.00 714.22 607.25 713.00 601.00 713.00
C 605.89 715.08 617.41 714.53 623.00 714.00 C 628.59 713.47 640.32 716.68 644.00 713.00 Z"/>
</g>
<g fill="None" fill-opacity="0.0" stroke="#2D373F" stroke-opacity="1.00" stroke-width="0.3"><path d="
M 719.00 788.00 
C 720.73 788.08 721.65 789.04 723.00 790.00
C 728.33 793.79 735.58 800.47 739.00 806.00
C 739.20 806.32 739.68 806.80 740.00 807.00
C 745.45 810.37 749.59 816.59 754.00 821.00
C 758.37 824.73 762.76 829.04 767.00 833.00
C 760.65 826.07 750.41 814.29 743.25 808.75 C 736.09 803.21 726.71 786.37 719.00 788.00 Z"/>
</g>
<g fill="None" fill-opacity="0.0" stroke="#2F3841" stroke-opacity="1.00" stroke-width="0.3"><path d="
M 691.00 795.00 
C 697.48 793.77 703.70 792.76 710.00 791.00
C 704.80 791.60 694.59 793.74 691.00 795.00 Z"/>
</g>
<g fill="None" fill-opacity="0.0" stroke="#84898D" stroke-opacity="1.00" stroke-width="0.3"><path d="
M 739.00 806.00 
C 735.58 800.47 728.33 793.79 723.00 790.00
C 728.60 794.71 733.08 801.39 739.00 806.00 Z"/>
</g>
<g fill="None" fill-opacity="0.0" stroke="#343E45" stroke-opacity="1.00" stroke-width="0.3"><path d="
M 395.00 798.00 
C 440.75 800.48 487.17 797.72 533.00 798.00 C 578.83 798.28 625.20 799.75 671.00 798.00
C 626.05 795.36 578.80 797.27 533.00 797.00 C 487.20 796.73 440.05 796.07 395.00 798.00 Z"/>
</g>
<g fill="None" fill-opacity="0.0" stroke="#B4B7BA" stroke-opacity="1.00" stroke-width="0.3"><path d="
M 754.00 821.00 
C 749.59 816.59 745.45 810.37 740.00 807.00
C 743.94 812.06 749.09 816.80 754.00 821.00 Z"/>
</g>
<g fill="#FEFEFE" fill-opacity="1.00" stroke="None">
<path d="
M 0.00 1080.00 
L 1080.00 1080.00
L 1080.00 0.00
L 0.00 0.00
L 0.00 1080.00
M 676.00 243.00 
C 680.58 243.00 684.62 243.30 689.00 244.00
C 761.51 255.54 820.93 314.91 825.00 390.00
C 826.60 419.42 824.72 449.55 825.00 479.00 C 825.28 508.45 825.85 538.68 825.00 568.00 C 824.15 597.32 828.00 627.32 824.00 656.00
C 819.50 688.22 803.51 718.28 781.00 742.00
C 794.92 754.72 800.75 764.83 816.25 776.75 C 831.75 788.67 827.70 810.88 813.25 822.25 C 798.80 833.62 783.18 848.76 767.00 833.00
C 762.76 829.04 758.37 824.73 754.00 821.00
C 749.09 816.80 743.94 812.06 740.00 807.00
C 739.68 806.80 739.20 806.32 739.00 806.00
C 733.08 801.39 728.60 794.71 723.00 790.00
C 721.65 789.04 720.73 788.08 719.00 788.00
C 716.47 788.54 712.87 790.20 710.00 791.00
C 703.70 792.76 697.48 793.77 691.00 795.00
C 684.75 796.18 677.91 797.74 671.00 798.00
C 625.20 799.75 578.83 798.28 533.00 798.00 C 487.17 797.72 440.75 800.48 395.00 798.00
C 365.74 796.41 338.25 784.89 314.75 767.25 C 291.26 749.60 278.16 733.80 264.69 706.31 C 251.23 678.81 248.41 644.05 250.00 610.00 C 251.59 575.95 248.71 534.30 250.00 499.00 C 251.29 463.70 247.70 424.13 251.00 389.00
C 251.42 384.48 251.25 380.35 252.00 376.00
C 259.57 332.11 285.97 289.03 326.00 266.00
C 335.17 260.72 344.34 256.79 354.00 253.00
C 366.83 246.30 381.56 245.35 396.00 243.00
C 425.69 238.18 458.25 243.23 489.00 242.00 C 519.75 240.77 552.17 241.92 583.00 242.00 C 613.83 242.08 646.09 240.11 676.00 243.00 Z"/>
</g>
<g fill="#D8D9DB" fill-opacity="1.00" stroke="None">
<path d="
M 396.00 243.00 
C 489.33 243.00 582.67 243.00 676.00 243.00
C 646.09 240.11 613.83 242.08 583.00 242.00 C 552.17 241.92 519.75 240.77 489.00 242.00 C 458.25 243.23 425.69 238.18 396.00 243.00 Z"/>
</g>
<g fill="#525960" fill-opacity="1.00" stroke="None">
<path d="
M 354.00 253.00 
C 345.46 257.46 333.94 262.73 326.00 266.00
C 285.97 289.03 259.57 332.11 252.00 376.00
C 251.78 379.40 251.81 385.17 251.00 389.00
C 247.70 424.13 251.29 463.70 250.00 499.00 C 248.71 534.30 251.59 575.95 250.00 610.00 C 248.41 644.05 251.23 678.81 264.69 706.31 C 278.16 733.80 291.26 749.60 314.75 767.25 C 338.25 784.89 365.74 796.41 395.00 798.00
C 440.05 796.07 487.20 796.73 533.00 797.00 C 578.80 797.27 626.05 795.36 671.00 798.00
C 677.91 797.74 684.75 796.18 691.00 795.00
C 694.59 793.74 704.80 791.60 710.00 791.00
C 712.87 790.20 716.47 788.54 719.00 788.00
C 726.71 786.37 736.09 803.21 743.25 808.75 C 750.41 814.29 760.65 826.07 767.00 833.00
C 783.18 848.76 798.80 833.62 813.25 822.25 C 827.70 810.88 831.75 788.67 816.25 776.75 C 800.75 764.83 794.92 754.72 781.00 742.00
C 803.51 718.28 819.50 688.22 824.00 656.00
C 823.75 569.06 821.28 477.24 825.00 390.00
C 820.93 314.91 761.51 255.54 689.00 244.00
C 641.60 244.83 591.62 243.92 543.00 244.00 C 494.38 244.08 443.84 245.04 396.00 243.00
C 381.56 245.35 366.83 246.30 354.00 253.00
M 712.00 346.00 
C 718.05 349.54 725.19 357.90 728.00 364.00
C 735.11 374.37 737.51 386.40 740.00 398.00
C 745.47 423.54 739.92 453.20 741.00 480.00 C 742.08 506.80 742.04 537.23 741.00 564.00 C 739.96 590.77 745.77 621.03 739.00 646.00
C 736.61 654.80 732.99 662.94 728.00 671.00
C 725.24 677.32 720.85 684.77 714.75 677.25 C 708.66 669.73 704.40 667.61 698.75 661.25 C 693.11 654.89 688.15 651.13 682.75 645.25 C 677.35 639.37 672.29 635.55 666.75 630.25 C 661.21 624.95 656.41 619.30 650.75 614.25 C 645.09 609.20 640.54 602.88 635.00 598.00
C 622.33 588.48 605.69 596.29 595.75 605.75 C 585.82 615.21 570.76 627.84 578.00 642.00
C 582.84 651.48 592.95 658.75 600.00 667.00
C 608.38 676.80 618.25 686.67 628.00 695.00
C 632.98 699.26 637.78 704.08 642.00 709.00
C 643.29 710.50 646.06 710.94 644.00 713.00
C 640.32 716.68 628.59 713.47 623.00 714.00 C 617.41 714.53 605.89 715.08 601.00 713.00
C 600.50 713.00 599.50 713.00 599.00 713.00
C 545.00 713.00 491.00 712.98 437.00 713.00
C 436.50 713.00 436.00 713.00 436.00 713.00
C 432.13 715.86 424.93 713.23 420.00 714.00 C 415.07 714.77 408.25 713.82 404.00 713.00
C 389.11 711.82 373.66 704.30 362.00 695.00
C 356.08 691.54 348.60 683.14 346.00 677.00
C 340.37 667.81 337.74 658.25 335.00 648.00
C 331.47 634.79 334.91 619.25 334.00 605.00 C 333.09 590.75 334.37 575.41 334.00 561.00 C 333.63 546.59 334.07 531.41 334.00 517.00 C 333.93 502.59 333.81 487.23 334.00 473.00 C 334.19 458.77 333.42 442.77 334.00 429.00 C 334.58 415.23 331.75 398.88 336.00 389.00
C 341.69 366.02 352.80 350.49 375.03 338.03 C 397.26 325.57 429.41 329.22 457.00 329.00 C 484.59 328.78 518.44 329.38 547.00 329.00 C 575.56 328.62 609.55 329.79 638.00 329.00 C 666.45 328.21 689.98 328.44 712.00 346.00 Z"/>
</g>
<g fill="#333C43" fill-opacity="1.00" stroke="None">
<path d="
M 689.00 244.00 
C 684.62 243.30 680.58 243.00 676.00 243.00
C 582.67 243.00 489.33 243.00 396.00 243.00
C 443.84 245.04 494.38 244.08 543.00 244.00 C 591.62 243.92 641.60 244.83 689.00 244.00 Z"/>
</g>
<g fill="#323B43" fill-opacity="1.00" stroke="None">
<path d="
M 326.00 266.00 
C 333.94 262.73 345.46 257.46 354.00 253.00
C 344.34 256.79 335.17 260.72 326.00 266.00 Z"/>
</g>
<g fill="#FEFEFE" fill-opacity="1.00" stroke="None">
<path d="
M 336.00 389.00 
C 331.00 409.18 336.37 431.91 335.00 453.00 C 333.63 474.09 335.11 496.68 335.00 518.00 C 334.89 539.32 333.94 561.67 335.00 583.00 C 336.06 604.33 332.05 626.89 335.00 648.00
C 337.74 658.25 340.37 667.81 346.00 677.00
C 350.07 683.65 355.99 690.21 362.00 695.00
C 373.66 704.30 389.11 711.82 404.00 713.00
C 414.52 713.83 425.45 713.00 436.00 713.00
C 436.00 713.00 436.50 713.00 437.00 713.00
C 444.22 707.66 458.47 713.60 468.00 712.00 C 477.53 710.40 490.76 712.54 501.00 712.00 C 511.24 711.46 523.55 711.85 534.00 712.00 C 544.45 712.15 556.72 711.06 567.00 712.00 C 577.28 712.94 590.03 709.19 599.00 713.00
C 599.50 713.00 600.50 713.00 601.00 713.00
C 607.25 713.00 616.00 714.22 622.00 713.00 C 628.00 711.78 638.95 716.04 644.00 713.00
C 646.06 710.94 643.29 710.50 642.00 709.00
C 637.38 704.43 632.54 699.54 628.00 695.00
C 618.25 686.67 608.38 676.80 600.00 667.00
C 592.28 659.28 581.80 652.17 578.00 642.00
C 570.76 627.84 585.82 615.21 595.75 605.75 C 605.69 596.29 622.33 588.48 635.00 598.00
C 666.83 621.91 690.70 658.34 722.00 681.00
C 722.98 677.26 726.16 674.41 728.00 671.00
C 732.99 662.94 736.61 654.80 739.00 646.00
C 742.81 619.36 739.40 591.27 740.00 564.00 C 740.60 536.73 740.76 508.36 740.00 481.00 C 739.24 453.64 742.64 425.23 740.00 398.00
C 737.51 386.40 735.11 374.37 728.00 364.00
C 723.48 357.40 718.24 350.97 712.00 346.00
C 689.98 328.44 666.45 328.21 638.00 329.00 C 609.55 329.79 575.56 328.62 547.00 329.00 C 518.44 329.38 484.59 328.78 457.00 329.00 C 429.41 329.22 397.26 325.57 375.03 338.03 C 352.80 350.49 341.69 366.02 336.00 389.00 Z"/>
</g>
<g fill="#333C43" fill-opacity="1.00" stroke="None">
<path d="
M 712.00 346.00 
C 718.24 350.97 723.48 357.40 728.00 364.00
C 725.19 357.90 718.05 349.54 712.00 346.00 Z"/>
</g>
<g fill="#272F39" fill-opacity="1.00" stroke="None">
<path d="
M 251.00 389.00 
C 251.81 385.17 251.78 379.40 252.00 376.00
C 251.25 380.35 251.42 384.48 251.00 389.00 Z"/>
</g>
<g fill="#202A33" fill-opacity="1.00" stroke="None">
<path d="
M 335.00 648.00 
C 332.05 626.89 336.06 604.33 335.00 583.00 C 333.94 561.67 334.89 539.32 335.00 518.00 C 335.11 496.68 333.63 474.09 335.00 453.00 C 336.37 431.91 331.00 409.18 336.00 389.00
C 331.75 398.88 334.58 415.23 334.00 429.00 C 333.42 442.77 334.19 458.77 334.00 473.00 C 333.81 487.23 333.93 502.59 334.00 517.00 C 334.07 531.41 333.63 546.59 334.00 561.00 C 334.37 575.41 333.09 590.75 334.00 605.00 C 334.91 619.25 331.47 634.79 335.00 648.00 Z"/>
</g>
<g fill="#202A32" fill-opacity="1.00" stroke="None">
<path d="
M 824.00 656.00 
C 828.00 627.32 824.15 597.32 825.00 568.00 C 825.85 538.68 825.28 508.45 825.00 479.00 C 824.72 449.55 826.60 419.42 825.00 390.00
C 821.28 477.24 823.75 569.06 824.00 656.00 Z"/>
</g>
<g fill="#2C363E" fill-opacity="1.00" stroke="None">
<path d="
M 739.00 646.00 
C 745.77 621.03 739.96 590.77 741.00 564.00 C 742.04 537.23 742.08 506.80 741.00 480.00 C 739.92 453.20 745.47 423.54 740.00 398.00
C 742.64 425.23 739.24 453.64 740.00 481.00 C 740.76 508.36 740.60 536.73 740.00 564.00 C 739.40 591.27 742.81 619.36 739.00 646.00 Z"/>
</g>
<g fill="#363E46" fill-opacity="1.00" stroke="None">
<path d="
M 728.00 671.00 
C 726.16 674.41 722.98 677.26 722.00 681.00
C 690.70 658.34 666.83 621.91 635.00 598.00
C 640.54 602.88 645.09 609.20 650.75 614.25 C 656.41 619.30 661.21 624.95 666.75 630.25 C 672.29 635.55 677.35 639.37 682.75 645.25 C 688.15 651.13 693.11 654.89 698.75 661.25 C 704.40 667.61 708.66 669.73 714.75 677.25 C 720.85 684.77 725.24 677.32 728.00 671.00 Z"/>
</g>
<g fill="#2A333A" fill-opacity="1.00" stroke="None">
<path d="
M 600.00 667.00 
C 592.95 658.75 582.84 651.48 578.00 642.00
C 581.80 652.17 592.28 659.28 600.00 667.00 Z"/>
</g>
<g fill="#303940" fill-opacity="1.00" stroke="None">
<path d="
M 362.00 695.00 
C 355.99 690.21 350.07 683.65 346.00 677.00
C 348.60 683.14 356.08 691.54 362.00 695.00 Z"/>
</g>
<g fill="#9EA2A5" fill-opacity="1.00" stroke="None">
<path d="
M 642.00 709.00 
C 637.78 704.08 632.98 699.26 628.00 695.00
C 632.54 699.54 637.38 704.43 642.00 709.00 Z"/>
</g>
<g fill="#9B9FA4" fill-opacity="1.00" stroke="None">
<path d="
M 437.00 713.00 
C 491.00 712.98 545.00 713.00 599.00 713.00
C 590.03 709.19 577.28 712.94 567.00 712.00 C 556.72 711.06 544.45 712.15 534.00 712.00 C 523.55 711.85 511.24 711.46 501.00 712.00 C 490.76 712.54 477.53 710.40 468.00 712.00 C 458.47 713.60 444.22 707.66 437.00 713.00 Z"/>
</g>
<g fill="#1C272F" fill-opacity="1.00" stroke="None">
<path d="
M 436.00 713.00 
C 425.45 713.00 414.52 713.83 404.00 713.00
C 408.25 713.82 415.07 714.77 420.00 714.00 C 424.93 713.23 432.13 715.86 436.00 713.00 Z"/>
</g>
<g fill="#242D37" fill-opacity="1.00" stroke="None">
<path d="
M 644.00 713.00 
C 638.95 716.04 628.00 711.78 622.00 713.00 C 616.00 714.22 607.25 713.00 601.00 713.00
C 605.89 715.08 617.41 714.53 623.00 714.00 C 628.59 713.47 640.32 716.68 644.00 713.00 Z"/>
</g>
<g fill="#2D373F" fill-opacity="1.00" stroke="None">
<path d="
M 719.00 788.00 
C 720.73 788.08 721.65 789.04 723.00 790.00
C 728.33 793.79 735.58 800.47 739.00 806.00
C 739.20 806.32 739.68 806.80 740.00 807.00
C 745.45 810.37 749.59 816.59 754.00 821.00
C 758.37 824.73 762.76 829.04 767.00 833.00
C 760.65 826.07 750.41 814.29 743.25 808.75 C 736.09 803.21 726.71 786.37 719.00 788.00 Z"/>
</g>
<g fill="#2F3841" fill-opacity="1.00" stroke="None">
<path d="
M 691.00 795.00 
C 697.48 793.77 703.70 792.76 710.00 791.00
C 704.80 791.60 694.59 793.74 691.00 795.00 Z"/>
</g>
<g fill="#84898D" fill-opacity="1.00" stroke="None">
<path d="
M 739.00 806.00 
C 735.58 800.47 728.33 793.79 723.00 790.00
C 728.60 794.71 733.08 801.39 739.00 806.00 Z"/>
</g>
<g fill="#343E45" fill-opacity="1.00" stroke="None">
<path d="
M 395.00 798.00 
C 440.75 800.48 487.17 797.72 533.00 798.00 C 578.83 798.28 625.20 799.75 671.00 798.00
C 626.05 795.36 578.80 797.27 533.00 797.00 C 487.20 796.73 440.05 796.07 395.00 798.00 Z"/>
</g>
<g fill="#B4B7BA" fill-opacity="1.00" stroke="None">
<path d="
M 754.00 821.00 
C 749.59 816.59 745.45 810.37 740.00 807.00
C 743.94 812.06 749.09 816.80 754.00 821.00 Z"/>
</g>
</svg>