<svg xmlns="http://www.w3.org/2000/svg" xmlns:v="https://svgstorm.com"
viewBox = "0 0 1024 1024"
width="1024"
height="1024">
<g fill="None" fill-opacity="0.0" stroke="#000000" stroke-opacity="0.00" stroke-width="0.3"><path d="
M 0.00 1024.00 
L 1024.00 1024.00
L 1024.00 0.00
L 0.00 0.00
L 0.00 1024.00
M 681.00 479.00 
C 682.46 484.89 682.89 489.60 682.00 496.00
C 677.64 527.21 650.95 545.46 626.25 561.25 C 601.56 577.05 578.30 595.01 554.30 610.30 C 530.29 625.58 506.67 644.19 482.75 659.75 C 458.83 675.31 434.88 692.46 409.92 707.92 C 384.97 723.38 362.48 747.41 333.00 753.00
C 323.27 754.84 312.62 753.59 304.00 750.00
C 278.61 739.42 265.40 720.79 266.00 691.00 C 266.60 661.21 265.73 625.29 266.00 594.00 C 266.27 562.71 265.88 527.94 266.00 496.00 C 266.12 464.06 265.96 431.23 266.00 399.00 C 266.04 366.77 266.00 333.34 266.00 301.00
C 266.00 295.71 265.64 290.28 266.00 285.00
C 268.65 246.05 315.19 217.62 348.23 235.77 C 381.27 253.92 405.19 272.56 435.70 292.30 C 466.20 312.05 492.26 330.65 521.70 350.30 C 551.13 369.96 579.92 388.83 607.70 408.30 C 635.47 427.78 672.23 443.61 681.00 479.00
M 800.00 300.00 
C 808.46 306.55 813.41 312.29 816.00 324.00
C 816.20 324.92 816.76 326.64 817.00 328.00
C 817.77 332.36 817.89 336.32 817.00 341.00
C 813.67 358.56 801.54 376.07 782.78 379.78 C 764.01 383.49 738.07 376.46 732.00 357.00
C 731.16 355.53 728.39 354.43 729.00 352.00
C 676.16 351.33 622.01 353.33 570.00 351.00
C 569.50 351.00 568.50 351.01 568.00 351.00
C 556.63 350.70 536.02 338.69 542.00 325.00
C 547.15 313.21 568.82 320.48 581.00 319.00 C 593.18 317.52 612.26 319.49 626.00 319.00 C 639.74 318.51 657.73 318.87 672.00 319.00 C 686.27 319.13 702.79 318.13 717.00 319.00 C 731.21 319.87 734.39 307.66 744.00 300.00
C 753.49 284.97 790.36 286.16 800.00 300.00
M 837.00 421.00 
C 856.03 425.22 869.34 438.69 873.00 458.00
C 874.00 463.26 873.99 467.76 873.00 473.00
C 869.43 491.87 857.35 504.24 839.00 509.00
C 830.60 511.18 823.38 511.41 815.00 509.00
C 799.88 504.66 789.32 493.47 783.00 479.00
C 773.72 482.56 760.14 479.92 750.00 480.00 C 739.86 480.08 725.53 482.18 716.00 479.00
C 708.46 476.49 702.97 471.58 702.02 461.98 C 701.08 452.37 711.42 448.17 720.00 448.00
C 731.87 447.76 745.30 448.65 757.00 448.00 C 768.70 447.35 782.22 451.98 789.00 442.00
C 796.40 431.10 804.53 426.16 817.00 422.00
C 823.35 419.88 830.03 419.46 837.00 421.00
M 817.00 591.00 
C 817.84 595.44 817.84 598.58 817.00 603.00
C 813.22 622.96 801.44 635.42 782.00 641.00
C 775.70 642.81 770.54 643.33 764.00 642.00
C 755.52 640.27 748.37 637.72 742.00 632.00
C 739.84 630.06 737.85 628.16 736.00 626.00
C 732.39 621.78 729.91 617.06 728.00 612.00
C 711.45 611.10 693.40 613.20 677.00 612.00 C 660.60 610.80 643.19 615.16 627.93 610.07 C 612.66 604.99 626.00 583.12 637.00 582.00
C 650.40 577.82 668.36 581.48 683.00 581.00 C 697.64 580.52 715.05 580.00 729.00 580.00
C 731.76 567.44 743.88 560.70 755.07 555.07 C 766.27 549.44 786.04 550.99 797.25 558.75 C 808.45 566.52 814.53 577.97 817.00 591.00
M 704.00 694.00 
C 705.01 700.59 705.36 707.33 704.00 714.00
C 700.71 730.15 686.67 740.98 672.00 746.00
C 661.34 749.65 651.64 747.79 642.00 744.00
C 631.12 739.73 625.12 734.10 619.00 724.00
C 614.38 716.38 612.39 712.63 602.00 714.00 C 591.61 715.37 583.76 713.51 574.00 714.00 C 564.24 714.50 555.40 714.05 546.00 714.00 C 536.60 713.95 527.09 714.63 518.00 714.00 C 508.91 713.37 499.30 716.10 491.00 713.00
C 472.92 706.24 487.48 685.24 500.00 683.00
C 512.07 680.84 527.39 682.99 540.00 682.00 C 552.61 681.01 570.23 683.87 582.00 682.00 C 593.77 680.13 612.97 687.84 620.00 678.00
C 628.08 666.68 637.58 660.41 651.00 658.00
C 655.09 657.27 660.23 656.62 665.00 657.00
C 685.20 658.60 701.09 674.91 704.00 694.00 Z"/>
</g>
<g fill="None" fill-opacity="0.0" stroke="#2DF8FE" stroke-opacity="0.95" stroke-width="0.3"><path d="
M 266.00 285.00 
C 266.00 284.96 267.00 285.00 267.00 285.00
C 267.89 284.41 268.76 297.61 267.00 300.00
C 266.78 300.30 266.05 300.77 266.00 301.00
C 266.00 333.34 266.04 366.77 266.00 399.00 C 265.96 431.23 266.12 464.06 266.00 496.00 C 265.88 527.94 266.27 562.71 266.00 594.00 C 265.73 625.29 266.60 661.21 266.00 691.00 C 265.40 720.79 278.61 739.42 304.00 750.00
C 312.03 751.06 324.25 752.85 333.00 753.00
C 362.48 747.41 384.97 723.38 409.92 707.92 C 434.88 692.46 458.83 675.31 482.75 659.75 C 506.67 644.19 530.29 625.58 554.30 610.30 C 578.30 595.01 601.56 577.05 626.25 561.25 C 650.95 545.46 677.64 527.21 682.00 496.00
C 681.71 491.02 681.24 483.92 681.00 479.00
C 672.23 443.61 635.47 427.78 607.70 408.30 C 579.92 388.83 551.13 369.96 521.70 350.30 C 492.26 330.65 466.20 312.05 435.70 292.30 C 405.19 272.56 381.27 253.92 348.23 235.77 C 315.19 217.62 268.65 246.05 266.00 285.00
M 327.00 718.00 
C 322.83 719.84 323.49 719.76 320.00 718.00
C 311.77 716.46 303.48 707.27 302.00 699.00
C 298.14 691.02 300.50 678.48 300.00 668.00 C 299.50 657.52 300.37 645.61 300.00 635.00 C 299.63 624.39 300.05 612.82 301.00 603.00
C 296.95 574.88 302.76 545.46 301.00 517.00 C 299.24 488.54 301.65 459.66 301.00 431.00 C 300.35 402.34 301.00 372.75 301.00 344.00
C 301.00 334.33 300.28 324.38 300.00 315.00 C 299.72 305.62 298.83 293.94 302.00 287.00
C 306.85 257.15 336.71 267.19 352.75 281.25 C 368.79 295.32 388.70 303.80 405.70 316.30 C 422.69 328.81 439.96 340.12 457.25 351.75 C 474.53 363.38 493.06 375.15 510.23 386.77 C 527.41 398.38 544.85 411.04 562.23 421.77 C 579.61 432.50 597.21 448.29 614.75 457.25 C 632.28 466.22 657.22 487.95 640.75 505.75 C 624.29 523.56 606.94 528.32 589.30 542.30 C 571.66 556.28 555.00 564.77 537.75 577.75 C 520.51 590.74 502.28 600.44 484.92 612.92 C 467.57 625.41 450.70 636.51 433.32 648.32 C 415.94 660.13 398.42 672.14 380.92 683.92 C 363.42 695.71 346.13 709.55 327.00 718.00 Z"/>
</g>
<g fill="None" fill-opacity="0.0" stroke="#000000" stroke-opacity="0.00" stroke-width="0.3"><path d="
M 302.00 287.00 
C 300.06 298.95 302.00 312.87 302.00 325.00
C 306.39 370.38 301.36 417.71 303.00 464.00 C 304.64 510.29 302.00 558.04 302.00 604.00
C 302.00 619.56 300.94 635.47 302.00 651.00 C 303.06 666.53 299.26 683.70 302.00 699.00
C 303.48 707.27 311.77 716.46 320.00 718.00
C 321.94 718.36 325.05 718.29 327.00 718.00
C 346.13 709.55 363.42 695.71 380.92 683.92 C 398.42 672.14 415.94 660.13 433.32 648.32 C 450.70 636.51 467.57 625.41 484.92 612.92 C 502.28 600.44 520.51 590.74 537.75 577.75 C 555.00 564.77 571.66 556.28 589.30 542.30 C 606.94 528.32 624.29 523.56 640.75 505.75 C 657.22 487.95 632.28 466.22 614.75 457.25 C 597.21 448.29 579.61 432.50 562.23 421.77 C 544.85 411.04 527.41 398.38 510.23 386.77 C 493.06 375.15 474.53 363.38 457.25 351.75 C 439.96 340.12 422.69 328.81 405.70 316.30 C 388.70 303.80 368.79 295.32 352.75 281.25 C 336.71 267.19 306.85 257.15 302.00 287.00 Z"/>
</g>
<g fill="None" fill-opacity="0.0" stroke="#38FFFF" stroke-opacity="0.82" stroke-width="0.3"><path d="
M 267.00 285.00 
C 267.41 289.58 267.65 295.46 267.00 300.00
C 268.76 297.61 267.89 284.41 267.00 285.00 Z"/>
</g>
<g fill="None" fill-opacity="0.0" stroke="#2FF2F2" stroke-opacity="0.17" stroke-width="0.3"><path d="
M 266.00 301.00 
C 266.05 300.77 266.78 300.30 267.00 300.00
C 267.65 295.46 267.41 289.58 267.00 285.00
C 267.00 285.00 266.00 284.96 266.00 285.00
C 265.64 290.28 266.00 295.71 266.00 301.00 Z"/>
</g>
<g fill="None" fill-opacity="0.0" stroke="#34F7FC" stroke-opacity="0.45" stroke-width="0.3"><path d="
M 301.00 344.00 
C 301.55 338.30 302.00 331.38 302.00 325.00
C 302.00 312.87 300.06 298.95 302.00 287.00
C 298.83 293.94 299.72 305.62 300.00 315.00 C 300.28 324.38 301.00 334.33 301.00 344.00 Z"/>
</g>
<g fill="None" fill-opacity="0.0" stroke="#2DF8FE" stroke-opacity="0.96" stroke-width="0.3"><path d="
M 744.00 300.00 
C 740.54 305.48 736.20 311.39 731.08 318.08 C 725.95 324.77 710.05 319.88 701.00 321.00 C 691.95 322.12 677.98 320.45 668.00 321.00 C 658.02 321.55 645.23 320.64 635.00 321.00 C 624.77 321.36 611.96 320.60 602.00 321.00 C 592.04 321.40 578.01 320.30 569.00 321.00 C 559.99 321.70 546.16 318.40 542.00 325.00
C 536.02 338.69 556.63 350.70 568.00 351.00
C 577.15 349.74 588.40 348.14 599.00 349.00 C 609.60 349.86 621.43 348.33 632.00 349.00 C 642.57 349.67 654.75 348.07 665.00 349.00 C 675.25 349.93 688.58 347.20 698.00 349.00 C 707.42 350.80 723.75 344.31 730.00 351.00
C 731.59 352.70 731.31 354.79 732.00 357.00
C 738.07 376.46 764.01 383.49 782.78 379.78 C 801.54 376.07 813.67 358.56 817.00 341.00
C 817.03 341.32 816.83 331.45 817.00 328.00
C 816.76 326.64 816.20 324.92 816.00 324.00
C 811.73 315.79 804.44 306.37 800.00 300.00
C 790.36 286.16 753.49 284.97 744.00 300.00
M 778.00 352.00 
C 775.15 354.47 768.79 354.19 766.00 352.00
C 758.47 346.07 749.84 334.23 757.92 324.92 C 766.01 315.62 776.90 315.41 785.25 324.75 C 793.61 334.08 785.81 345.23 778.00 352.00 Z"/>
</g>
<g fill="None" fill-opacity="0.0" stroke="#3CFDFD" stroke-opacity="0.41" stroke-width="0.3"><path d="
M 542.00 325.00 
C 546.16 318.40 559.99 321.70 569.00 321.00 C 578.01 320.30 592.04 321.40 602.00 321.00 C 611.96 320.60 624.77 321.36 635.00 321.00 C 645.23 320.64 658.02 321.55 668.00 321.00 C 677.98 320.45 691.95 322.12 701.00 321.00 C 710.05 319.88 725.95 324.77 731.08 318.08 C 736.20 311.39 740.54 305.48 744.00 300.00
C 734.39 307.66 731.21 319.87 717.00 319.00 C 702.79 318.13 686.27 319.13 672.00 319.00 C 657.73 318.87 639.74 318.51 626.00 319.00 C 612.26 319.49 593.18 317.52 581.00 319.00 C 568.82 320.48 547.15 313.21 542.00 325.00 Z"/>
</g>
<g fill="None" fill-opacity="0.0" stroke="#2EFCFD" stroke-opacity="0.38" stroke-width="0.3"><path d="
M 816.00 324.00 
C 813.41 312.29 808.46 306.55 800.00 300.00
C 804.44 306.37 811.73 315.79 816.00 324.00 Z"/>
</g>
<g fill="None" fill-opacity="0.0" stroke="#000000" stroke-opacity="0.00" stroke-width="0.3"><path d="
M 766.00 352.00 
C 768.55 352.69 775.48 352.77 778.00 352.00
C 785.81 345.23 793.61 334.08 785.25 324.75 C 776.90 315.41 766.01 315.62 757.92 324.92 C 749.84 334.23 758.47 346.07 766.00 352.00 Z"/>
</g>
<g fill="None" fill-opacity="0.0" stroke="#2EFEFF" stroke-opacity="0.25" stroke-width="0.3"><path d="
M 301.00 344.00 
C 301.00 372.75 300.35 402.34 301.00 431.00 C 301.65 459.66 299.24 488.54 301.00 517.00 C 302.76 545.46 296.95 574.88 301.00 603.00
C 301.05 603.35 301.95 603.77 302.00 604.00
C 302.00 558.04 304.64 510.29 303.00 464.00 C 301.36 417.71 306.39 370.38 302.00 325.00
C 302.00 331.38 301.55 338.30 301.00 344.00 Z"/>
</g>
<g fill="None" fill-opacity="0.0" stroke="#36FCFB" stroke-opacity="0.40" stroke-width="0.3"><path d="
M 817.00 341.00 
C 817.89 336.32 817.77 332.36 817.00 328.00
C 816.83 331.45 817.03 341.32 817.00 341.00 Z"/>
</g>
<g fill="None" fill-opacity="0.0" stroke="#3AFEFE" stroke-opacity="0.62" stroke-width="0.3"><path d="
M 568.00 351.00 
C 568.50 351.01 569.50 351.00 570.00 351.00
C 623.11 351.00 677.99 351.00 730.00 351.00
C 723.75 344.31 707.42 350.80 698.00 349.00 C 688.58 347.20 675.25 349.93 665.00 349.00 C 654.75 348.07 642.57 349.67 632.00 349.00 C 621.43 348.33 609.60 349.86 599.00 349.00 C 588.40 348.14 577.15 349.74 568.00 351.00 Z"/>
</g>
<g fill="None" fill-opacity="0.0" stroke="#43FEFE" stroke-opacity="0.03" stroke-width="0.3"><path d="
M 732.00 357.00 
C 731.31 354.79 731.59 352.70 730.00 351.00
C 677.99 351.00 623.11 351.00 570.00 351.00
C 622.01 353.33 676.16 351.33 729.00 352.00
C 728.39 354.43 731.16 355.53 732.00 357.00 Z"/>
</g>
<g fill="None" fill-opacity="0.0" stroke="#37FCF9" stroke-opacity="0.42" stroke-width="0.3"><path d="
M 778.00 352.00 
C 775.48 352.77 768.55 352.69 766.00 352.00
C 768.79 354.19 775.15 354.47 778.00 352.00 Z"/>
</g>
<g fill="None" fill-opacity="0.0" stroke="#2FFCFB" stroke-opacity="0.36" stroke-width="0.3"><path d="
M 817.00 422.00 
C 822.44 421.71 833.10 421.21 837.00 421.00
C 830.03 419.46 823.35 419.88 817.00 422.00 Z"/>
</g>
<g fill="None" fill-opacity="0.0" stroke="#2CF7FE" stroke-opacity="0.95" stroke-width="0.3"><path d="
M 817.00 422.00 
C 804.53 426.16 796.40 431.10 789.00 442.00
C 787.41 446.54 786.62 451.29 779.00 450.00 C 771.38 448.71 766.16 450.59 759.00 450.00 C 751.84 449.41 746.02 450.30 739.00 450.00 C 731.98 449.70 725.02 450.22 718.00 450.00
C 718.08 448.74 720.06 449.44 720.00 448.00
C 711.42 448.17 701.08 452.37 702.02 461.98 C 702.97 471.58 708.46 476.49 716.00 479.00
C 724.84 478.93 739.73 475.13 751.00 477.00 C 762.27 478.87 776.29 473.96 786.00 479.00
C 785.00 479.00 784.00 479.00 783.00 479.00
C 789.32 493.47 799.88 504.66 815.00 509.00
C 821.52 509.41 832.54 509.41 839.00 509.00
C 857.35 504.24 869.43 491.87 873.00 473.00
C 872.93 468.88 872.93 462.05 873.00 458.00
C 869.34 438.69 856.03 425.22 837.00 421.00
C 833.10 421.21 822.44 421.71 817.00 422.00
M 832.00 449.00 
C 852.84 453.32 845.67 487.62 824.33 482.67 C 802.99 477.72 809.87 444.42 832.00 449.00 Z"/>
</g>
<g fill="None" fill-opacity="0.0" stroke="#37FDFE" stroke-opacity="0.58" stroke-width="0.3"><path d="
M 720.00 448.00 
C 720.06 449.44 718.08 448.74 718.00 450.00
C 725.02 450.22 731.98 449.70 739.00 450.00 C 746.02 450.30 751.84 449.41 759.00 450.00 C 766.16 450.59 771.38 448.71 779.00 450.00 C 786.62 451.29 787.41 446.54 789.00 442.00
C 782.22 451.98 768.70 447.35 757.00 448.00 C 745.30 448.65 731.87 447.76 720.00 448.00 Z"/>
</g>
<g fill="None" fill-opacity="0.0" stroke="#000000" stroke-opacity="0.00" stroke-width="0.3"><path d="
M 832.00 449.00 
C 809.87 444.42 802.99 477.72 824.33 482.67 C 845.67 487.62 852.84 453.32 832.00 449.00 Z"/>
</g>
<g fill="None" fill-opacity="0.0" stroke="#2CFCFC" stroke-opacity="0.36" stroke-width="0.3"><path d="
M 873.00 473.00 
C 873.99 467.76 874.00 463.26 873.00 458.00
C 872.93 462.05 872.93 468.88 873.00 473.00 Z"/>
</g>
<g fill="None" fill-opacity="0.0" stroke="#41FEFE" stroke-opacity="0.42" stroke-width="0.3"><path d="
M 716.00 479.00 
C 725.53 482.18 739.86 480.08 750.00 480.00 C 760.14 479.92 773.72 482.56 783.00 479.00
C 784.00 479.00 785.00 479.00 786.00 479.00
C 776.29 473.96 762.27 478.87 751.00 477.00 C 739.73 475.13 724.84 478.93 716.00 479.00 Z"/>
</g>
<g fill="None" fill-opacity="0.0" stroke="#34FEFE" stroke-opacity="0.29" stroke-width="0.3"><path d="
M 682.00 496.00 
C 682.89 489.60 682.46 484.89 681.00 479.00
C 681.24 483.92 681.71 491.02 682.00 496.00 Z"/>
</g>
<g fill="None" fill-opacity="0.0" stroke="#30FCFD" stroke-opacity="0.34" stroke-width="0.3"><path d="
M 815.00 509.00 
C 823.38 511.41 830.60 511.18 839.00 509.00
C 832.54 509.41 821.52 509.41 815.00 509.00 Z"/>
</g>
<g fill="None" fill-opacity="0.0" stroke="#2CF7FE" stroke-opacity="0.94" stroke-width="0.3"><path d="
M 729.00 580.00 
C 733.06 580.00 723.54 584.48 718.00 583.00 C 712.46 581.52 704.23 583.49 698.00 583.00 C 691.77 582.51 683.45 582.92 677.00 583.00 C 670.55 583.08 663.43 582.22 657.00 583.00 C 650.57 583.78 642.48 581.56 637.00 582.00
C 626.00 583.12 612.66 604.99 627.93 610.07 C 643.19 615.16 660.60 610.80 677.00 612.00 C 693.40 613.20 711.45 611.10 728.00 612.00
C 729.91 617.06 732.39 621.78 736.00 626.00
C 739.29 628.32 739.42 628.35 742.00 632.00
C 748.37 637.72 755.52 640.27 764.00 642.00
C 766.72 641.93 777.88 641.35 782.00 641.00
C 801.44 635.42 813.22 622.96 817.00 603.00
C 816.95 599.88 816.95 594.05 817.00 591.00
C 814.53 577.97 808.45 566.52 797.25 558.75 C 786.04 550.99 766.27 549.44 755.07 555.07 C 743.88 560.70 731.76 567.44 729.00 580.00
M 776.00 580.00 
C 796.64 585.11 789.69 618.44 768.00 614.00 C 746.31 609.56 754.64 574.71 776.00 580.00 Z"/>
</g>
<g fill="None" fill-opacity="0.0" stroke="#31FAF8" stroke-opacity="0.41" stroke-width="0.3"><path d="
M 729.00 580.00 
C 715.05 580.00 697.64 580.52 683.00 581.00 C 668.36 581.48 650.40 577.82 637.00 582.00
C 642.48 581.56 650.57 583.78 657.00 583.00 C 663.43 582.22 670.55 583.08 677.00 583.00 C 683.45 582.92 691.77 582.51 698.00 583.00 C 704.23 583.49 712.46 581.52 718.00 583.00 C 723.54 584.48 733.06 580.00 729.00 580.00 Z"/>
</g>
<g fill="None" fill-opacity="0.0" stroke="#000000" stroke-opacity="0.00" stroke-width="0.3"><path d="
M 776.00 580.00 
C 754.64 574.71 746.31 609.56 768.00 614.00 C 789.69 618.44 796.64 585.11 776.00 580.00 Z"/>
</g>
<g fill="None" fill-opacity="0.0" stroke="#2FFCFB" stroke-opacity="0.36" stroke-width="0.3"><path d="
M 817.00 603.00 
C 817.84 598.58 817.84 595.44 817.00 591.00
C 816.95 594.05 816.95 599.88 817.00 603.00 Z"/>
</g>
<g fill="None" fill-opacity="0.0" stroke="#37F7FB" stroke-opacity="0.49" stroke-width="0.3"><path d="
M 302.00 699.00 
C 299.26 683.70 303.06 666.53 302.00 651.00 C 300.94 635.47 302.00 619.56 302.00 604.00
C 301.95 603.77 301.05 603.35 301.00 603.00
C 300.05 612.82 299.63 624.39 300.00 635.00 C 300.37 645.61 299.50 657.52 300.00 668.00 C 300.50 678.48 298.14 691.02 302.00 699.00 Z"/>
</g>
<g fill="None" fill-opacity="0.0" stroke="#33FEFF" stroke-opacity="0.35" stroke-width="0.3"><path d="
M 742.00 632.00 
C 739.42 628.35 739.29 628.32 736.00 626.00
C 737.85 628.16 739.84 630.06 742.00 632.00 Z"/>
</g>
<g fill="None" fill-opacity="0.0" stroke="#27FDFD" stroke-opacity="0.32" stroke-width="0.3"><path d="
M 764.00 642.00 
C 770.54 643.33 775.70 642.81 782.00 641.00
C 777.88 641.35 766.72 641.93 764.00 642.00 Z"/>
</g>
<g fill="None" fill-opacity="0.0" stroke="#32FDFD" stroke-opacity="0.44" stroke-width="0.3"><path d="
M 651.00 658.00 
C 652.80 658.05 655.41 658.19 658.00 659.00 C 660.59 659.81 664.44 657.07 665.00 657.00
C 660.23 656.62 655.09 657.27 651.00 658.00 Z"/>
</g>
<g fill="None" fill-opacity="0.0" stroke="#2CF7FE" stroke-opacity="0.96" stroke-width="0.3"><path d="
M 651.00 658.00 
C 637.58 660.41 628.08 666.68 620.00 678.00
C 619.51 679.84 618.92 685.21 612.00 684.00 C 605.08 682.79 599.57 684.53 593.00 684.00 C 586.43 683.47 580.37 684.21 574.00 684.00 C 567.63 683.79 562.27 683.99 556.00 684.00 C 549.73 684.02 543.24 683.78 537.00 684.00 C 530.76 684.22 524.15 683.44 518.00 684.00 C 511.85 684.56 505.28 683.15 500.00 683.00
C 487.48 685.24 472.92 706.24 491.00 713.00
C 503.30 714.66 517.55 710.60 531.00 712.00 C 544.45 713.40 559.29 711.27 573.00 712.00 C 586.71 712.73 601.22 711.45 615.00 712.00
C 614.34 714.74 621.06 719.49 619.00 724.00
C 625.12 734.10 631.12 739.73 642.00 744.00
C 650.44 745.24 663.04 746.51 672.00 746.00
C 686.67 740.98 700.71 730.15 704.00 714.00
C 703.89 710.09 703.75 699.81 704.00 694.00
C 701.09 674.91 685.20 658.60 665.00 657.00
C 664.44 657.07 660.59 659.81 658.00 659.00 C 655.41 658.19 652.80 658.05 651.00 658.00
M 676.00 698.00 
C 676.84 699.65 677.80 698.62 678.00 702.00 C 678.19 705.39 676.22 703.55 676.00 704.00
C 675.66 707.80 674.23 709.94 672.00 713.00
C 672.88 712.35 673.87 711.92 675.00 712.00
C 673.11 714.27 671.11 717.65 668.00 718.00
C 668.30 716.75 669.83 716.29 670.00 715.00
C 656.97 724.50 636.07 712.97 642.98 695.98 C 649.88 678.99 669.34 684.96 676.00 698.00 Z"/>
</g>
<g fill="None" fill-opacity="0.0" stroke="#2EFEFE" stroke-opacity="0.33" stroke-width="0.3"><path d="
M 500.00 683.00 
C 505.28 683.15 511.85 684.56 518.00 684.00 C 524.15 683.44 530.76 684.22 537.00 684.00 C 543.24 683.78 549.73 684.02 556.00 684.00 C 562.27 683.99 567.63 683.79 574.00 684.00 C 580.37 684.21 586.43 683.47 593.00 684.00 C 599.57 684.53 605.08 682.79 612.00 684.00 C 618.92 685.21 619.51 679.84 620.00 678.00
C 612.97 687.84 593.77 680.13 582.00 682.00 C 570.23 683.87 552.61 681.01 540.00 682.00 C 527.39 682.99 512.07 680.84 500.00 683.00 Z"/>
</g>
<g fill="None" fill-opacity="0.0" stroke="#000000" stroke-opacity="0.00" stroke-width="0.3"><path d="
M 670.00 715.00 
C 671.00 714.27 671.30 713.96 672.00 713.00
C 674.23 709.94 675.66 707.80 676.00 704.00
C 676.16 702.21 676.30 699.77 676.00 698.00
C 669.34 684.96 649.88 678.99 642.98 695.98 C 636.07 712.97 656.97 724.50 670.00 715.00 Z"/>
</g>
<g fill="None" fill-opacity="0.0" stroke="#35FEFE" stroke-opacity="0.47" stroke-width="0.3"><path d="
M 704.00 714.00 
C 705.36 707.33 705.01 700.59 704.00 694.00
C 703.75 699.81 703.89 710.09 704.00 714.00 Z"/>
</g>
<g fill="None" fill-opacity="0.0" stroke="#36FEFE" stroke-opacity="0.42" stroke-width="0.3"><path d="
M 676.00 704.00 
C 676.22 703.55 678.19 705.39 678.00 702.00 C 677.80 698.62 676.84 699.65 676.00 698.00
C 676.30 699.77 676.16 702.21 676.00 704.00 Z"/>
</g>
<g fill="None" fill-opacity="0.0" stroke="#32FEFE" stroke-opacity="0.39" stroke-width="0.3"><path d="
M 491.00 713.00 
C 499.30 716.10 508.91 713.37 518.00 714.00 C 527.09 714.63 536.60 713.95 546.00 714.00 C 555.40 714.05 564.24 714.50 574.00 714.00 C 583.76 713.51 591.61 715.37 602.00 714.00 C 612.39 712.63 614.38 716.38 619.00 724.00
C 621.06 719.49 614.34 714.74 615.00 712.00
C 601.22 711.45 586.71 712.73 573.00 712.00 C 559.29 711.27 544.45 713.40 531.00 712.00 C 517.55 710.60 503.30 714.66 491.00 713.00 Z"/>
</g>
<g fill="None" fill-opacity="0.0" stroke="#31F8FA" stroke-opacity="0.47" stroke-width="0.3"><path d="
M 672.00 713.00 
C 671.30 713.96 671.00 714.27 670.00 715.00
C 669.83 716.29 668.30 716.75 668.00 718.00
C 671.11 717.65 673.11 714.27 675.00 712.00
C 673.87 711.92 672.88 712.35 672.00 713.00 Z"/>
</g>
<g fill="None" fill-opacity="0.0" stroke="#35FEFE" stroke-opacity="0.53" stroke-width="0.3"><path d="
M 327.00 718.00 
C 325.05 718.29 321.94 718.36 320.00 718.00
C 323.49 719.76 322.83 719.84 327.00 718.00 Z"/>
</g>
<g fill="None" fill-opacity="0.0" stroke="#2EFEFE" stroke-opacity="0.36" stroke-width="0.3"><path d="
M 642.00 744.00 
C 651.64 747.79 661.34 749.65 672.00 746.00
C 663.04 746.51 650.44 745.24 642.00 744.00 Z"/>
</g>
<g fill="None" fill-opacity="0.0" stroke="#2DFCFC" stroke-opacity="0.38" stroke-width="0.3"><path d="
M 304.00 750.00 
C 312.62 753.59 323.27 754.84 333.00 753.00
C 324.25 752.85 312.03 751.06 304.00 750.00 Z"/>
</g>
<g fill="#000000" fill-opacity="0.00" stroke="None">
<path d="
M 0.00 1024.00 
L 1024.00 1024.00
L 1024.00 0.00
L 0.00 0.00
L 0.00 1024.00
M 681.00 479.00 
C 682.46 484.89 682.89 489.60 682.00 496.00
C 677.64 527.21 650.95 545.46 626.25 561.25 C 601.56 577.05 578.30 595.01 554.30 610.30 C 530.29 625.58 506.67 644.19 482.75 659.75 C 458.83 675.31 434.88 692.46 409.92 707.92 C 384.97 723.38 362.48 747.41 333.00 753.00
C 323.27 754.84 312.62 753.59 304.00 750.00
C 278.61 739.42 265.40 720.79 266.00 691.00 C 266.60 661.21 265.73 625.29 266.00 594.00 C 266.27 562.71 265.88 527.94 266.00 496.00 C 266.12 464.06 265.96 431.23 266.00 399.00 C 266.04 366.77 266.00 333.34 266.00 301.00
C 266.00 295.71 265.64 290.28 266.00 285.00
C 268.65 246.05 315.19 217.62 348.23 235.77 C 381.27 253.92 405.19 272.56 435.70 292.30 C 466.20 312.05 492.26 330.65 521.70 350.30 C 551.13 369.96 579.92 388.83 607.70 408.30 C 635.47 427.78 672.23 443.61 681.00 479.00
M 800.00 300.00 
C 808.46 306.55 813.41 312.29 816.00 324.00
C 816.20 324.92 816.76 326.64 817.00 328.00
C 817.77 332.36 817.89 336.32 817.00 341.00
C 813.67 358.56 801.54 376.07 782.78 379.78 C 764.01 383.49 738.07 376.46 732.00 357.00
C 731.16 355.53 728.39 354.43 729.00 352.00
C 676.16 351.33 622.01 353.33 570.00 351.00
C 569.50 351.00 568.50 351.01 568.00 351.00
C 556.63 350.70 536.02 338.69 542.00 325.00
C 547.15 313.21 568.82 320.48 581.00 319.00 C 593.18 317.52 612.26 319.49 626.00 319.00 C 639.74 318.51 657.73 318.87 672.00 319.00 C 686.27 319.13 702.79 318.13 717.00 319.00 C 731.21 319.87 734.39 307.66 744.00 300.00
C 753.49 284.97 790.36 286.16 800.00 300.00
M 837.00 421.00 
C 856.03 425.22 869.34 438.69 873.00 458.00
C 874.00 463.26 873.99 467.76 873.00 473.00
C 869.43 491.87 857.35 504.24 839.00 509.00
C 830.60 511.18 823.38 511.41 815.00 509.00
C 799.88 504.66 789.32 493.47 783.00 479.00
C 773.72 482.56 760.14 479.92 750.00 480.00 C 739.86 480.08 725.53 482.18 716.00 479.00
C 708.46 476.49 702.97 471.58 702.02 461.98 C 701.08 452.37 711.42 448.17 720.00 448.00
C 731.87 447.76 745.30 448.65 757.00 448.00 C 768.70 447.35 782.22 451.98 789.00 442.00
C 796.40 431.10 804.53 426.16 817.00 422.00
C 823.35 419.88 830.03 419.46 837.00 421.00
M 817.00 591.00 
C 817.84 595.44 817.84 598.58 817.00 603.00
C 813.22 622.96 801.44 635.42 782.00 641.00
C 775.70 642.81 770.54 643.33 764.00 642.00
C 755.52 640.27 748.37 637.72 742.00 632.00
C 739.84 630.06 737.85 628.16 736.00 626.00
C 732.39 621.78 729.91 617.06 728.00 612.00
C 711.45 611.10 693.40 613.20 677.00 612.00 C 660.60 610.80 643.19 615.16 627.93 610.07 C 612.66 604.99 626.00 583.12 637.00 582.00
C 650.40 577.82 668.36 581.48 683.00 581.00 C 697.64 580.52 715.05 580.00 729.00 580.00
C 731.76 567.44 743.88 560.70 755.07 555.07 C 766.27 549.44 786.04 550.99 797.25 558.75 C 808.45 566.52 814.53 577.97 817.00 591.00
M 704.00 694.00 
C 705.01 700.59 705.36 707.33 704.00 714.00
C 700.71 730.15 686.67 740.98 672.00 746.00
C 661.34 749.65 651.64 747.79 642.00 744.00
C 631.12 739.73 625.12 734.10 619.00 724.00
C 614.38 716.38 612.39 712.63 602.00 714.00 C 591.61 715.37 583.76 713.51 574.00 714.00 C 564.24 714.50 555.40 714.05 546.00 714.00 C 536.60 713.95 527.09 714.63 518.00 714.00 C 508.91 713.37 499.30 716.10 491.00 713.00
C 472.92 706.24 487.48 685.24 500.00 683.00
C 512.07 680.84 527.39 682.99 540.00 682.00 C 552.61 681.01 570.23 683.87 582.00 682.00 C 593.77 680.13 612.97 687.84 620.00 678.00
C 628.08 666.68 637.58 660.41 651.00 658.00
C 655.09 657.27 660.23 656.62 665.00 657.00
C 685.20 658.60 701.09 674.91 704.00 694.00 Z"/>
</g>
<g fill="#2DF8FE" fill-opacity="0.95" stroke="None">
<path d="
M 266.00 285.00 
C 266.00 284.96 267.00 285.00 267.00 285.00
C 267.89 284.41 268.76 297.61 267.00 300.00
C 266.78 300.30 266.05 300.77 266.00 301.00
C 266.00 333.34 266.04 366.77 266.00 399.00 C 265.96 431.23 266.12 464.06 266.00 496.00 C 265.88 527.94 266.27 562.71 266.00 594.00 C 265.73 625.29 266.60 661.21 266.00 691.00 C 265.40 720.79 278.61 739.42 304.00 750.00
C 312.03 751.06 324.25 752.85 333.00 753.00
C 362.48 747.41 384.97 723.38 409.92 707.92 C 434.88 692.46 458.83 675.31 482.75 659.75 C 506.67 644.19 530.29 625.58 554.30 610.30 C 578.30 595.01 601.56 577.05 626.25 561.25 C 650.95 545.46 677.64 527.21 682.00 496.00
C 681.71 491.02 681.24 483.92 681.00 479.00
C 672.23 443.61 635.47 427.78 607.70 408.30 C 579.92 388.83 551.13 369.96 521.70 350.30 C 492.26 330.65 466.20 312.05 435.70 292.30 C 405.19 272.56 381.27 253.92 348.23 235.77 C 315.19 217.62 268.65 246.05 266.00 285.00
M 327.00 718.00 
C 322.83 719.84 323.49 719.76 320.00 718.00
C 311.77 716.46 303.48 707.27 302.00 699.00
C 298.14 691.02 300.50 678.48 300.00 668.00 C 299.50 657.52 300.37 645.61 300.00 635.00 C 299.63 624.39 300.05 612.82 301.00 603.00
C 296.95 574.88 302.76 545.46 301.00 517.00 C 299.24 488.54 301.65 459.66 301.00 431.00 C 300.35 402.34 301.00 372.75 301.00 344.00
C 301.00 334.33 300.28 324.38 300.00 315.00 C 299.72 305.62 298.83 293.94 302.00 287.00
C 306.85 257.15 336.71 267.19 352.75 281.25 C 368.79 295.32 388.70 303.80 405.70 316.30 C 422.69 328.81 439.96 340.12 457.25 351.75 C 474.53 363.38 493.06 375.15 510.23 386.77 C 527.41 398.38 544.85 411.04 562.23 421.77 C 579.61 432.50 597.21 448.29 614.75 457.25 C 632.28 466.22 657.22 487.95 640.75 505.75 C 624.29 523.56 606.94 528.32 589.30 542.30 C 571.66 556.28 555.00 564.77 537.75 577.75 C 520.51 590.74 502.28 600.44 484.92 612.92 C 467.57 625.41 450.70 636.51 433.32 648.32 C 415.94 660.13 398.42 672.14 380.92 683.92 C 363.42 695.71 346.13 709.55 327.00 718.00 Z"/>
</g>
<g fill="#000000" fill-opacity="0.00" stroke="None">
<path d="
M 302.00 287.00 
C 300.06 298.95 302.00 312.87 302.00 325.00
C 306.39 370.38 301.36 417.71 303.00 464.00 C 304.64 510.29 302.00 558.04 302.00 604.00
C 302.00 619.56 300.94 635.47 302.00 651.00 C 303.06 666.53 299.26 683.70 302.00 699.00
C 303.48 707.27 311.77 716.46 320.00 718.00
C 321.94 718.36 325.05 718.29 327.00 718.00
C 346.13 709.55 363.42 695.71 380.92 683.92 C 398.42 672.14 415.94 660.13 433.32 648.32 C 450.70 636.51 467.57 625.41 484.92 612.92 C 502.28 600.44 520.51 590.74 537.75 577.75 C 555.00 564.77 571.66 556.28 589.30 542.30 C 606.94 528.32 624.29 523.56 640.75 505.75 C 657.22 487.95 632.28 466.22 614.75 457.25 C 597.21 448.29 579.61 432.50 562.23 421.77 C 544.85 411.04 527.41 398.38 510.23 386.77 C 493.06 375.15 474.53 363.38 457.25 351.75 C 439.96 340.12 422.69 328.81 405.70 316.30 C 388.70 303.80 368.79 295.32 352.75 281.25 C 336.71 267.19 306.85 257.15 302.00 287.00 Z"/>
</g>
<g fill="#38FFFF" fill-opacity="0.82" stroke="None">
<path d="
M 267.00 285.00 
C 267.41 289.58 267.65 295.46 267.00 300.00
C 268.76 297.61 267.89 284.41 267.00 285.00 Z"/>
</g>
<g fill="#2FF2F2" fill-opacity="0.17" stroke="None">
<path d="
M 266.00 301.00 
C 266.05 300.77 266.78 300.30 267.00 300.00
C 267.65 295.46 267.41 289.58 267.00 285.00
C 267.00 285.00 266.00 284.96 266.00 285.00
C 265.64 290.28 266.00 295.71 266.00 301.00 Z"/>
</g>
<g fill="#34F7FC" fill-opacity="0.45" stroke="None">
<path d="
M 301.00 344.00 
C 301.55 338.30 302.00 331.38 302.00 325.00
C 302.00 312.87 300.06 298.95 302.00 287.00
C 298.83 293.94 299.72 305.62 300.00 315.00 C 300.28 324.38 301.00 334.33 301.00 344.00 Z"/>
</g>
<g fill="#2DF8FE" fill-opacity="0.96" stroke="None">
<path d="
M 744.00 300.00 
C 740.54 305.48 736.20 311.39 731.08 318.08 C 725.95 324.77 710.05 319.88 701.00 321.00 C 691.95 322.12 677.98 320.45 668.00 321.00 C 658.02 321.55 645.23 320.64 635.00 321.00 C 624.77 321.36 611.96 320.60 602.00 321.00 C 592.04 321.40 578.01 320.30 569.00 321.00 C 559.99 321.70 546.16 318.40 542.00 325.00
C 536.02 338.69 556.63 350.70 568.00 351.00
C 577.15 349.74 588.40 348.14 599.00 349.00 C 609.60 349.86 621.43 348.33 632.00 349.00 C 642.57 349.67 654.75 348.07 665.00 349.00 C 675.25 349.93 688.58 347.20 698.00 349.00 C 707.42 350.80 723.75 344.31 730.00 351.00
C 731.59 352.70 731.31 354.79 732.00 357.00
C 738.07 376.46 764.01 383.49 782.78 379.78 C 801.54 376.07 813.67 358.56 817.00 341.00
C 817.03 341.32 816.83 331.45 817.00 328.00
C 816.76 326.64 816.20 324.92 816.00 324.00
C 811.73 315.79 804.44 306.37 800.00 300.00
C 790.36 286.16 753.49 284.97 744.00 300.00
M 778.00 352.00 
C 775.15 354.47 768.79 354.19 766.00 352.00
C 758.47 346.07 749.84 334.23 757.92 324.92 C 766.01 315.62 776.90 315.41 785.25 324.75 C 793.61 334.08 785.81 345.23 778.00 352.00 Z"/>
</g>
<g fill="#3CFDFD" fill-opacity="0.41" stroke="None">
<path d="
M 542.00 325.00 
C 546.16 318.40 559.99 321.70 569.00 321.00 C 578.01 320.30 592.04 321.40 602.00 321.00 C 611.96 320.60 624.77 321.36 635.00 321.00 C 645.23 320.64 658.02 321.55 668.00 321.00 C 677.98 320.45 691.95 322.12 701.00 321.00 C 710.05 319.88 725.95 324.77 731.08 318.08 C 736.20 311.39 740.54 305.48 744.00 300.00
C 734.39 307.66 731.21 319.87 717.00 319.00 C 702.79 318.13 686.27 319.13 672.00 319.00 C 657.73 318.87 639.74 318.51 626.00 319.00 C 612.26 319.49 593.18 317.52 581.00 319.00 C 568.82 320.48 547.15 313.21 542.00 325.00 Z"/>
</g>
<g fill="#2EFCFD" fill-opacity="0.38" stroke="None">
<path d="
M 816.00 324.00 
C 813.41 312.29 808.46 306.55 800.00 300.00
C 804.44 306.37 811.73 315.79 816.00 324.00 Z"/>
</g>
<g fill="#000000" fill-opacity="0.00" stroke="None">
<path d="
M 766.00 352.00 
C 768.55 352.69 775.48 352.77 778.00 352.00
C 785.81 345.23 793.61 334.08 785.25 324.75 C 776.90 315.41 766.01 315.62 757.92 324.92 C 749.84 334.23 758.47 346.07 766.00 352.00 Z"/>
</g>
<g fill="#2EFEFF" fill-opacity="0.25" stroke="None">
<path d="
M 301.00 344.00 
C 301.00 372.75 300.35 402.34 301.00 431.00 C 301.65 459.66 299.24 488.54 301.00 517.00 C 302.76 545.46 296.95 574.88 301.00 603.00
C 301.05 603.35 301.95 603.77 302.00 604.00
C 302.00 558.04 304.64 510.29 303.00 464.00 C 301.36 417.71 306.39 370.38 302.00 325.00
C 302.00 331.38 301.55 338.30 301.00 344.00 Z"/>
</g>
<g fill="#36FCFB" fill-opacity="0.40" stroke="None">
<path d="
M 817.00 341.00 
C 817.89 336.32 817.77 332.36 817.00 328.00
C 816.83 331.45 817.03 341.32 817.00 341.00 Z"/>
</g>
<g fill="#3AFEFE" fill-opacity="0.62" stroke="None">
<path d="
M 568.00 351.00 
C 568.50 351.01 569.50 351.00 570.00 351.00
C 623.11 351.00 677.99 351.00 730.00 351.00
C 723.75 344.31 707.42 350.80 698.00 349.00 C 688.58 347.20 675.25 349.93 665.00 349.00 C 654.75 348.07 642.57 349.67 632.00 349.00 C 621.43 348.33 609.60 349.86 599.00 349.00 C 588.40 348.14 577.15 349.74 568.00 351.00 Z"/>
</g>
<g fill="#43FEFE" fill-opacity="0.03" stroke="None">
<path d="
M 732.00 357.00 
C 731.31 354.79 731.59 352.70 730.00 351.00
C 677.99 351.00 623.11 351.00 570.00 351.00
C 622.01 353.33 676.16 351.33 729.00 352.00
C 728.39 354.43 731.16 355.53 732.00 357.00 Z"/>
</g>
<g fill="#37FCF9" fill-opacity="0.42" stroke="None">
<path d="
M 778.00 352.00 
C 775.48 352.77 768.55 352.69 766.00 352.00
C 768.79 354.19 775.15 354.47 778.00 352.00 Z"/>
</g>
<g fill="#2FFCFB" fill-opacity="0.36" stroke="None">
<path d="
M 817.00 422.00 
C 822.44 421.71 833.10 421.21 837.00 421.00
C 830.03 419.46 823.35 419.88 817.00 422.00 Z"/>
</g>
<g fill="#2CF7FE" fill-opacity="0.95" stroke="None">
<path d="
M 817.00 422.00 
C 804.53 426.16 796.40 431.10 789.00 442.00
C 787.41 446.54 786.62 451.29 779.00 450.00 C 771.38 448.71 766.16 450.59 759.00 450.00 C 751.84 449.41 746.02 450.30 739.00 450.00 C 731.98 449.70 725.02 450.22 718.00 450.00
C 718.08 448.74 720.06 449.44 720.00 448.00
C 711.42 448.17 701.08 452.37 702.02 461.98 C 702.97 471.58 708.46 476.49 716.00 479.00
C 724.84 478.93 739.73 475.13 751.00 477.00 C 762.27 478.87 776.29 473.96 786.00 479.00
C 785.00 479.00 784.00 479.00 783.00 479.00
C 789.32 493.47 799.88 504.66 815.00 509.00
C 821.52 509.41 832.54 509.41 839.00 509.00
C 857.35 504.24 869.43 491.87 873.00 473.00
C 872.93 468.88 872.93 462.05 873.00 458.00
C 869.34 438.69 856.03 425.22 837.00 421.00
C 833.10 421.21 822.44 421.71 817.00 422.00
M 832.00 449.00 
C 852.84 453.32 845.67 487.62 824.33 482.67 C 802.99 477.72 809.87 444.42 832.00 449.00 Z"/>
</g>
<g fill="#37FDFE" fill-opacity="0.58" stroke="None">
<path d="
M 720.00 448.00 
C 720.06 449.44 718.08 448.74 718.00 450.00
C 725.02 450.22 731.98 449.70 739.00 450.00 C 746.02 450.30 751.84 449.41 759.00 450.00 C 766.16 450.59 771.38 448.71 779.00 450.00 C 786.62 451.29 787.41 446.54 789.00 442.00
C 782.22 451.98 768.70 447.35 757.00 448.00 C 745.30 448.65 731.87 447.76 720.00 448.00 Z"/>
</g>
<g fill="#000000" fill-opacity="0.00" stroke="None">
<path d="
M 832.00 449.00 
C 809.87 444.42 802.99 477.72 824.33 482.67 C 845.67 487.62 852.84 453.32 832.00 449.00 Z"/>
</g>
<g fill="#2CFCFC" fill-opacity="0.36" stroke="None">
<path d="
M 873.00 473.00 
C 873.99 467.76 874.00 463.26 873.00 458.00
C 872.93 462.05 872.93 468.88 873.00 473.00 Z"/>
</g>
<g fill="#41FEFE" fill-opacity="0.42" stroke="None">
<path d="
M 716.00 479.00 
C 725.53 482.18 739.86 480.08 750.00 480.00 C 760.14 479.92 773.72 482.56 783.00 479.00
C 784.00 479.00 785.00 479.00 786.00 479.00
C 776.29 473.96 762.27 478.87 751.00 477.00 C 739.73 475.13 724.84 478.93 716.00 479.00 Z"/>
</g>
<g fill="#34FEFE" fill-opacity="0.29" stroke="None">
<path d="
M 682.00 496.00 
C 682.89 489.60 682.46 484.89 681.00 479.00
C 681.24 483.92 681.71 491.02 682.00 496.00 Z"/>
</g>
<g fill="#30FCFD" fill-opacity="0.34" stroke="None">
<path d="
M 815.00 509.00 
C 823.38 511.41 830.60 511.18 839.00 509.00
C 832.54 509.41 821.52 509.41 815.00 509.00 Z"/>
</g>
<g fill="#2CF7FE" fill-opacity="0.94" stroke="None">
<path d="
M 729.00 580.00 
C 733.06 580.00 723.54 584.48 718.00 583.00 C 712.46 581.52 704.23 583.49 698.00 583.00 C 691.77 582.51 683.45 582.92 677.00 583.00 C 670.55 583.08 663.43 582.22 657.00 583.00 C 650.57 583.78 642.48 581.56 637.00 582.00
C 626.00 583.12 612.66 604.99 627.93 610.07 C 643.19 615.16 660.60 610.80 677.00 612.00 C 693.40 613.20 711.45 611.10 728.00 612.00
C 729.91 617.06 732.39 621.78 736.00 626.00
C 739.29 628.32 739.42 628.35 742.00 632.00
C 748.37 637.72 755.52 640.27 764.00 642.00
C 766.72 641.93 777.88 641.35 782.00 641.00
C 801.44 635.42 813.22 622.96 817.00 603.00
C 816.95 599.88 816.95 594.05 817.00 591.00
C 814.53 577.97 808.45 566.52 797.25 558.75 C 786.04 550.99 766.27 549.44 755.07 555.07 C 743.88 560.70 731.76 567.44 729.00 580.00
M 776.00 580.00 
C 796.64 585.11 789.69 618.44 768.00 614.00 C 746.31 609.56 754.64 574.71 776.00 580.00 Z"/>
</g>
<g fill="#31FAF8" fill-opacity="0.41" stroke="None">
<path d="
M 729.00 580.00 
C 715.05 580.00 697.64 580.52 683.00 581.00 C 668.36 581.48 650.40 577.82 637.00 582.00
C 642.48 581.56 650.57 583.78 657.00 583.00 C 663.43 582.22 670.55 583.08 677.00 583.00 C 683.45 582.92 691.77 582.51 698.00 583.00 C 704.23 583.49 712.46 581.52 718.00 583.00 C 723.54 584.48 733.06 580.00 729.00 580.00 Z"/>
</g>
<g fill="#000000" fill-opacity="0.00" stroke="None">
<path d="
M 776.00 580.00 
C 754.64 574.71 746.31 609.56 768.00 614.00 C 789.69 618.44 796.64 585.11 776.00 580.00 Z"/>
</g>
<g fill="#2FFCFB" fill-opacity="0.36" stroke="None">
<path d="
M 817.00 603.00 
C 817.84 598.58 817.84 595.44 817.00 591.00
C 816.95 594.05 816.95 599.88 817.00 603.00 Z"/>
</g>
<g fill="#37F7FB" fill-opacity="0.49" stroke="None">
<path d="
M 302.00 699.00 
C 299.26 683.70 303.06 666.53 302.00 651.00 C 300.94 635.47 302.00 619.56 302.00 604.00
C 301.95 603.77 301.05 603.35 301.00 603.00
C 300.05 612.82 299.63 624.39 300.00 635.00 C 300.37 645.61 299.50 657.52 300.00 668.00 C 300.50 678.48 298.14 691.02 302.00 699.00 Z"/>
</g>
<g fill="#33FEFF" fill-opacity="0.35" stroke="None">
<path d="
M 742.00 632.00 
C 739.42 628.35 739.29 628.32 736.00 626.00
C 737.85 628.16 739.84 630.06 742.00 632.00 Z"/>
</g>
<g fill="#27FDFD" fill-opacity="0.32" stroke="None">
<path d="
M 764.00 642.00 
C 770.54 643.33 775.70 642.81 782.00 641.00
C 777.88 641.35 766.72 641.93 764.00 642.00 Z"/>
</g>
<g fill="#32FDFD" fill-opacity="0.44" stroke="None">
<path d="
M 651.00 658.00 
C 652.80 658.05 655.41 658.19 658.00 659.00 C 660.59 659.81 664.44 657.07 665.00 657.00
C 660.23 656.62 655.09 657.27 651.00 658.00 Z"/>
</g>
<g fill="#2CF7FE" fill-opacity="0.96" stroke="None">
<path d="
M 651.00 658.00 
C 637.58 660.41 628.08 666.68 620.00 678.00
C 619.51 679.84 618.92 685.21 612.00 684.00 C 605.08 682.79 599.57 684.53 593.00 684.00 C 586.43 683.47 580.37 684.21 574.00 684.00 C 567.63 683.79 562.27 683.99 556.00 684.00 C 549.73 684.02 543.24 683.78 537.00 684.00 C 530.76 684.22 524.15 683.44 518.00 684.00 C 511.85 684.56 505.28 683.15 500.00 683.00
C 487.48 685.24 472.92 706.24 491.00 713.00
C 503.30 714.66 517.55 710.60 531.00 712.00 C 544.45 713.40 559.29 711.27 573.00 712.00 C 586.71 712.73 601.22 711.45 615.00 712.00
C 614.34 714.74 621.06 719.49 619.00 724.00
C 625.12 734.10 631.12 739.73 642.00 744.00
C 650.44 745.24 663.04 746.51 672.00 746.00
C 686.67 740.98 700.71 730.15 704.00 714.00
C 703.89 710.09 703.75 699.81 704.00 694.00
C 701.09 674.91 685.20 658.60 665.00 657.00
C 664.44 657.07 660.59 659.81 658.00 659.00 C 655.41 658.19 652.80 658.05 651.00 658.00
M 676.00 698.00 
C 676.84 699.65 677.80 698.62 678.00 702.00 C 678.19 705.39 676.22 703.55 676.00 704.00
C 675.66 707.80 674.23 709.94 672.00 713.00
C 672.88 712.35 673.87 711.92 675.00 712.00
C 673.11 714.27 671.11 717.65 668.00 718.00
C 668.30 716.75 669.83 716.29 670.00 715.00
C 656.97 724.50 636.07 712.97 642.98 695.98 C 649.88 678.99 669.34 684.96 676.00 698.00 Z"/>
</g>
<g fill="#2EFEFE" fill-opacity="0.33" stroke="None">
<path d="
M 500.00 683.00 
C 505.28 683.15 511.85 684.56 518.00 684.00 C 524.15 683.44 530.76 684.22 537.00 684.00 C 543.24 683.78 549.73 684.02 556.00 684.00 C 562.27 683.99 567.63 683.79 574.00 684.00 C 580.37 684.21 586.43 683.47 593.00 684.00 C 599.57 684.53 605.08 682.79 612.00 684.00 C 618.92 685.21 619.51 679.84 620.00 678.00
C 612.97 687.84 593.77 680.13 582.00 682.00 C 570.23 683.87 552.61 681.01 540.00 682.00 C 527.39 682.99 512.07 680.84 500.00 683.00 Z"/>
</g>
<g fill="#000000" fill-opacity="0.00" stroke="None">
<path d="
M 670.00 715.00 
C 671.00 714.27 671.30 713.96 672.00 713.00
C 674.23 709.94 675.66 707.80 676.00 704.00
C 676.16 702.21 676.30 699.77 676.00 698.00
C 669.34 684.96 649.88 678.99 642.98 695.98 C 636.07 712.97 656.97 724.50 670.00 715.00 Z"/>
</g>
<g fill="#35FEFE" fill-opacity="0.47" stroke="None">
<path d="
M 704.00 714.00 
C 705.36 707.33 705.01 700.59 704.00 694.00
C 703.75 699.81 703.89 710.09 704.00 714.00 Z"/>
</g>
<g fill="#36FEFE" fill-opacity="0.42" stroke="None">
<path d="
M 676.00 704.00 
C 676.22 703.55 678.19 705.39 678.00 702.00 C 677.80 698.62 676.84 699.65 676.00 698.00
C 676.30 699.77 676.16 702.21 676.00 704.00 Z"/>
</g>
<g fill="#32FEFE" fill-opacity="0.39" stroke="None">
<path d="
M 491.00 713.00 
C 499.30 716.10 508.91 713.37 518.00 714.00 C 527.09 714.63 536.60 713.95 546.00 714.00 C 555.40 714.05 564.24 714.50 574.00 714.00 C 583.76 713.51 591.61 715.37 602.00 714.00 C 612.39 712.63 614.38 716.38 619.00 724.00
C 621.06 719.49 614.34 714.74 615.00 712.00
C 601.22 711.45 586.71 712.73 573.00 712.00 C 559.29 711.27 544.45 713.40 531.00 712.00 C 517.55 710.60 503.30 714.66 491.00 713.00 Z"/>
</g>
<g fill="#31F8FA" fill-opacity="0.47" stroke="None">
<path d="
M 672.00 713.00 
C 671.30 713.96 671.00 714.27 670.00 715.00
C 669.83 716.29 668.30 716.75 668.00 718.00
C 671.11 717.65 673.11 714.27 675.00 712.00
C 673.87 711.92 672.88 712.35 672.00 713.00 Z"/>
</g>
<g fill="#35FEFE" fill-opacity="0.53" stroke="None">
<path d="
M 327.00 718.00 
C 325.05 718.29 321.94 718.36 320.00 718.00
C 323.49 719.76 322.83 719.84 327.00 718.00 Z"/>
</g>
<g fill="#2EFEFE" fill-opacity="0.36" stroke="None">
<path d="
M 642.00 744.00 
C 651.64 747.79 661.34 749.65 672.00 746.00
C 663.04 746.51 650.44 745.24 642.00 744.00 Z"/>
</g>
<g fill="#2DFCFC" fill-opacity="0.38" stroke="None">
<path d="
M 304.00 750.00 
C 312.62 753.59 323.27 754.84 333.00 753.00
C 324.25 752.85 312.03 751.06 304.00 750.00 Z"/>
</g>
</svg>