<svg xmlns="http://www.w3.org/2000/svg" xmlns:v="https://svgstorm.com"
viewBox = "0 0 1024 1024"
width="1024"
height="1024">
<g fill="None" fill-opacity="0.0" stroke="#000000" stroke-opacity="0.00" stroke-width="0.3"><path d="
M 0.00 1024.00
L 1024.00 1024.00
L 1024.00 0.00
L 0.00 0.00
L 0.00 1024.00
M 550.00 203.00
C 570.52 206.54 594.82 210.37 614.07 216.93 C 633.32 223.48 651.01 232.33 668.08 241.92 C 685.15 251.51 700.60 259.87 715.23 272.77 C 729.86 285.67 742.52 297.78 754.70 312.30 C 766.88 326.83 777.07 341.94 785.92 359.08 C 794.78 376.21 805.29 394.73 809.77 414.23 C 814.25 433.72 824.47 459.09 823.00 480.00
C 822.97 480.50 823.15 481.55 823.00 482.00
C 825.06 486.84 824.00 494.34 824.00 500.00
C 824.00 508.33 824.00 516.67 824.00 525.00
C 824.00 529.74 823.39 535.01 823.00 539.00
C 824.22 544.55 822.33 552.76 821.00 558.00
C 820.65 559.37 820.21 560.54 820.00 562.00
C 819.29 567.01 819.34 571.20 818.00 576.00
C 817.25 578.69 816.52 581.19 816.00 584.00
C 815.31 587.68 815.10 594.62 812.00 597.00
C 812.21 597.39 812.00 598.00 812.00 598.00
C 812.58 606.67 806.49 615.97 804.03 624.03 C 801.56 632.08 797.64 641.24 793.00 648.00
C 792.95 649.38 792.22 649.19 792.00 650.00
C 791.07 653.48 791.11 653.35 789.00 656.00
C 788.78 657.14 788.25 657.27 788.00 658.00
C 783.24 671.89 773.29 684.10 765.00 696.00
C 764.25 697.07 763.70 698.07 763.00 699.00
C 756.79 707.18 750.88 714.84 744.00 722.00
C 738.44 727.78 732.24 736.86 725.00 740.00
C 711.36 752.36 695.99 768.23 678.00 776.00
C 677.64 776.15 676.21 776.78 676.00 777.00
C 672.36 780.78 662.50 787.47 657.00 788.00
C 656.50 788.05 656.00 788.00 656.00 788.00
C 651.43 795.31 634.89 798.75 626.92 801.92 C 618.96 805.10 603.03 813.41 594.00 812.00
C 590.01 814.37 584.53 815.28 580.00 816.00
C 577.58 816.39 575.38 816.42 573.00 817.00
C 567.54 818.33 562.78 819.44 557.00 820.00
C 549.94 820.68 543.20 821.30 536.00 822.00
C 519.35 823.61 493.22 826.79 477.00 821.00
C 476.56 820.84 476.00 821.00 476.00 821.00
C 466.31 820.78 456.82 817.88 448.00 816.00
C 447.15 816.19 445.87 816.03 445.00 816.00
C 442.47 815.91 436.21 815.57 435.00 813.00
C 420.48 810.56 407.59 804.87 394.00 800.00
C 393.32 799.76 392.46 799.18 392.00 799.00
C 386.34 796.82 377.98 794.57 372.93 791.07 C 367.88 787.58 359.23 786.16 356.00 781.00
C 355.66 781.23 355.00 781.00 355.00 781.00
C 349.86 778.98 346.58 775.85 342.00 773.00
C 340.88 772.30 339.93 771.66 339.00 771.00
C 327.50 762.82 314.44 754.44 304.00 744.00
C 294.53 734.53 285.87 726.98 277.00 717.00
C 268.47 707.41 262.10 698.24 255.00 688.00
C 251.27 684.84 249.98 679.99 247.00 676.00
C 245.62 674.90 245.14 674.88 244.00 673.00
C 241.68 669.17 240.36 664.54 238.00 661.00
C 237.26 659.89 236.67 659.24 236.00 658.00
C 232.91 652.29 230.55 646.77 228.00 641.00
C 225.05 636.87 223.89 632.53 222.00 628.00
C 221.22 626.12 220.73 624.09 220.00 622.00
C 218.76 620.09 218.79 618.94 218.00 617.00
C 217.07 614.71 216.78 612.58 216.00 610.00
C 215.62 608.75 214.52 606.51 214.00 605.00
C 212.85 601.67 212.17 597.59 211.00 594.00
C 210.36 592.90 210.39 592.41 210.00 591.00
C 209.41 588.88 208.22 586.63 208.00 584.00
C 207.92 583.03 207.97 581.97 208.00 581.00
C 207.52 578.77 206.57 575.64 206.00 573.00
C 205.73 571.73 205.25 569.74 205.00 568.00
C 204.50 564.54 203.68 559.88 203.00 556.00
C 202.61 553.77 202.34 551.40 202.00 549.00
C 201.65 546.51 201.33 543.69 201.00 541.00
C 200.58 537.54 200.00 533.12 200.00 529.00
C 200.00 528.00 200.00 527.00 200.00 526.00
C 200.00 524.67 200.00 523.33 200.00 522.00
C 200.00 514.67 200.00 507.33 200.00 500.00
C 200.00 498.33 200.00 496.67 200.00 495.00
C 200.00 489.90 200.47 484.36 201.00 480.00
C 205.36 443.92 214.69 404.78 230.97 372.97 C 247.25 341.17 264.03 318.48 288.75 292.75 C 313.48 267.03 338.00 252.86 369.07 235.07 C 400.15 217.29 439.50 209.48 475.00 203.00
C 497.97 198.81 527.01 199.04 550.00 203.00 Z"/>
</g>
<g fill="None" fill-opacity="0.0" stroke="#FD344D" stroke-opacity="0.43" stroke-width="0.3"><path d="
M 475.00 203.00
C 498.55 203.41 526.53 203.41 550.00 203.00
C 527.01 199.04 497.97 198.81 475.00 203.00 Z"/>
</g>
<g fill="None" fill-opacity="0.0" stroke="#F72439" stroke-opacity="0.99" stroke-width="0.3"><path d="
M 201.00 480.00
C 201.16 480.55 201.87 480.98 202.00 482.00
C 202.15 481.39 203.27 479.42 204.00 479.00
C 202.07 483.83 207.67 488.78 203.00 490.00
C 208.17 492.52 206.54 485.51 210.00 484.00
C 211.89 490.73 216.22 483.73 220.23 480.23 C 224.24 476.74 232.41 471.48 239.00 474.00
C 240.41 471.80 240.09 470.70 241.00 468.00
C 242.89 469.67 247.64 469.18 244.00 467.00
C 248.57 470.99 252.03 469.06 258.00 468.00
C 252.50 466.11 252.71 465.84 253.00 462.00
C 258.74 462.48 263.18 463.28 269.00 464.00
C 268.99 460.11 267.22 462.47 265.00 461.00
C 268.26 458.91 271.71 459.00 275.00 461.00
C 278.87 454.48 292.38 464.65 292.00 455.00
C 295.44 456.48 299.22 455.32 301.00 460.00
C 300.48 456.18 306.73 456.32 304.00 461.00
C 306.29 458.45 308.19 455.74 312.00 458.00
C 311.30 451.23 304.33 459.57 306.00 453.00
C 307.26 453.35 314.25 456.32 314.00 452.00
C 315.31 454.14 317.33 452.82 318.00 456.00
C 311.97 453.38 313.72 461.48 317.00 457.00
C 317.64 460.25 317.18 464.16 321.00 464.00
C 322.31 481.83 338.39 501.75 356.00 502.00
C 347.47 499.70 339.93 495.87 334.08 488.92 C 328.23 481.96 323.77 475.18 322.22 465.78 C 320.67 456.37 322.79 444.48 327.31 436.31 C 331.82 428.13 336.57 423.37 344.70 418.70 C 352.83 414.03 362.99 411.50 372.67 412.33 C 382.35 413.16 388.74 418.81 396.75 423.25 C 404.77 427.69 405.61 440.05 412.00 444.00
C 420.29 447.45 431.92 442.40 441.00 444.00 C 450.08 445.60 460.52 443.19 470.00 444.00 C 479.48 444.81 490.39 443.39 500.00 444.00
C 503.39 439.15 498.34 428.03 500.00 422.00 C 501.66 415.97 498.98 406.34 500.00 400.00 C 501.02 393.66 500.89 385.20 494.78 383.22 C 488.67 381.25 486.29 378.30 481.75 374.25 C 477.22 370.20 475.16 367.27 472.23 361.77 C 469.30 356.27 468.04 351.15 468.00 344.00 C 467.96 336.85 466.50 334.63 469.98 325.98 C 473.45 317.32 481.83 306.74 490.25 302.25 C 498.66 297.75 498.63 297.57 507.00 297.00
C 507.06 296.99 507.00 296.00 507.00 296.00
C 507.16 296.25 522.50 293.95 527.02 296.98 C 531.55 300.00 540.00 301.08 543.70 306.30 C 547.41 311.52 552.94 312.81 554.92 320.08 C 556.90 327.35 562.53 331.65 571.00 330.00 C 579.47 328.35 588.79 330.91 597.00 330.00 C 605.21 329.09 614.29 330.73 622.00 330.00 C 629.71 329.27 637.54 330.81 643.08 334.92 C 648.62 339.03 651.49 343.43 656.25 347.75 C 661.00 352.07 664.27 355.95 668.75 360.25 C 673.23 364.55 677.36 368.95 681.75 373.25 C 686.14 377.55 690.42 381.96 694.75 386.25 C 699.08 390.53 702.94 394.46 707.25 398.75 C 711.56 403.05 715.93 407.41 720.25 411.75 C 724.57 416.09 728.93 420.37 733.25 424.75 C 737.56 429.13 741.39 432.73 745.75 437.25 C 750.12 441.76 754.30 449.69 751.07 456.07 C 747.85 462.46 742.36 464.91 735.93 464.07 C 729.50 463.23 724.79 458.31 720.25 453.75 C 715.71 449.19 711.54 445.05 707.75 440.25 C 703.96 435.45 699.33 432.26 695.25 427.75 C 691.17 423.24 686.48 419.17 682.25 414.75 C 678.02 410.34 673.56 406.13 669.25 401.75 C 664.93 397.38 661.20 393.67 656.75 389.25 C 652.31 384.82 648.43 380.83 643.75 376.25 C 639.07 371.67 635.89 368.14 630.75 363.25 C 625.61 358.35 616.70 360.14 609.00 360.00 C 601.30 359.86 591.16 360.07 583.00 360.00 C 574.84 359.93 565.29 360.06 557.00 360.00
C 552.31 372.36 540.26 381.90 528.00 386.00
C 528.00 405.33 528.00 424.67 528.00 444.00
C 551.95 446.11 586.49 440.76 609.02 444.98 C 631.56 449.20 636.26 472.10 655.00 482.00
C 658.26 482.53 660.37 478.51 664.00 480.00
C 665.42 483.31 658.84 479.55 661.00 482.00
C 662.64 486.40 667.29 484.11 668.00 489.00
C 669.92 487.26 671.25 486.70 674.00 485.00
C 672.88 488.43 671.03 489.09 677.00 489.00
C 675.31 487.17 677.52 484.16 680.00 485.00
C 679.26 489.71 687.59 487.40 687.00 493.00
C 687.51 487.33 694.57 492.91 699.00 488.00
C 699.79 492.51 704.10 491.72 706.00 494.00
C 704.62 490.81 711.41 490.68 710.00 494.00
C 714.21 492.49 717.06 492.18 720.00 490.00
C 721.30 493.61 729.78 490.94 729.00 496.00
C 731.79 494.57 731.07 494.60 734.00 496.00
C 731.47 491.05 743.69 496.67 739.00 490.00
C 744.45 488.64 742.37 493.12 745.00 495.00
C 747.01 493.78 748.14 490.52 748.00 495.00
C 750.26 491.16 749.05 496.33 752.00 496.00
C 749.83 490.32 756.65 495.68 757.00 490.00
C 755.49 495.23 762.65 493.71 763.00 497.00
C 766.89 493.00 771.54 494.26 776.00 494.00
C 777.71 496.03 776.31 498.96 778.00 501.00
C 780.62 499.28 777.35 496.37 778.00 494.00
C 783.03 494.59 781.03 495.13 780.00 499.00
C 782.14 498.04 787.77 498.67 785.00 495.00
C 787.51 495.13 788.39 497.99 790.00 495.00
C 789.97 498.71 792.92 497.36 796.00 496.00
C 793.08 500.26 803.69 498.81 797.00 503.00
C 801.10 500.37 803.46 504.94 807.00 505.00
C 804.61 499.08 810.77 505.97 812.00 502.00
C 813.87 505.78 808.78 504.50 811.00 509.00
C 814.40 504.16 816.27 511.47 817.00 516.00
C 817.83 511.01 818.90 511.76 821.00 516.00
C 821.92 510.74 819.02 505.12 822.00 501.00
C 822.08 499.00 821.94 497.00 822.00 495.00
C 824.20 495.74 821.69 499.33 824.00 500.00
C 824.00 494.34 825.06 486.84 823.00 482.00
C 822.26 484.30 822.58 485.41 823.00 488.00
C 820.89 486.58 819.30 480.20 823.00 480.00
C 824.47 459.09 814.25 433.72 809.77 414.23 C 805.29 394.73 794.78 376.21 785.92 359.08 C 777.07 341.94 766.88 326.83 754.70 312.30 C 742.52 297.78 729.86 285.67 715.23 272.77 C 700.60 259.87 685.15 251.51 668.08 241.92 C 651.01 232.33 633.32 223.48 614.07 216.93 C 594.82 210.37 570.52 206.54 550.00 203.00
C 526.53 203.41 498.55 203.41 475.00 203.00
C 439.50 209.48 400.15 217.29 369.07 235.07 C 338.00 252.86 313.48 267.03 288.75 292.75 C 264.03 318.48 247.25 341.17 230.97 372.97 C 214.69 404.78 205.36 443.92 201.00 480.00 Z"/>
</g>
<g fill="None" fill-opacity="0.0" stroke="#F1171A" stroke-opacity="1.00" stroke-width="0.3"><path d="
M 507.00 296.00
C 511.17 295.62 515.58 296.39 519.00 297.00
C 530.06 297.75 538.81 303.03 546.75 311.25 C 554.70 319.46 555.82 333.42 570.00 331.00 C 584.18 328.58 599.16 332.67 613.00 331.00 C 626.84 329.33 636.99 331.44 647.00 340.00
C 656.80 348.38 666.67 358.25 675.00 368.00
C 682.71 377.02 691.00 384.00 699.25 392.75 C 707.50 401.50 715.31 408.06 723.75 417.25 C 732.19 426.44 739.83 431.42 747.77 442.23 C 755.71 453.04 743.23 469.86 729.00 460.00
C 721.07 454.50 714.72 445.72 708.00 439.00
C 695.45 426.45 681.51 414.47 670.00 401.00
C 663.71 393.64 656.01 385.65 648.75 379.25 C 641.50 372.85 635.07 361.87 626.00 359.00
C 618.90 357.73 610.19 359.11 603.00 359.00 C 595.81 358.89 586.97 358.02 580.00 359.00 C 573.03 359.98 563.29 356.28 557.00 359.00
C 552.59 361.82 549.12 370.49 544.75 374.75 C 540.39 379.02 529.83 381.56 527.00 386.00
C 523.51 394.08 528.62 406.14 527.00 415.00 C 525.38 423.86 527.82 434.91 527.00 444.00
C 532.77 448.28 544.44 443.86 552.00 445.00 C 559.56 446.14 570.00 444.78 578.00 445.00 C 586.00 445.23 595.65 445.11 603.00 446.00
C 614.89 446.24 623.70 454.82 631.75 462.25 C 639.81 469.68 646.66 478.28 654.75 484.25 C 662.84 490.22 670.09 505.00 680.00 505.00
C 675.27 504.41 671.05 496.77 666.75 494.25 C 662.46 491.72 658.45 485.45 655.00 482.00
C 636.26 472.10 631.56 449.20 609.02 444.98 C 586.49 440.76 551.95 446.11 528.00 444.00
C 528.00 424.67 528.00 405.33 528.00 386.00
C 540.26 381.90 552.31 372.36 557.00 360.00
C 565.29 360.06 574.84 359.93 583.00 360.00 C 591.16 360.07 601.30 359.86 609.00 360.00 C 616.70 360.14 625.61 358.35 630.75 363.25 C 635.89 368.14 639.07 371.67 643.75 376.25 C 648.43 380.83 652.31 384.82 656.75 389.25 C 661.20 393.67 664.93 397.38 669.25 401.75 C 673.56 406.13 678.02 410.34 682.25 414.75 C 686.48 419.17 691.17 423.24 695.25 427.75 C 699.33 432.26 703.96 435.45 707.75 440.25 C 711.54 445.05 715.71 449.19 720.25 453.75 C 724.79 458.31 729.50 463.23 735.93 464.07 C 742.36 464.91 747.85 462.46 751.07 456.07 C 754.30 449.69 750.12 441.76 745.75 437.25 C 741.39 432.73 737.56 429.13 733.25 424.75 C 728.93 420.37 724.57 416.09 720.25 411.75 C 715.93 407.41 711.56 403.05 707.25 398.75 C 702.94 394.46 699.08 390.53 694.75 386.25 C 690.42 381.96 686.14 377.55 681.75 373.25 C 677.36 368.95 673.23 364.55 668.75 360.25 C 664.27 355.95 661.00 352.07 656.25 347.75 C 651.49 343.43 648.62 339.03 643.08 334.92 C 637.54 330.81 629.71 329.27 622.00 330.00 C 614.29 330.73 605.21 329.09 597.00 330.00 C 588.79 330.91 579.47 328.35 571.00 330.00 C 562.53 331.65 556.90 327.35 554.92 320.08 C 552.94 312.81 547.41 311.52 543.70 306.30 C 540.00 301.08 531.55 300.00 527.02 296.98 C 522.50 293.95 507.16 296.25 507.00 296.00 Z"/>
</g>
<g fill="None" fill-opacity="0.0" stroke="#FB9095" stroke-opacity="1.00" stroke-width="0.3"><path d="
M 507.00 297.00
C 510.87 296.74 515.13 296.74 519.00 297.00
C 515.58 296.39 511.17 295.62 507.00 296.00
C 507.00 296.00 507.06 296.99 507.00 297.00 Z"/>
</g>
<g fill="None" fill-opacity="0.0" stroke="#FEFDFD" stroke-opacity="1.00" stroke-width="0.3"><path d="
M 500.00 444.00
C 497.07 448.19 484.69 443.98 479.00 445.00 C 473.31 446.02 462.43 444.82 456.00 445.00 C 449.57 445.18 440.50 445.65 434.00 445.00 C 427.50 444.35 417.26 447.26 412.00 444.00
C 405.61 440.05 404.77 427.69 396.75 423.25 C 388.74 418.81 382.35 413.16 372.67 412.33 C 362.99 411.50 352.83 414.03 344.70 418.70 C 336.57 423.37 331.82 428.13 327.31 436.31 C 322.79 444.48 320.67 456.37 322.22 465.78 C 323.77 475.18 328.23 481.96 334.08 488.92 C 339.93 495.87 347.47 499.70 356.00 502.00
C 363.71 504.08 371.47 503.59 379.68 501.68 C 387.88 499.77 391.49 494.87 398.75 490.75 C 406.02 486.64 404.78 477.18 410.92 472.92 C 417.06 468.66 431.57 473.36 440.00 472.00 C 448.43 470.64 460.82 472.71 470.00 472.00 C 479.18 471.29 490.61 472.53 500.00 472.00
C 500.31 481.99 499.58 494.23 500.00 504.00 C 500.42 513.77 489.78 513.87 483.75 519.75 C 477.72 525.63 472.61 530.57 469.70 538.70 C 466.78 546.82 465.93 558.39 468.33 566.67 C 470.73 574.95 474.77 580.39 480.25 586.75 C 485.72 593.11 493.98 595.22 500.00 600.00
C 503.86 609.97 498.04 623.25 500.00 634.00 C 501.96 644.75 498.53 658.02 500.00 669.00
C 479.05 671.09 453.42 671.05 439.75 655.25 C 426.09 639.45 412.52 635.94 400.00 620.00
C 395.80 611.02 397.37 597.92 388.75 590.25 C 380.12 582.59 374.26 576.40 362.98 574.02 C 351.69 571.65 338.67 573.56 329.00 580.00
C 318.64 586.89 312.51 595.29 309.01 607.01 C 305.51 618.73 308.12 634.52 315.75 644.25 C 323.39 653.97 332.80 661.65 345.02 662.98 C 357.25 664.30 372.21 663.90 381.75 653.75 C 391.28 643.60 398.52 653.90 407.75 662.25 C 416.98 670.60 423.08 676.85 433.23 684.77 C 443.38 692.69 455.52 697.42 470.00 696.00 C 484.48 694.58 501.68 697.59 517.00 696.00 C 532.32 694.41 549.24 698.77 565.00 696.00 C 580.77 693.23 583.48 706.88 592.75 716.25 C 602.02 725.62 615.45 729.81 628.00 729.00 C 640.55 728.19 651.20 722.04 659.75 712.75 C 668.30 703.47 671.25 688.20 669.00 676.00 C 666.75 663.80 660.78 654.26 650.30 646.70 C 639.82 639.13 625.62 636.22 613.00 640.00
C 604.20 642.63 595.15 645.41 589.25 654.25 C 583.35 663.09 579.25 671.78 566.00 669.00 C 552.75 666.22 540.19 671.09 527.00 669.00
C 528.06 658.78 525.58 644.85 527.00 635.00 C 528.42 625.15 524.35 608.45 527.00 600.00 C 529.65 591.55 542.32 593.18 546.75 584.75 C 551.18 576.32 559.23 571.67 558.00 561.00
C 558.21 557.10 558.27 552.90 558.00 549.00
C 557.29 538.59 552.07 532.71 546.75 524.25 C 541.43 515.78 529.31 517.30 527.01 507.99 C 524.71 498.68 528.72 481.98 527.00 472.00
C 540.24 472.13 559.34 471.83 572.00 472.00 C 584.66 472.17 603.49 469.18 611.25 478.75 C 619.00 488.33 628.73 492.71 634.75 501.25 C 640.77 509.78 657.69 514.93 655.22 525.22 C 652.75 535.52 645.78 551.02 651.78 562.22 C 657.78 573.43 660.95 580.88 672.08 586.92 C 683.21 592.96 696.98 595.72 708.67 591.67 C 720.36 587.62 728.12 581.96 734.77 571.77 C 741.42 561.58 743.07 545.49 739.01 533.99 C 734.94 522.50 728.09 515.25 717.92 509.08 C 707.76 502.91 691.78 500.56 680.00 505.00
C 670.09 505.00 662.84 490.22 654.75 484.25 C 646.66 478.28 639.81 469.68 631.75 462.25 C 623.70 454.82 614.89 446.24 603.00 446.00
C 596.89 445.88 590.04 446.19 584.00 446.00 C 577.96 445.81 569.68 446.36 564.00 446.00 C 558.32 445.64 548.67 446.78 544.00 446.00 C 539.33 445.22 526.99 448.64 526.00 444.00
C 525.23 435.38 525.17 423.43 526.00 415.00 C 526.83 406.57 522.72 392.71 527.00 386.00
C 529.83 381.56 540.39 379.02 544.75 374.75 C 549.12 370.49 552.59 361.82 557.00 359.00
C 564.64 354.12 581.39 358.71 591.00 358.00 C 600.61 357.29 617.21 356.22 626.00 359.00
C 635.07 361.87 641.50 372.85 648.75 379.25 C 656.01 385.65 663.71 393.64 670.00 401.00
C 682.58 413.58 695.46 426.46 708.00 439.00
C 714.67 445.67 721.78 454.13 729.00 460.00
C 743.23 469.86 755.71 453.04 747.77 442.23 C 739.83 431.42 732.19 426.44 723.75 417.25 C 715.31 408.06 707.50 401.50 699.25 392.75 C 691.00 384.00 682.71 377.02 675.00 368.00
C 665.75 358.75 656.20 349.20 647.00 340.00
C 636.99 331.44 626.84 329.33 613.00 331.00 C 599.16 332.67 584.18 328.58 570.00 331.00 C 555.82 333.42 554.70 319.46 546.75 311.25 C 538.81 303.03 530.06 297.75 519.00 297.00
C 515.13 296.74 510.87 296.74 507.00 297.00
C 498.63 297.57 498.66 297.75 490.25 302.25 C 481.83 306.74 473.45 317.32 469.98 325.98 C 466.50 334.63 467.96 336.85 468.00 344.00 C 468.04 351.15 469.30 356.27 472.23 361.77 C 475.16 367.27 477.22 370.20 481.75 374.25 C 486.29 378.30 488.67 381.25 494.78 383.22 C 500.89 385.20 501.02 393.66 500.00 400.00 C 498.98 406.34 501.66 415.97 500.00 422.00 C 498.34 428.03 503.39 439.15 500.00 444.00
M 516.00 322.00
C 540.17 325.02 536.17 364.06 511.00 361.00 C 485.82 357.94 490.86 318.86 516.00 322.00
M 370.00 438.00
C 394.34 441.07 390.24 480.11 365.00 477.00 C 339.76 473.89 345.54 434.91 370.00 438.00
M 702.00 529.00
C 725.82 534.90 712.61 575.69 688.93 566.07 C 665.24 556.46 677.14 522.84 702.00 529.00
M 517.00 535.00
C 540.43 539.85 535.09 576.87 509.93 573.07 C 484.77 569.28 490.65 529.54 517.00 535.00
M 355.00 598.00
C 379.03 600.02 377.62 638.82 352.00 637.00 C 326.38 635.18 329.72 595.87 355.00 598.00
M 629.00 664.00
C 652.67 669.24 644.54 707.81 619.78 702.22 C 595.02 696.63 603.49 658.35 629.00 664.00 Z"/>
</g>
<g fill="None" fill-opacity="0.0" stroke="#F72637" stroke-opacity="1.00" stroke-width="0.3"><path d="
M 516.00 322.00
C 490.86 318.86 485.82 357.94 511.00 361.00 C 536.17 364.06 540.17 325.02 516.00 322.00 Z"/>
</g>
<g fill="None" fill-opacity="0.0" stroke="#FA777F" stroke-opacity="1.00" stroke-width="0.3"><path d="
M 675.00 368.00
C 666.67 358.25 656.80 348.38 647.00 340.00
C 656.20 349.20 665.75 358.75 675.00 368.00 Z"/>
</g>
<g fill="None" fill-opacity="0.0" stroke="#FB6D75" stroke-opacity="1.00" stroke-width="0.3"><path d="
M 557.00 359.00
C 563.29 356.28 573.03 359.98 580.00 359.00 C 586.97 358.02 595.81 358.89 603.00 359.00 C 610.19 359.11 618.90 357.73 626.00 359.00
C 617.21 356.22 600.61 357.29 591.00 358.00 C 581.39 358.71 564.64 354.12 557.00 359.00 Z"/>
</g>
<g fill="None" fill-opacity="0.0" stroke="#FAD7DB" stroke-opacity="1.00" stroke-width="0.3"><path d="
M 526.00 444.00
C 526.00 444.04 527.00 444.00 527.00 444.00
C 527.82 434.91 525.38 423.86 527.00 415.00 C 528.62 406.14 523.51 394.08 527.00 386.00
C 522.72 392.71 526.83 406.57 526.00 415.00 C 525.17 423.43 525.23 435.38 526.00 444.00 Z"/>
</g>
<g fill="None" fill-opacity="0.0" stroke="#F7828A" stroke-opacity="1.00" stroke-width="0.3"><path d="
M 708.00 439.00
C 695.46 426.46 682.58 413.58 670.00 401.00
C 681.51 414.47 695.45 426.45 708.00 439.00 Z"/>
</g>
<g fill="None" fill-opacity="0.0" stroke="#EC1F32" stroke-opacity="1.00" stroke-width="0.3"><path d="
M 370.00 438.00
C 345.54 434.91 339.76 473.89 365.00 477.00 C 390.24 480.11 394.34 441.07 370.00 438.00 Z"/>
</g>
<g fill="None" fill-opacity="0.0" stroke="#FCCFD4" stroke-opacity="1.00" stroke-width="0.3"><path d="
M 729.00 460.00
C 721.78 454.13 714.67 445.67 708.00 439.00
C 714.72 445.72 721.07 454.50 729.00 460.00 Z"/>
</g>
<g fill="None" fill-opacity="0.0" stroke="#F56D78" stroke-opacity="1.00" stroke-width="0.3"><path d="
M 500.00 444.00
C 490.39 443.39 479.48 444.81 470.00 444.00 C 460.52 443.19 450.08 445.60 441.00 444.00 C 431.92 442.40 420.29 447.45 412.00 444.00
C 417.26 447.26 427.50 444.35 434.00 445.00 C 440.50 445.65 449.57 445.18 456.00 445.00 C 462.43 444.82 473.31 446.02 479.00 445.00 C 484.69 443.98 497.07 448.19 500.00 444.00 Z"/>
</g>
<g fill="None" fill-opacity="0.0" stroke="#F9B5BD" stroke-opacity="1.00" stroke-width="0.3"><path d="
M 603.00 446.00
C 595.65 445.11 586.00 445.23 578.00 445.00 C 570.00 444.78 559.56 446.14 552.00 445.00 C 544.44 443.86 532.77 448.28 527.00 444.00
C 527.00 444.00 526.00 444.04 526.00 444.00
C 526.99 448.64 539.33 445.22 544.00 446.00 C 548.67 446.78 558.32 445.64 564.00 446.00 C 569.68 446.36 577.96 445.81 584.00 446.00 C 590.04 446.19 596.89 445.88 603.00 446.00 Z"/>
</g>
<g fill="None" fill-opacity="0.0" stroke="#E2182E" stroke-opacity="1.00" stroke-width="0.3"><path d="
M 202.00 482.00
C 202.63 487.13 200.76 491.01 200.00 495.00
C 200.00 496.67 200.00 498.33 200.00 500.00
C 200.74 506.94 200.94 515.11 200.00 522.00
C 200.00 523.33 200.00 524.67 200.00 526.00
C 200.62 528.10 202.00 530.96 202.00 535.00
C 202.00 536.29 202.18 537.73 202.00 539.00
C 202.43 542.18 202.18 545.98 202.00 549.00
C 202.34 551.40 202.61 553.77 203.00 556.00
C 204.56 560.55 205.21 563.16 205.00 568.00
C 205.25 569.74 205.73 571.73 206.00 573.00
C 206.46 574.00 208.11 577.07 208.00 581.00
C 207.97 581.97 207.92 583.03 208.00 584.00
C 209.48 586.96 210.11 587.13 210.00 591.00
C 210.39 592.41 210.36 592.90 211.00 594.00
C 213.43 598.17 213.57 601.12 214.00 605.00
C 214.52 606.51 215.62 608.75 216.00 610.00
C 216.70 611.12 217.59 614.67 218.00 617.00
C 218.79 618.94 218.76 620.09 220.00 622.00
C 221.92 624.94 221.53 625.45 222.00 628.00
C 223.89 632.53 225.05 636.87 228.00 641.00
C 231.84 646.38 234.63 652.69 236.00 658.00
C 236.67 659.24 237.26 659.89 238.00 661.00
C 237.81 660.82 240.12 662.95 241.00 664.00
C 239.41 663.12 245.26 661.92 245.00 665.00
C 245.88 661.96 246.40 659.90 248.00 657.00
C 251.83 656.92 252.84 663.09 248.00 659.00
C 248.04 665.46 256.28 666.56 257.00 660.00
C 259.10 665.48 268.44 658.49 262.00 657.00
C 265.30 655.52 268.55 657.87 272.00 656.00
C 269.09 660.01 269.44 660.42 273.00 663.00
C 274.27 658.68 275.64 663.45 277.00 659.00
C 278.76 659.72 279.50 662.24 282.00 659.00
C 279.31 658.06 275.66 658.59 275.00 655.00
C 281.05 658.68 284.86 653.94 291.00 658.00
C 288.79 654.11 295.07 655.87 295.00 653.00
C 296.74 654.66 297.56 654.99 300.00 656.00
C 298.68 652.12 308.24 650.28 309.00 653.00
C 309.43 649.43 312.55 647.19 316.00 649.00
C 299.61 628.37 303.66 590.04 329.00 580.00
C 338.67 573.56 351.69 571.65 362.98 574.02 C 374.26 576.40 380.12 582.59 388.75 590.25 C 397.37 597.92 395.80 611.02 400.00 620.00
C 403.39 625.79 417.09 631.94 422.75 639.25 C 428.42 646.55 440.30 652.64 446.25 659.75 C 452.19 666.86 453.41 665.74 460.22 667.78 C 467.03 669.82 475.61 667.35 482.00 668.00 C 488.39 668.65 498.93 669.95 498.67 663.33 C 498.40 656.71 499.81 649.96 499.00 643.00 C 498.19 636.04 500.42 627.63 499.00 621.00 C 497.58 614.37 501.56 605.15 500.00 600.00
C 493.98 595.22 485.72 593.11 480.25 586.75 C 474.77 580.39 470.73 574.95 468.33 566.67 C 465.93 558.39 466.78 546.82 469.70 538.70 C 472.61 530.57 477.72 525.63 483.75 519.75 C 489.78 513.87 500.42 513.77 500.00 504.00 C 499.58 494.23 500.31 481.99 500.00 472.00
C 490.61 472.53 479.18 471.29 470.00 472.00 C 460.82 472.71 448.43 470.64 440.00 472.00 C 431.57 473.36 417.06 468.66 410.92 472.92 C 404.78 477.18 406.02 486.64 398.75 490.75 C 391.49 494.87 387.88 499.77 379.68 501.68 C 371.47 503.59 363.71 504.08 356.00 502.00
C 338.39 501.75 322.31 481.83 321.00 464.00
C 317.18 464.16 317.64 460.25 317.00 457.00
C 313.72 461.48 311.97 453.38 318.00 456.00
C 317.33 452.82 315.31 454.14 314.00 452.00
C 314.25 456.32 307.26 453.35 306.00 453.00
C 304.33 459.57 311.30 451.23 312.00 458.00
C 308.19 455.74 306.29 458.45 304.00 461.00
C 306.73 456.32 300.48 456.18 301.00 460.00
C 299.22 455.32 295.44 456.48 292.00 455.00
C 292.38 464.65 278.87 454.48 275.00 461.00
C 271.71 459.00 268.26 458.91 265.00 461.00
C 267.22 462.47 268.99 460.11 269.00 464.00
C 263.18 463.28 258.74 462.48 253.00 462.00
C 252.71 465.84 252.50 466.11 258.00 468.00
C 252.03 469.06 248.57 470.99 244.00 467.00
C 247.64 469.18 242.89 469.67 241.00 468.00
C 240.09 470.70 240.41 471.80 239.00 474.00
C 232.41 471.48 224.24 476.74 220.23 480.23 C 216.22 483.73 211.89 490.73 210.00 484.00
C 206.54 485.51 208.17 492.52 203.00 490.00
C 207.67 488.78 202.07 483.83 204.00 479.00
C 203.27 479.42 202.15 481.39 202.00 482.00 Z"/>
</g>
<g fill="None" fill-opacity="0.0" stroke="#DD162C" stroke-opacity="1.00" stroke-width="0.3"><path d="
M 558.00 549.00
C 558.72 553.05 558.64 557.03 558.00 561.00
C 559.23 571.67 551.18 576.32 546.75 584.75 C 542.32 593.18 529.65 591.55 527.00 600.00 C 524.35 608.45 528.42 625.15 527.00 635.00 C 525.58 644.85 528.06 658.78 527.00 669.00
C 540.19 671.09 552.75 666.22 566.00 669.00 C 579.25 671.78 583.35 663.09 589.25 654.25 C 595.15 645.41 604.20 642.63 613.00 640.00
C 618.18 637.44 628.03 635.44 635.01 637.99 C 641.98 640.55 646.80 642.14 652.70 646.30 C 658.59 650.47 660.41 654.85 664.77 660.23 C 669.13 665.61 668.97 673.59 671.00 680.00 C 673.03 686.41 667.90 696.73 672.00 699.00
C 668.39 700.40 670.43 700.91 671.00 704.00
C 675.79 700.81 684.55 702.50 687.00 696.00
C 689.39 698.84 689.59 701.36 688.00 705.00
C 690.34 704.93 694.17 699.02 698.22 700.22 C 702.28 701.42 704.11 702.64 704.00 696.00
C 706.42 696.44 707.87 694.81 706.00 699.00
C 707.89 698.76 712.06 697.50 710.00 695.00
C 713.59 696.87 714.67 700.56 715.00 695.00
C 715.95 696.98 717.75 698.94 716.00 701.00
C 718.06 700.49 720.99 698.43 718.00 697.00
C 721.26 695.50 721.63 698.57 724.70 696.65 C 727.76 694.73 730.50 691.23 730.00 698.00
C 731.21 694.59 731.25 693.30 735.00 692.00
C 736.44 694.46 735.60 696.95 732.00 696.00
C 736.96 700.36 738.29 689.14 741.00 697.00
C 740.36 694.33 740.75 692.34 740.00 690.00
C 742.61 691.16 743.54 693.30 747.00 693.00
C 745.44 695.57 740.96 692.76 742.00 697.00
C 744.77 695.28 753.17 692.73 749.00 699.00
C 751.75 697.92 754.20 695.21 754.00 692.00
C 756.95 693.57 757.74 689.65 759.00 694.00
C 761.03 692.22 759.53 688.52 760.00 686.00
C 762.12 688.65 764.50 686.43 766.00 689.00
C 769.67 686.33 764.32 679.89 771.00 680.00
C 769.39 682.12 772.81 682.26 771.00 685.00
C 776.47 677.42 782.03 662.40 788.00 658.00
C 788.25 657.27 788.78 657.14 789.00 656.00
C 789.63 652.71 790.80 650.89 792.00 650.00
C 792.22 649.19 792.95 649.38 793.00 648.00
C 793.24 641.87 798.58 630.22 801.97 623.97 C 805.36 617.73 806.51 601.92 812.00 598.00
C 812.00 598.00 812.21 597.39 812.00 597.00
C 809.70 592.59 814.54 586.95 816.00 584.00
C 816.52 581.19 817.25 578.69 818.00 576.00
C 818.02 576.21 815.69 577.11 816.00 573.00 C 816.31 568.88 818.49 565.25 820.00 562.00
C 820.21 560.54 820.65 559.37 821.00 558.00
C 821.00 558.04 817.23 558.08 819.33 553.33 C 821.43 548.58 821.54 540.79 822.00 536.00
C 821.82 534.04 822.00 531.97 822.00 530.00
C 822.00 520.36 821.62 510.63 822.00 501.00
C 819.02 505.12 821.92 510.74 821.00 516.00
C 818.90 511.76 817.83 511.01 817.00 516.00
C 816.27 511.47 814.40 504.16 811.00 509.00
C 808.78 504.50 813.87 505.78 812.00 502.00
C 810.77 505.97 804.61 499.08 807.00 505.00
C 803.46 504.94 801.10 500.37 797.00 503.00
C 803.69 498.81 793.08 500.26 796.00 496.00
C 792.92 497.36 789.97 498.71 790.00 495.00
C 788.39 497.99 787.51 495.13 785.00 495.00
C 787.77 498.67 782.14 498.04 780.00 499.00
C 781.03 495.13 783.03 494.59 778.00 494.00
C 777.35 496.37 780.62 499.28 778.00 501.00
C 776.31 498.96 777.71 496.03 776.00 494.00
C 771.54 494.26 766.89 493.00 763.00 497.00
C 762.65 493.71 755.49 495.23 757.00 490.00
C 756.65 495.68 749.83 490.32 752.00 496.00
C 749.05 496.33 750.26 491.16 748.00 495.00
C 748.14 490.52 747.01 493.78 745.00 495.00
C 742.37 493.12 744.45 488.64 739.00 490.00
C 743.69 496.67 731.47 491.05 734.00 496.00
C 731.07 494.60 731.79 494.57 729.00 496.00
C 729.78 490.94 721.30 493.61 720.00 490.00
C 717.06 492.18 714.21 492.49 710.00 494.00
C 711.41 490.68 704.62 490.81 706.00 494.00
C 704.10 491.72 699.79 492.51 699.00 488.00
C 694.57 492.91 687.51 487.33 687.00 493.00
C 687.59 487.40 679.26 489.71 680.00 485.00
C 677.52 484.16 675.31 487.17 677.00 489.00
C 671.03 489.09 672.88 488.43 674.00 485.00
C 671.25 486.70 669.92 487.26 668.00 489.00
C 667.29 484.11 662.64 486.40 661.00 482.00
C 658.84 479.55 665.42 483.31 664.00 480.00
C 660.37 478.51 658.26 482.53 655.00 482.00
C 658.45 485.45 662.46 491.72 666.75 494.25 C 671.05 496.77 675.27 504.41 680.00 505.00
C 691.78 500.56 707.76 502.91 717.92 509.08 C 728.09 515.25 734.94 522.50 739.01 533.99 C 743.07 545.49 741.42 561.58 734.77 571.77 C 728.12 581.96 720.36 587.62 708.67 591.67 C 696.98 595.72 683.21 592.96 672.08 586.92 C 660.95 580.88 657.78 573.43 651.78 562.22 C 645.78 551.02 652.75 535.52 655.22 525.22 C 657.69 514.93 640.77 509.78 634.75 501.25 C 628.73 492.71 619.00 488.33 611.25 478.75 C 603.49 469.18 584.66 472.17 572.00 472.00 C 559.34 471.83 540.24 472.13 527.00 472.00
C 528.72 481.98 524.71 498.68 527.01 507.99 C 529.31 517.30 541.43 515.78 546.75 524.25 C 552.07 532.71 557.29 538.59 558.00 549.00 Z"/>
</g>
<g fill="None" fill-opacity="0.0" stroke="#FE223A" stroke-opacity="0.38" stroke-width="0.3"><path d="
M 200.00 495.00
C 200.76 491.01 202.63 487.13 202.00 482.00
C 201.87 480.98 201.16 480.55 201.00 480.00
C 200.47 484.36 200.00 489.90 200.00 495.00 Z"/>
</g>
<g fill="None" fill-opacity="0.0" stroke="#FD203C" stroke-opacity="0.59" stroke-width="0.3"><path d="
M 823.00 482.00
C 823.15 481.55 822.97 480.50 823.00 480.00
C 819.30 480.20 820.89 486.58 823.00 488.00
C 822.58 485.41 822.26 484.30 823.00 482.00 Z"/>
</g>
<g fill="None" fill-opacity="0.0" stroke="#FB1E39" stroke-opacity="0.53" stroke-width="0.3"><path d="
M 822.00 501.00
C 821.62 510.63 822.00 520.36 822.00 530.00
C 822.14 528.97 823.85 525.98 824.00 525.00
C 824.00 516.67 824.00 508.33 824.00 500.00
C 821.69 499.33 824.20 495.74 822.00 495.00
C 821.94 497.00 822.08 499.00 822.00 501.00 Z"/>
</g>
<g fill="None" fill-opacity="0.0" stroke="#FE1F39" stroke-opacity="0.66" stroke-width="0.3"><path d="
M 200.00 522.00
C 200.94 515.11 200.74 506.94 200.00 500.00
C 200.00 507.33 200.00 514.67 200.00 522.00 Z"/>
</g>
<g fill="None" fill-opacity="0.0" stroke="#FD1A35" stroke-opacity="0.24" stroke-width="0.3"><path d="
M 822.00 530.00
C 822.00 531.97 821.82 534.04 822.00 536.00
C 822.12 537.32 822.83 538.22 823.00 539.00
C 823.39 535.01 824.00 529.74 824.00 525.00
C 823.85 525.98 822.14 528.97 822.00 530.00 Z"/>
</g>
<g fill="None" fill-opacity="0.0" stroke="#FB1E3A" stroke-opacity="0.60" stroke-width="0.3"><path d="
M 200.00 529.00
C 200.24 530.35 201.83 533.71 202.00 535.00
C 202.00 530.96 200.62 528.10 200.00 526.00
C 200.00 527.00 200.00 528.00 200.00 529.00 Z"/>
</g>
<g fill="None" fill-opacity="0.0" stroke="#FC1B36" stroke-opacity="0.18" stroke-width="0.3"><path d="
M 201.00 541.00
C 201.15 540.46 201.86 539.99 202.00 539.00
C 202.18 537.73 202.00 536.29 202.00 535.00
C 201.83 533.71 200.24 530.35 200.00 529.00
C 200.00 533.12 200.58 537.54 201.00 541.00 Z"/>
</g>
<g fill="None" fill-opacity="0.0" stroke="#E11A2D" stroke-opacity="1.00" stroke-width="0.3"><path d="
M 702.00 529.00
C 677.14 522.84 665.24 556.46 688.93 566.07 C 712.61 575.69 725.82 534.90 702.00 529.00 Z"/>
</g>
<g fill="None" fill-opacity="0.0" stroke="#E01B2E" stroke-opacity="1.00" stroke-width="0.3"><path d="
M 517.00 535.00
C 490.65 529.54 484.77 569.28 509.93 573.07 C 535.09 576.87 540.43 539.85 517.00 535.00 Z"/>
</g>
<g fill="None" fill-opacity="0.0" stroke="#F81A35" stroke-opacity="0.51" stroke-width="0.3"><path d="
M 821.00 558.00
C 822.33 552.76 824.22 544.55 823.00 539.00
C 822.83 538.22 822.12 537.32 822.00 536.00
C 821.54 540.79 821.43 548.58 819.33 553.33 C 817.23 558.08 821.00 558.04 821.00 558.00 Z"/>
</g>
<g fill="None" fill-opacity="0.0" stroke="#FA1B36" stroke-opacity="0.45" stroke-width="0.3"><path d="
M 201.00 541.00
C 201.33 543.69 201.65 546.51 202.00 549.00
C 202.18 545.98 202.43 542.18 202.00 539.00
C 201.86 539.99 201.15 540.46 201.00 541.00 Z"/>
</g>
<g fill="None" fill-opacity="0.0" stroke="#F099A4" stroke-opacity="1.00" stroke-width="0.3"><path d="
M 558.00 561.00
C 558.64 557.03 558.72 553.05 558.00 549.00
C 558.27 552.90 558.21 557.10 558.00 561.00 Z"/>
</g>
<g fill="None" fill-opacity="0.0" stroke="#F91B38" stroke-opacity="0.40" stroke-width="0.3"><path d="
M 205.00 568.00
C 205.21 563.16 204.56 560.55 203.00 556.00
C 203.68 559.88 204.50 564.54 205.00 568.00 Z"/>
</g>
<g fill="None" fill-opacity="0.0" stroke="#F91834" stroke-opacity="0.49" stroke-width="0.3"><path d="
M 818.00 576.00
C 819.34 571.20 819.29 567.01 820.00 562.00
C 818.49 565.25 816.31 568.88 816.00 573.00 C 815.69 577.11 818.02 576.21 818.00 576.00 Z"/>
</g>
<g fill="None" fill-opacity="0.0" stroke="#F91835" stroke-opacity="0.38" stroke-width="0.3"><path d="
M 206.00 573.00
C 206.57 575.64 207.52 578.77 208.00 581.00
C 208.11 577.07 206.46 574.00 206.00 573.00 Z"/>
</g>
<g fill="None" fill-opacity="0.0" stroke="#CA0E25" stroke-opacity="1.00" stroke-width="0.3"><path d="
M 241.00 664.00
C 242.41 665.68 243.61 667.24 244.92 669.08 C 246.23 670.92 244.58 675.29 244.00 673.00
C 245.14 674.88 245.62 674.90 247.00 676.00
C 251.90 679.91 254.56 684.99 258.00 690.00
C 264.91 700.07 272.07 710.07 281.00 719.00
C 289.25 727.25 297.80 735.80 306.00 744.00
C 315.94 753.94 331.16 762.00 339.00 771.00
C 339.93 771.66 340.88 772.30 342.00 773.00
C 345.08 773.90 353.80 775.94 355.00 781.00
C 355.00 781.00 355.66 781.23 356.00 781.00
C 358.35 779.37 370.59 788.07 374.68 789.32 C 378.77 790.58 390.80 796.84 392.00 799.00
C 392.46 799.18 393.32 799.76 394.00 800.00
C 397.38 800.04 404.08 800.71 407.69 803.31 C 411.31 805.90 418.68 806.16 422.01 807.99 C 425.34 809.82 435.26 809.52 436.00 813.00
C 440.40 812.71 441.83 814.80 445.00 816.00
C 445.87 816.03 447.15 816.19 448.00 816.00
C 451.37 815.25 457.90 815.93 461.67 817.33 C 465.44 818.73 474.92 816.98 476.00 821.00
C 476.00 821.00 476.56 820.84 477.00 821.00
C 482.77 816.73 493.52 822.34 501.00 821.00 C 508.48 819.66 519.20 821.30 527.00 821.00
C 537.39 820.60 547.83 819.32 558.00 818.00
C 562.18 817.46 565.92 816.79 570.00 816.00
C 573.59 815.31 577.38 814.83 581.00 814.00
C 585.32 813.01 589.60 811.97 594.00 811.00
C 604.69 808.63 615.08 803.32 625.68 800.68 C 636.27 798.03 645.26 789.76 656.00 788.00
C 656.00 788.00 656.50 788.05 657.00 788.00
C 658.76 783.74 672.37 777.55 676.00 777.00
C 676.21 776.78 677.64 776.15 678.00 776.00
C 683.94 769.61 693.54 764.60 701.23 759.23 C 708.92 753.86 715.00 745.87 723.00 741.00
C 730.25 733.75 737.80 726.20 745.00 719.00
C 751.29 712.71 757.55 703.58 763.00 699.00
C 763.70 698.07 764.25 697.07 765.00 696.00
C 766.14 692.45 768.27 688.79 771.00 685.00
C 772.81 682.26 769.39 682.12 771.00 680.00
C 764.32 679.89 769.67 686.33 766.00 689.00
C 764.50 686.43 762.12 688.65 760.00 686.00
C 759.53 688.52 761.03 692.22 759.00 694.00
C 757.74 689.65 756.95 693.57 754.00 692.00
C 754.20 695.21 751.75 697.92 749.00 699.00
C 753.17 692.73 744.77 695.28 742.00 697.00
C 740.96 692.76 745.44 695.57 747.00 693.00
C 743.54 693.30 742.61 691.16 740.00 690.00
C 740.75 692.34 740.36 694.33 741.00 697.00
C 738.29 689.14 736.96 700.36 732.00 696.00
C 735.60 696.95 736.44 694.46 735.00 692.00
C 731.25 693.30 731.21 694.59 730.00 698.00
C 730.50 691.23 727.76 694.73 724.70 696.65 C 721.63 698.57 721.26 695.50 718.00 697.00
C 720.99 698.43 718.06 700.49 716.00 701.00
C 717.75 698.94 715.95 696.98 715.00 695.00
C 714.67 700.56 713.59 696.87 710.00 695.00
C 712.06 697.50 707.89 698.76 706.00 699.00
C 707.87 694.81 706.42 696.44 704.00 696.00
C 704.11 702.64 702.28 701.42 698.22 700.22 C 694.17 699.02 690.34 704.93 688.00 705.00
C 689.59 701.36 689.39 698.84 687.00 696.00
C 684.55 702.50 675.79 700.81 671.00 704.00
C 670.43 700.91 668.39 700.40 672.00 699.00
C 667.90 696.73 673.03 686.41 671.00 680.00 C 668.97 673.59 669.13 665.61 664.77 660.23 C 660.41 654.85 658.59 650.47 652.70 646.30 C 646.80 642.14 641.98 640.55 635.01 637.99 C 628.03 635.44 618.18 637.44 613.00 640.00
C 625.62 636.22 639.82 639.13 650.30 646.70 C 660.78 654.26 666.75 663.80 669.00 676.00 C 671.25 688.20 668.30 703.47 659.75 712.75 C 651.20 722.04 640.55 728.19 628.00 729.00 C 615.45 729.81 602.02 725.62 592.75 716.25 C 583.48 706.88 580.77 693.23 565.00 696.00 C 549.24 698.77 532.32 694.41 517.00 696.00 C 501.68 697.59 484.48 694.58 470.00 696.00 C 455.52 697.42 443.38 692.69 433.23 684.77 C 423.08 676.85 416.98 670.60 407.75 662.25 C 398.52 653.90 391.28 643.60 381.75 653.75 C 372.21 663.90 357.25 664.30 345.02 662.98 C 332.80 661.65 323.39 653.97 315.75 644.25 C 308.12 634.52 305.51 618.73 309.01 607.01 C 312.51 595.29 318.64 586.89 329.00 580.00
C 303.66 590.04 299.61 628.37 316.00 649.00
C 312.55 647.19 309.43 649.43 309.00 653.00
C 308.24 650.28 298.68 652.12 300.00 656.00
C 297.56 654.99 296.74 654.66 295.00 653.00
C 295.07 655.87 288.79 654.11 291.00 658.00
C 284.86 653.94 281.05 658.68 275.00 655.00
C 275.66 658.59 279.31 658.06 282.00 659.00
C 279.50 662.24 278.76 659.72 277.00 659.00
C 275.64 663.45 274.27 658.68 273.00 663.00
C 269.44 660.42 269.09 660.01 272.00 656.00
C 268.55 657.87 265.30 655.52 262.00 657.00
C 268.44 658.49 259.10 665.48 257.00 660.00
C 256.28 666.56 248.04 665.46 248.00 659.00
C 252.84 663.09 251.83 656.92 248.00 657.00
C 246.40 659.90 245.88 661.96 245.00 665.00
C 245.26 661.92 239.41 663.12 241.00 664.00 Z"/>
</g>
<g fill="None" fill-opacity="0.0" stroke="#FA1837" stroke-opacity="0.36" stroke-width="0.3"><path d="
M 210.00 591.00
C 210.11 587.13 209.48 586.96 208.00 584.00
C 208.22 586.63 209.41 588.88 210.00 591.00 Z"/>
</g>
<g fill="None" fill-opacity="0.0" stroke="#F61534" stroke-opacity="0.44" stroke-width="0.3"><path d="
M 812.00 597.00
C 815.10 594.62 815.31 587.68 816.00 584.00
C 814.54 586.95 809.70 592.59 812.00 597.00 Z"/>
</g>
<g fill="None" fill-opacity="0.0" stroke="#F61834" stroke-opacity="0.38" stroke-width="0.3"><path d="
M 214.00 605.00
C 213.57 601.12 213.43 598.17 211.00 594.00
C 212.17 597.59 212.85 601.67 214.00 605.00 Z"/>
</g>
<g fill="None" fill-opacity="0.0" stroke="#DA172A" stroke-opacity="1.00" stroke-width="0.3"><path d="
M 355.00 598.00
C 329.72 595.87 326.38 635.18 352.00 637.00 C 377.62 638.82 379.03 600.02 355.00 598.00 Z"/>
</g>
<g fill="None" fill-opacity="0.0" stroke="#F71332" stroke-opacity="0.36" stroke-width="0.3"><path d="
M 793.00 648.00
C 797.64 641.24 801.56 632.08 804.03 624.03 C 806.49 615.97 812.58 606.67 812.00 598.00
C 806.51 601.92 805.36 617.73 801.97 623.97 C 798.58 630.22 793.24 641.87 793.00 648.00 Z"/>
</g>
<g fill="None" fill-opacity="0.0" stroke="#CF0E11" stroke-opacity="1.00" stroke-width="0.3"><path d="
M 400.00 620.00
C 412.52 635.94 426.09 639.45 439.75 655.25 C 453.42 671.05 479.05 671.09 500.00 669.00
C 498.53 658.02 501.96 644.75 500.00 634.00 C 498.04 623.25 503.86 609.97 500.00 600.00
C 501.56 605.15 497.58 614.37 499.00 621.00 C 500.42 627.63 498.19 636.04 499.00 643.00 C 499.81 649.96 498.40 656.71 498.67 663.33 C 498.93 669.95 488.39 668.65 482.00 668.00 C 475.61 667.35 467.03 669.82 460.22 667.78 C 453.41 665.74 452.19 666.86 446.25 659.75 C 440.30 652.64 428.42 646.55 422.75 639.25 C 417.09 631.94 403.39 625.79 400.00 620.00 Z"/>
</g>
<g fill="None" fill-opacity="0.0" stroke="#F7182F" stroke-opacity="0.35" stroke-width="0.3"><path d="
M 216.00 610.00
C 216.78 612.58 217.07 614.71 218.00 617.00
C 217.59 614.67 216.70 611.12 216.00 610.00 Z"/>
</g>
<g fill="None" fill-opacity="0.0" stroke="#F9162C" stroke-opacity="0.32" stroke-width="0.3"><path d="
M 222.00 628.00
C 221.53 625.45 221.92 624.94 220.00 622.00
C 220.73 624.09 221.22 626.12 222.00 628.00 Z"/>
</g>
<g fill="None" fill-opacity="0.0" stroke="#F81431" stroke-opacity="0.35" stroke-width="0.3"><path d="
M 236.00 658.00
C 234.63 652.69 231.84 646.38 228.00 641.00
C 230.55 646.77 232.91 652.29 236.00 658.00 Z"/>
</g>
<g fill="None" fill-opacity="0.0" stroke="#F7132C" stroke-opacity="0.36" stroke-width="0.3"><path d="
M 789.00 656.00
C 791.11 653.35 791.07 653.48 792.00 650.00
C 790.80 650.89 789.63 652.71 789.00 656.00 Z"/>
</g>
<g fill="None" fill-opacity="0.0" stroke="#F4132E" stroke-opacity="0.39" stroke-width="0.3"><path d="
M 771.00 685.00
C 768.27 688.79 766.14 692.45 765.00 696.00
C 773.29 684.10 783.24 671.89 788.00 658.00
C 782.03 662.40 776.47 677.42 771.00 685.00 Z"/>
</g>
<g fill="None" fill-opacity="0.0" stroke="#F3122D" stroke-opacity="0.49" stroke-width="0.3"><path d="
M 238.00 661.00
C 240.36 664.54 241.68 669.17 244.00 673.00
C 244.58 675.29 246.23 670.92 244.92 669.08 C 243.61 667.24 242.41 665.68 241.00 664.00
C 240.12 662.95 237.81 660.82 238.00 661.00 Z"/>
</g>
<g fill="None" fill-opacity="0.0" stroke="#D21528" stroke-opacity="1.00" stroke-width="0.3"><path d="
M 629.00 664.00
C 603.49 658.35 595.02 696.63 619.78 702.22 C 644.54 707.81 652.67 669.24 629.00 664.00 Z"/>
</g>
<g fill="None" fill-opacity="0.0" stroke="#F5122F" stroke-opacity="0.52" stroke-width="0.3"><path d="
M 255.00 688.00
C 255.90 688.77 257.23 689.32 258.00 690.00
C 254.56 684.99 251.90 679.91 247.00 676.00
C 249.98 679.99 251.27 684.84 255.00 688.00 Z"/>
</g>
<g fill="None" fill-opacity="0.0" stroke="#F4102C" stroke-opacity="0.36" stroke-width="0.3"><path d="
M 277.00 717.00
C 278.18 718.05 281.03 719.02 281.00 719.00
C 272.07 710.07 264.91 700.07 258.00 690.00
C 257.23 689.32 255.90 688.77 255.00 688.00
C 262.10 698.24 268.47 707.41 277.00 717.00 Z"/>
</g>
<g fill="None" fill-opacity="0.0" stroke="#F10F28" stroke-opacity="0.32" stroke-width="0.3"><path d="
M 745.00 719.00
C 744.28 720.05 743.93 722.13 744.00 722.00
C 750.88 714.84 756.79 707.18 763.00 699.00
C 757.55 703.58 751.29 712.71 745.00 719.00 Z"/>
</g>
<g fill="None" fill-opacity="0.0" stroke="#F30D28" stroke-opacity="0.47" stroke-width="0.3"><path d="
M 304.00 744.00
C 304.07 744.02 305.03 743.53 306.00 744.00
C 297.80 735.80 289.25 727.25 281.00 719.00
C 281.03 719.02 278.18 718.05 277.00 717.00
C 285.87 726.98 294.53 734.53 304.00 744.00 Z"/>
</g>
<g fill="None" fill-opacity="0.0" stroke="#F70D2B" stroke-opacity="0.52" stroke-width="0.3"><path d="
M 723.00 741.00
C 723.69 740.58 724.27 740.32 725.00 740.00
C 732.24 736.86 738.44 727.78 744.00 722.00
C 743.93 722.13 744.28 720.05 745.00 719.00
C 737.80 726.20 730.25 733.75 723.00 741.00 Z"/>
</g>
<g fill="None" fill-opacity="0.0" stroke="#F00A26" stroke-opacity="0.33" stroke-width="0.3"><path d="
M 723.00 741.00
C 715.00 745.87 708.92 753.86 701.23 759.23 C 693.54 764.60 683.94 769.61 678.00 776.00
C 695.99 768.23 711.36 752.36 725.00 740.00
C 724.27 740.32 723.69 740.58 723.00 741.00 Z"/>
</g>
<g fill="None" fill-opacity="0.0" stroke="#F20B29" stroke-opacity="0.35" stroke-width="0.3"><path d="
M 304.00 744.00
C 314.44 754.44 327.50 762.82 339.00 771.00
C 331.16 762.00 315.94 753.94 306.00 744.00
C 305.03 743.53 304.07 744.02 304.00 744.00 Z"/>
</g>
<g fill="None" fill-opacity="0.0" stroke="#F10927" stroke-opacity="0.38" stroke-width="0.3"><path d="
M 342.00 773.00
C 346.58 775.85 349.86 778.98 355.00 781.00
C 353.80 775.94 345.08 773.90 342.00 773.00 Z"/>
</g>
<g fill="None" fill-opacity="0.0" stroke="#EF0927" stroke-opacity="0.33" stroke-width="0.3"><path d="
M 657.00 788.00
C 662.50 787.47 672.36 780.78 676.00 777.00
C 672.37 777.55 658.76 783.74 657.00 788.00 Z"/>
</g>
<g fill="None" fill-opacity="0.0" stroke="#F40926" stroke-opacity="0.35" stroke-width="0.3"><path d="
M 356.00 781.00
C 359.23 786.16 367.88 787.58 372.93 791.07 C 377.98 794.57 386.34 796.82 392.00 799.00
C 390.80 796.84 378.77 790.58 374.68 789.32 C 370.59 788.07 358.35 779.37 356.00 781.00 Z"/>
</g>
<g fill="None" fill-opacity="0.0" stroke="#F20725" stroke-opacity="0.35" stroke-width="0.3"><path d="
M 594.00 811.00
C 593.87 811.04 594.00 812.00 594.00 812.00
C 603.03 813.41 618.96 805.10 626.92 801.92 C 634.89 798.75 651.43 795.31 656.00 788.00
C 645.26 789.76 636.27 798.03 625.68 800.68 C 615.08 803.32 604.69 808.63 594.00 811.00 Z"/>
</g>
<g fill="None" fill-opacity="0.0" stroke="#F50928" stroke-opacity="0.45" stroke-width="0.3"><path d="
M 394.00 800.00
C 407.59 804.87 420.48 810.56 435.00 813.00
C 435.49 813.08 436.00 813.00 436.00 813.00
C 435.26 809.52 425.34 809.82 422.01 807.99 C 418.68 806.16 411.31 805.90 407.69 803.31 C 404.08 800.71 397.38 800.04 394.00 800.00 Z"/>
</g>
<g fill="None" fill-opacity="0.0" stroke="#EF0725" stroke-opacity="0.47" stroke-width="0.3"><path d="
M 581.00 814.00
C 580.66 814.28 580.26 815.86 580.00 816.00
C 584.53 815.28 590.01 814.37 594.00 812.00
C 594.00 812.00 593.87 811.04 594.00 811.00
C 589.60 811.97 585.32 813.01 581.00 814.00 Z"/>
</g>
<g fill="None" fill-opacity="0.0" stroke="#EF0923" stroke-opacity="0.27" stroke-width="0.3"><path d="
M 445.00 816.00
C 441.83 814.80 440.40 812.71 436.00 813.00
C 436.00 813.00 435.49 813.08 435.00 813.00
C 436.21 815.57 442.47 815.91 445.00 816.00 Z"/>
</g>
<g fill="None" fill-opacity="0.0" stroke="#F40625" stroke-opacity="0.62" stroke-width="0.3"><path d="
M 570.00 816.00
C 570.36 816.00 572.70 817.01 573.00 817.00
C 575.38 816.42 577.58 816.39 580.00 816.00
C 580.26 815.86 580.66 814.28 581.00 814.00
C 577.38 814.83 573.59 815.31 570.00 816.00 Z"/>
</g>
<g fill="None" fill-opacity="0.0" stroke="#F40827" stroke-opacity="0.48" stroke-width="0.3"><path d="
M 448.00 816.00
C 456.82 817.88 466.31 820.78 476.00 821.00
C 474.92 816.98 465.44 818.73 461.67 817.33 C 457.90 815.93 451.37 815.25 448.00 816.00 Z"/>
</g>
<g fill="None" fill-opacity="0.0" stroke="#EE0725" stroke-opacity="0.35" stroke-width="0.3"><path d="
M 558.00 818.00
C 557.59 818.18 557.26 819.88 557.00 820.00
C 562.78 819.44 567.54 818.33 573.00 817.00
C 572.70 817.01 570.36 816.00 570.00 816.00
C 565.92 816.79 562.18 817.46 558.00 818.00 Z"/>
</g>
<g fill="None" fill-opacity="0.0" stroke="#F40624" stroke-opacity="0.57" stroke-width="0.3"><path d="
M 527.00 821.00
C 529.43 821.24 533.93 821.96 536.00 822.00
C 543.20 821.30 549.94 820.68 557.00 820.00
C 557.26 819.88 557.59 818.18 558.00 818.00
C 547.83 819.32 537.39 820.60 527.00 821.00 Z"/>
</g>
<g fill="None" fill-opacity="0.0" stroke="#F30625" stroke-opacity="0.43" stroke-width="0.3"><path d="
M 477.00 821.00
C 493.22 826.79 519.35 823.61 536.00 822.00
C 533.93 821.96 529.43 821.24 527.00 821.00
C 519.20 821.30 508.48 819.66 501.00 821.00 C 493.52 822.34 482.77 816.73 477.00 821.00 Z"/>
</g>
<g fill="#000000" fill-opacity="0.00" stroke="None">
<path d="
M 0.00 1024.00
L 1024.00 1024.00
L 1024.00 0.00
L 0.00 0.00
L 0.00 1024.00
M 550.00 203.00
C 570.52 206.54 594.82 210.37 614.07 216.93 C 633.32 223.48 651.01 232.33 668.08 241.92 C 685.15 251.51 700.60 259.87 715.23 272.77 C 729.86 285.67 742.52 297.78 754.70 312.30 C 766.88 326.83 777.07 341.94 785.92 359.08 C 794.78 376.21 805.29 394.73 809.77 414.23 C 814.25 433.72 824.47 459.09 823.00 480.00
C 822.97 480.50 823.15 481.55 823.00 482.00
C 825.06 486.84 824.00 494.34 824.00 500.00
C 824.00 508.33 824.00 516.67 824.00 525.00
C 824.00 529.74 823.39 535.01 823.00 539.00
C 824.22 544.55 822.33 552.76 821.00 558.00
C 820.65 559.37 820.21 560.54 820.00 562.00
C 819.29 567.01 819.34 571.20 818.00 576.00
C 817.25 578.69 816.52 581.19 816.00 584.00
C 815.31 587.68 815.10 594.62 812.00 597.00
C 812.21 597.39 812.00 598.00 812.00 598.00
C 812.58 606.67 806.49 615.97 804.03 624.03 C 801.56 632.08 797.64 641.24 793.00 648.00
C 792.95 649.38 792.22 649.19 792.00 650.00
C 791.07 653.48 791.11 653.35 789.00 656.00
C 788.78 657.14 788.25 657.27 788.00 658.00
C 783.24 671.89 773.29 684.10 765.00 696.00
C 764.25 697.07 763.70 698.07 763.00 699.00
C 756.79 707.18 750.88 714.84 744.00 722.00
C 738.44 727.78 732.24 736.86 725.00 740.00
C 711.36 752.36 695.99 768.23 678.00 776.00
C 677.64 776.15 676.21 776.78 676.00 777.00
C 672.36 780.78 662.50 787.47 657.00 788.00
C 656.50 788.05 656.00 788.00 656.00 788.00
C 651.43 795.31 634.89 798.75 626.92 801.92 C 618.96 805.10 603.03 813.41 594.00 812.00
C 590.01 814.37 584.53 815.28 580.00 816.00
C 577.58 816.39 575.38 816.42 573.00 817.00
C 567.54 818.33 562.78 819.44 557.00 820.00
C 549.94 820.68 543.20 821.30 536.00 822.00
C 519.35 823.61 493.22 826.79 477.00 821.00
C 476.56 820.84 476.00 821.00 476.00 821.00
C 466.31 820.78 456.82 817.88 448.00 816.00
C 447.15 816.19 445.87 816.03 445.00 816.00
C 442.47 815.91 436.21 815.57 435.00 813.00
C 420.48 810.56 407.59 804.87 394.00 800.00
C 393.32 799.76 392.46 799.18 392.00 799.00
C 386.34 796.82 377.98 794.57 372.93 791.07 C 367.88 787.58 359.23 786.16 356.00 781.00
C 355.66 781.23 355.00 781.00 355.00 781.00
C 349.86 778.98 346.58 775.85 342.00 773.00
C 340.88 772.30 339.93 771.66 339.00 771.00
C 327.50 762.82 314.44 754.44 304.00 744.00
C 294.53 734.53 285.87 726.98 277.00 717.00
C 268.47 707.41 262.10 698.24 255.00 688.00
C 251.27 684.84 249.98 679.99 247.00 676.00
C 245.62 674.90 245.14 674.88 244.00 673.00
C 241.68 669.17 240.36 664.54 238.00 661.00
C 237.26 659.89 236.67 659.24 236.00 658.00
C 232.91 652.29 230.55 646.77 228.00 641.00
C 225.05 636.87 223.89 632.53 222.00 628.00
C 221.22 626.12 220.73 624.09 220.00 622.00
C 218.76 620.09 218.79 618.94 218.00 617.00
C 217.07 614.71 216.78 612.58 216.00 610.00
C 215.62 608.75 214.52 606.51 214.00 605.00
C 212.85 601.67 212.17 597.59 211.00 594.00
C 210.36 592.90 210.39 592.41 210.00 591.00
C 209.41 588.88 208.22 586.63 208.00 584.00
C 207.92 583.03 207.97 581.97 208.00 581.00
C 207.52 578.77 206.57 575.64 206.00 573.00
C 205.73 571.73 205.25 569.74 205.00 568.00
C 204.50 564.54 203.68 559.88 203.00 556.00
C 202.61 553.77 202.34 551.40 202.00 549.00
C 201.65 546.51 201.33 543.69 201.00 541.00
C 200.58 537.54 200.00 533.12 200.00 529.00
C 200.00 528.00 200.00 527.00 200.00 526.00
C 200.00 524.67 200.00 523.33 200.00 522.00
C 200.00 514.67 200.00 507.33 200.00 500.00
C 200.00 498.33 200.00 496.67 200.00 495.00
C 200.00 489.90 200.47 484.36 201.00 480.00
C 205.36 443.92 214.69 404.78 230.97 372.97 C 247.25 341.17 264.03 318.48 288.75 292.75 C 313.48 267.03 338.00 252.86 369.07 235.07 C 400.15 217.29 439.50 209.48 475.00 203.00
C 497.97 198.81 527.01 199.04 550.00 203.00 Z"/>
</g>
<g fill="#FD344D" fill-opacity="0.43" stroke="None">
<path d="
M 475.00 203.00
C 498.55 203.41 526.53 203.41 550.00 203.00
C 527.01 199.04 497.97 198.81 475.00 203.00 Z"/>
</g>
<g fill="#F72439" fill-opacity="0.99" stroke="None">
<path d="
M 201.00 480.00
C 201.16 480.55 201.87 480.98 202.00 482.00
C 202.15 481.39 203.27 479.42 204.00 479.00
C 202.07 483.83 207.67 488.78 203.00 490.00
C 208.17 492.52 206.54 485.51 210.00 484.00
C 211.89 490.73 216.22 483.73 220.23 480.23 C 224.24 476.74 232.41 471.48 239.00 474.00
C 240.41 471.80 240.09 470.70 241.00 468.00
C 242.89 469.67 247.64 469.18 244.00 467.00
C 248.57 470.99 252.03 469.06 258.00 468.00
C 252.50 466.11 252.71 465.84 253.00 462.00
C 258.74 462.48 263.18 463.28 269.00 464.00
C 268.99 460.11 267.22 462.47 265.00 461.00
C 268.26 458.91 271.71 459.00 275.00 461.00
C 278.87 454.48 292.38 464.65 292.00 455.00
C 295.44 456.48 299.22 455.32 301.00 460.00
C 300.48 456.18 306.73 456.32 304.00 461.00
C 306.29 458.45 308.19 455.74 312.00 458.00
C 311.30 451.23 304.33 459.57 306.00 453.00
C 307.26 453.35 314.25 456.32 314.00 452.00
C 315.31 454.14 317.33 452.82 318.00 456.00
C 311.97 453.38 313.72 461.48 317.00 457.00
C 317.64 460.25 317.18 464.16 321.00 464.00
C 322.31 481.83 338.39 501.75 356.00 502.00
C 347.47 499.70 339.93 495.87 334.08 488.92 C 328.23 481.96 323.77 475.18 322.22 465.78 C 320.67 456.37 322.79 444.48 327.31 436.31 C 331.82 428.13 336.57 423.37 344.70 418.70 C 352.83 414.03 362.99 411.50 372.67 412.33 C 382.35 413.16 388.74 418.81 396.75 423.25 C 404.77 427.69 405.61 440.05 412.00 444.00
C 420.29 447.45 431.92 442.40 441.00 444.00 C 450.08 445.60 460.52 443.19 470.00 444.00 C 479.48 444.81 490.39 443.39 500.00 444.00
C 503.39 439.15 498.34 428.03 500.00 422.00 C 501.66 415.97 498.98 406.34 500.00 400.00 C 501.02 393.66 500.89 385.20 494.78 383.22 C 488.67 381.25 486.29 378.30 481.75 374.25 C 477.22 370.20 475.16 367.27 472.23 361.77 C 469.30 356.27 468.04 351.15 468.00 344.00 C 467.96 336.85 466.50 334.63 469.98 325.98 C 473.45 317.32 481.83 306.74 490.25 302.25 C 498.66 297.75 498.63 297.57 507.00 297.00
C 507.06 296.99 507.00 296.00 507.00 296.00
C 507.16 296.25 522.50 293.95 527.02 296.98 C 531.55 300.00 540.00 301.08 543.70 306.30 C 547.41 311.52 552.94 312.81 554.92 320.08 C 556.90 327.35 562.53 331.65 571.00 330.00 C 579.47 328.35 588.79 330.91 597.00 330.00 C 605.21 329.09 614.29 330.73 622.00 330.00 C 629.71 329.27 637.54 330.81 643.08 334.92 C 648.62 339.03 651.49 343.43 656.25 347.75 C 661.00 352.07 664.27 355.95 668.75 360.25 C 673.23 364.55 677.36 368.95 681.75 373.25 C 686.14 377.55 690.42 381.96 694.75 386.25 C 699.08 390.53 702.94 394.46 707.25 398.75 C 711.56 403.05 715.93 407.41 720.25 411.75 C 724.57 416.09 728.93 420.37 733.25 424.75 C 737.56 429.13 741.39 432.73 745.75 437.25 C 750.12 441.76 754.30 449.69 751.07 456.07 C 747.85 462.46 742.36 464.91 735.93 464.07 C 729.50 463.23 724.79 458.31 720.25 453.75 C 715.71 449.19 711.54 445.05 707.75 440.25 C 703.96 435.45 699.33 432.26 695.25 427.75 C 691.17 423.24 686.48 419.17 682.25 414.75 C 678.02 410.34 673.56 406.13 669.25 401.75 C 664.93 397.38 661.20 393.67 656.75 389.25 C 652.31 384.82 648.43 380.83 643.75 376.25 C 639.07 371.67 635.89 368.14 630.75 363.25 C 625.61 358.35 616.70 360.14 609.00 360.00 C 601.30 359.86 591.16 360.07 583.00 360.00 C 574.84 359.93 565.29 360.06 557.00 360.00
C 552.31 372.36 540.26 381.90 528.00 386.00
C 528.00 405.33 528.00 424.67 528.00 444.00
C 551.95 446.11 586.49 440.76 609.02 444.98 C 631.56 449.20 636.26 472.10 655.00 482.00
C 658.26 482.53 660.37 478.51 664.00 480.00
C 665.42 483.31 658.84 479.55 661.00 482.00
C 662.64 486.40 667.29 484.11 668.00 489.00
C 669.92 487.26 671.25 486.70 674.00 485.00
C 672.88 488.43 671.03 489.09 677.00 489.00
C 675.31 487.17 677.52 484.16 680.00 485.00
C 679.26 489.71 687.59 487.40 687.00 493.00
C 687.51 487.33 694.57 492.91 699.00 488.00
C 699.79 492.51 704.10 491.72 706.00 494.00
C 704.62 490.81 711.41 490.68 710.00 494.00
C 714.21 492.49 717.06 492.18 720.00 490.00
C 721.30 493.61 729.78 490.94 729.00 496.00
C 731.79 494.57 731.07 494.60 734.00 496.00
C 731.47 491.05 743.69 496.67 739.00 490.00
C 744.45 488.64 742.37 493.12 745.00 495.00
C 747.01 493.78 748.14 490.52 748.00 495.00
C 750.26 491.16 749.05 496.33 752.00 496.00
C 749.83 490.32 756.65 495.68 757.00 490.00
C 755.49 495.23 762.65 493.71 763.00 497.00
C 766.89 493.00 771.54 494.26 776.00 494.00
C 777.71 496.03 776.31 498.96 778.00 501.00
C 780.62 499.28 777.35 496.37 778.00 494.00
C 783.03 494.59 781.03 495.13 780.00 499.00
C 782.14 498.04 787.77 498.67 785.00 495.00
C 787.51 495.13 788.39 497.99 790.00 495.00
C 789.97 498.71 792.92 497.36 796.00 496.00
C 793.08 500.26 803.69 498.81 797.00 503.00
C 801.10 500.37 803.46 504.94 807.00 505.00
C 804.61 499.08 810.77 505.97 812.00 502.00
C 813.87 505.78 808.78 504.50 811.00 509.00
C 814.40 504.16 816.27 511.47 817.00 516.00
C 817.83 511.01 818.90 511.76 821.00 516.00
C 821.92 510.74 819.02 505.12 822.00 501.00
C 822.08 499.00 821.94 497.00 822.00 495.00
C 824.20 495.74 821.69 499.33 824.00 500.00
C 824.00 494.34 825.06 486.84 823.00 482.00
C 822.26 484.30 822.58 485.41 823.00 488.00
C 820.89 486.58 819.30 480.20 823.00 480.00
C 824.47 459.09 814.25 433.72 809.77 414.23 C 805.29 394.73 794.78 376.21 785.92 359.08 C 777.07 341.94 766.88 326.83 754.70 312.30 C 742.52 297.78 729.86 285.67 715.23 272.77 C 700.60 259.87 685.15 251.51 668.08 241.92 C 651.01 232.33 633.32 223.48 614.07 216.93 C 594.82 210.37 570.52 206.54 550.00 203.00
C 526.53 203.41 498.55 203.41 475.00 203.00
C 439.50 209.48 400.15 217.29 369.07 235.07 C 338.00 252.86 313.48 267.03 288.75 292.75 C 264.03 318.48 247.25 341.17 230.97 372.97 C 214.69 404.78 205.36 443.92 201.00 480.00 Z"/>
</g>
<g fill="#F1171A" fill-opacity="1.00" stroke="None">
<path d="
M 507.00 296.00
C 511.17 295.62 515.58 296.39 519.00 297.00
C 530.06 297.75 538.81 303.03 546.75 311.25 C 554.70 319.46 555.82 333.42 570.00 331.00 C 584.18 328.58 599.16 332.67 613.00 331.00 C 626.84 329.33 636.99 331.44 647.00 340.00
C 656.80 348.38 666.67 358.25 675.00 368.00
C 682.71 377.02 691.00 384.00 699.25 392.75 C 707.50 401.50 715.31 408.06 723.75 417.25 C 732.19 426.44 739.83 431.42 747.77 442.23 C 755.71 453.04 743.23 469.86 729.00 460.00
C 721.07 454.50 714.72 445.72 708.00 439.00
C 695.45 426.45 681.51 414.47 670.00 401.00
C 663.71 393.64 656.01 385.65 648.75 379.25 C 641.50 372.85 635.07 361.87 626.00 359.00
C 618.90 357.73 610.19 359.11 603.00 359.00 C 595.81 358.89 586.97 358.02 580.00 359.00 C 573.03 359.98 563.29 356.28 557.00 359.00
C 552.59 361.82 549.12 370.49 544.75 374.75 C 540.39 379.02 529.83 381.56 527.00 386.00
C 523.51 394.08 528.62 406.14 527.00 415.00 C 525.38 423.86 527.82 434.91 527.00 444.00
C 532.77 448.28 544.44 443.86 552.00 445.00 C 559.56 446.14 570.00 444.78 578.00 445.00 C 586.00 445.23 595.65 445.11 603.00 446.00
C 614.89 446.24 623.70 454.82 631.75 462.25 C 639.81 469.68 646.66 478.28 654.75 484.25 C 662.84 490.22 670.09 505.00 680.00 505.00
C 675.27 504.41 671.05 496.77 666.75 494.25 C 662.46 491.72 658.45 485.45 655.00 482.00
C 636.26 472.10 631.56 449.20 609.02 444.98 C 586.49 440.76 551.95 446.11 528.00 444.00
C 528.00 424.67 528.00 405.33 528.00 386.00
C 540.26 381.90 552.31 372.36 557.00 360.00
C 565.29 360.06 574.84 359.93 583.00 360.00 C 591.16 360.07 601.30 359.86 609.00 360.00 C 616.70 360.14 625.61 358.35 630.75 363.25 C 635.89 368.14 639.07 371.67 643.75 376.25 C 648.43 380.83 652.31 384.82 656.75 389.25 C 661.20 393.67 664.93 397.38 669.25 401.75 C 673.56 406.13 678.02 410.34 682.25 414.75 C 686.48 419.17 691.17 423.24 695.25 427.75 C 699.33 432.26 703.96 435.45 707.75 440.25 C 711.54 445.05 715.71 449.19 720.25 453.75 C 724.79 458.31 729.50 463.23 735.93 464.07 C 742.36 464.91 747.85 462.46 751.07 456.07 C 754.30 449.69 750.12 441.76 745.75 437.25 C 741.39 432.73 737.56 429.13 733.25 424.75 C 728.93 420.37 724.57 416.09 720.25 411.75 C 715.93 407.41 711.56 403.05 707.25 398.75 C 702.94 394.46 699.08 390.53 694.75 386.25 C 690.42 381.96 686.14 377.55 681.75 373.25 C 677.36 368.95 673.23 364.55 668.75 360.25 C 664.27 355.95 661.00 352.07 656.25 347.75 C 651.49 343.43 648.62 339.03 643.08 334.92 C 637.54 330.81 629.71 329.27 622.00 330.00 C 614.29 330.73 605.21 329.09 597.00 330.00 C 588.79 330.91 579.47 328.35 571.00 330.00 C 562.53 331.65 556.90 327.35 554.92 320.08 C 552.94 312.81 547.41 311.52 543.70 306.30 C 540.00 301.08 531.55 300.00 527.02 296.98 C 522.50 293.95 507.16 296.25 507.00 296.00 Z"/>
</g>
<g fill="#FB9095" fill-opacity="1.00" stroke="None">
<path d="
M 507.00 297.00
C 510.87 296.74 515.13 296.74 519.00 297.00
C 515.58 296.39 511.17 295.62 507.00 296.00
C 507.00 296.00 507.06 296.99 507.00 297.00 Z"/>
</g>
<g fill="#FEFDFD" fill-opacity="1.00" stroke="None">
<path d="
M 500.00 444.00
C 497.07 448.19 484.69 443.98 479.00 445.00 C 473.31 446.02 462.43 444.82 456.00 445.00 C 449.57 445.18 440.50 445.65 434.00 445.00 C 427.50 444.35 417.26 447.26 412.00 444.00
C 405.61 440.05 404.77 427.69 396.75 423.25 C 388.74 418.81 382.35 413.16 372.67 412.33 C 362.99 411.50 352.83 414.03 344.70 418.70 C 336.57 423.37 331.82 428.13 327.31 436.31 C 322.79 444.48 320.67 456.37 322.22 465.78 C 323.77 475.18 328.23 481.96 334.08 488.92 C 339.93 495.87 347.47 499.70 356.00 502.00
C 363.71 504.08 371.47 503.59 379.68 501.68 C 387.88 499.77 391.49 494.87 398.75 490.75 C 406.02 486.64 404.78 477.18 410.92 472.92 C 417.06 468.66 431.57 473.36 440.00 472.00 C 448.43 470.64 460.82 472.71 470.00 472.00 C 479.18 471.29 490.61 472.53 500.00 472.00
C 500.31 481.99 499.58 494.23 500.00 504.00 C 500.42 513.77 489.78 513.87 483.75 519.75 C 477.72 525.63 472.61 530.57 469.70 538.70 C 466.78 546.82 465.93 558.39 468.33 566.67 C 470.73 574.95 474.77 580.39 480.25 586.75 C 485.72 593.11 493.98 595.22 500.00 600.00
C 503.86 609.97 498.04 623.25 500.00 634.00 C 501.96 644.75 498.53 658.02 500.00 669.00
C 479.05 671.09 453.42 671.05 439.75 655.25 C 426.09 639.45 412.52 635.94 400.00 620.00
C 395.80 611.02 397.37 597.92 388.75 590.25 C 380.12 582.59 374.26 576.40 362.98 574.02 C 351.69 571.65 338.67 573.56 329.00 580.00
C 318.64 586.89 312.51 595.29 309.01 607.01 C 305.51 618.73 308.12 634.52 315.75 644.25 C 323.39 653.97 332.80 661.65 345.02 662.98 C 357.25 664.30 372.21 663.90 381.75 653.75 C 391.28 643.60 398.52 653.90 407.75 662.25 C 416.98 670.60 423.08 676.85 433.23 684.77 C 443.38 692.69 455.52 697.42 470.00 696.00 C 484.48 694.58 501.68 697.59 517.00 696.00 C 532.32 694.41 549.24 698.77 565.00 696.00 C 580.77 693.23 583.48 706.88 592.75 716.25 C 602.02 725.62 615.45 729.81 628.00 729.00 C 640.55 728.19 651.20 722.04 659.75 712.75 C 668.30 703.47 671.25 688.20 669.00 676.00 C 666.75 663.80 660.78 654.26 650.30 646.70 C 639.82 639.13 625.62 636.22 613.00 640.00
C 604.20 642.63 595.15 645.41 589.25 654.25 C 583.35 663.09 579.25 671.78 566.00 669.00 C 552.75 666.22 540.19 671.09 527.00 669.00
C 528.06 658.78 525.58 644.85 527.00 635.00 C 528.42 625.15 524.35 608.45 527.00 600.00 C 529.65 591.55 542.32 593.18 546.75 584.75 C 551.18 576.32 559.23 571.67 558.00 561.00
C 558.21 557.10 558.27 552.90 558.00 549.00
C 557.29 538.59 552.07 532.71 546.75 524.25 C 541.43 515.78 529.31 517.30 527.01 507.99 C 524.71 498.68 528.72 481.98 527.00 472.00
C 540.24 472.13 559.34 471.83 572.00 472.00 C 584.66 472.17 603.49 469.18 611.25 478.75 C 619.00 488.33 628.73 492.71 634.75 501.25 C 640.77 509.78 657.69 514.93 655.22 525.22 C 652.75 535.52 645.78 551.02 651.78 562.22 C 657.78 573.43 660.95 580.88 672.08 586.92 C 683.21 592.96 696.98 595.72 708.67 591.67 C 720.36 587.62 728.12 581.96 734.77 571.77 C 741.42 561.58 743.07 545.49 739.01 533.99 C 734.94 522.50 728.09 515.25 717.92 509.08 C 707.76 502.91 691.78 500.56 680.00 505.00
C 670.09 505.00 662.84 490.22 654.75 484.25 C 646.66 478.28 639.81 469.68 631.75 462.25 C 623.70 454.82 614.89 446.24 603.00 446.00
C 596.89 445.88 590.04 446.19 584.00 446.00 C 577.96 445.81 569.68 446.36 564.00 446.00 C 558.32 445.64 548.67 446.78 544.00 446.00 C 539.33 445.22 526.99 448.64 526.00 444.00
C 525.23 435.38 525.17 423.43 526.00 415.00 C 526.83 406.57 522.72 392.71 527.00 386.00
C 529.83 381.56 540.39 379.02 544.75 374.75 C 549.12 370.49 552.59 361.82 557.00 359.00
C 564.64 354.12 581.39 358.71 591.00 358.00 C 600.61 357.29 617.21 356.22 626.00 359.00
C 635.07 361.87 641.50 372.85 648.75 379.25 C 656.01 385.65 663.71 393.64 670.00 401.00
C 682.58 413.58 695.46 426.46 708.00 439.00
C 714.67 445.67 721.78 454.13 729.00 460.00
C 743.23 469.86 755.71 453.04 747.77 442.23 C 739.83 431.42 732.19 426.44 723.75 417.25 C 715.31 408.06 707.50 401.50 699.25 392.75 C 691.00 384.00 682.71 377.02 675.00 368.00
C 665.75 358.75 656.20 349.20 647.00 340.00
C 636.99 331.44 626.84 329.33 613.00 331.00 C 599.16 332.67 584.18 328.58 570.00 331.00 C 555.82 333.42 554.70 319.46 546.75 311.25 C 538.81 303.03 530.06 297.75 519.00 297.00
C 515.13 296.74 510.87 296.74 507.00 297.00
C 498.63 297.57 498.66 297.75 490.25 302.25 C 481.83 306.74 473.45 317.32 469.98 325.98 C 466.50 334.63 467.96 336.85 468.00 344.00 C 468.04 351.15 469.30 356.27 472.23 361.77 C 475.16 367.27 477.22 370.20 481.75 374.25 C 486.29 378.30 488.67 381.25 494.78 383.22 C 500.89 385.20 501.02 393.66 500.00 400.00 C 498.98 406.34 501.66 415.97 500.00 422.00 C 498.34 428.03 503.39 439.15 500.00 444.00
M 516.00 322.00
C 540.17 325.02 536.17 364.06 511.00 361.00 C 485.82 357.94 490.86 318.86 516.00 322.00
M 370.00 438.00
C 394.34 441.07 390.24 480.11 365.00 477.00 C 339.76 473.89 345.54 434.91 370.00 438.00
M 702.00 529.00
C 725.82 534.90 712.61 575.69 688.93 566.07 C 665.24 556.46 677.14 522.84 702.00 529.00
M 517.00 535.00
C 540.43 539.85 535.09 576.87 509.93 573.07 C 484.77 569.28 490.65 529.54 517.00 535.00
M 355.00 598.00
C 379.03 600.02 377.62 638.82 352.00 637.00 C 326.38 635.18 329.72 595.87 355.00 598.00
M 629.00 664.00
C 652.67 669.24 644.54 707.81 619.78 702.22 C 595.02 696.63 603.49 658.35 629.00 664.00 Z"/>
</g>
<g fill="#F72637" fill-opacity="1.00" stroke="None">
<path d="
M 516.00 322.00
C 490.86 318.86 485.82 357.94 511.00 361.00 C 536.17 364.06 540.17 325.02 516.00 322.00 Z"/>
</g>
<g fill="#FA777F" fill-opacity="1.00" stroke="None">
<path d="
M 675.00 368.00
C 666.67 358.25 656.80 348.38 647.00 340.00
C 656.20 349.20 665.75 358.75 675.00 368.00 Z"/>
</g>
<g fill="#FB6D75" fill-opacity="1.00" stroke="None">
<path d="
M 557.00 359.00
C 563.29 356.28 573.03 359.98 580.00 359.00 C 586.97 358.02 595.81 358.89 603.00 359.00 C 610.19 359.11 618.90 357.73 626.00 359.00
C 617.21 356.22 600.61 357.29 591.00 358.00 C 581.39 358.71 564.64 354.12 557.00 359.00 Z"/>
</g>
<g fill="#FAD7DB" fill-opacity="1.00" stroke="None">
<path d="
M 526.00 444.00
C 526.00 444.04 527.00 444.00 527.00 444.00
C 527.82 434.91 525.38 423.86 527.00 415.00 C 528.62 406.14 523.51 394.08 527.00 386.00
C 522.72 392.71 526.83 406.57 526.00 415.00 C 525.17 423.43 525.23 435.38 526.00 444.00 Z"/>
</g>
<g fill="#F7828A" fill-opacity="1.00" stroke="None">
<path d="
M 708.00 439.00
C 695.46 426.46 682.58 413.58 670.00 401.00
C 681.51 414.47 695.45 426.45 708.00 439.00 Z"/>
</g>
<g fill="#EC1F32" fill-opacity="1.00" stroke="None">
<path d="
M 370.00 438.00
C 345.54 434.91 339.76 473.89 365.00 477.00 C 390.24 480.11 394.34 441.07 370.00 438.00 Z"/>
</g>
<g fill="#FCCFD4" fill-opacity="1.00" stroke="None">
<path d="
M 729.00 460.00
C 721.78 454.13 714.67 445.67 708.00 439.00
C 714.72 445.72 721.07 454.50 729.00 460.00 Z"/>
</g>
<g fill="#F56D78" fill-opacity="1.00" stroke="None">
<path d="
M 500.00 444.00
C 490.39 443.39 479.48 444.81 470.00 444.00 C 460.52 443.19 450.08 445.60 441.00 444.00 C 431.92 442.40 420.29 447.45 412.00 444.00
C 417.26 447.26 427.50 444.35 434.00 445.00 C 440.50 445.65 449.57 445.18 456.00 445.00 C 462.43 444.82 473.31 446.02 479.00 445.00 C 484.69 443.98 497.07 448.19 500.00 444.00 Z"/>
</g>
<g fill="#F9B5BD" fill-opacity="1.00" stroke="None">
<path d="
M 603.00 446.00
C 595.65 445.11 586.00 445.23 578.00 445.00 C 570.00 444.78 559.56 446.14 552.00 445.00 C 544.44 443.86 532.77 448.28 527.00 444.00
C 527.00 444.00 526.00 444.04 526.00 444.00
C 526.99 448.64 539.33 445.22 544.00 446.00 C 548.67 446.78 558.32 445.64 564.00 446.00 C 569.68 446.36 577.96 445.81 584.00 446.00 C 590.04 446.19 596.89 445.88 603.00 446.00 Z"/>
</g>
<g fill="#E2182E" fill-opacity="1.00" stroke="None">
<path d="
M 202.00 482.00
C 202.63 487.13 200.76 491.01 200.00 495.00
C 200.00 496.67 200.00 498.33 200.00 500.00
C 200.74 506.94 200.94 515.11 200.00 522.00
C 200.00 523.33 200.00 524.67 200.00 526.00
C 200.62 528.10 202.00 530.96 202.00 535.00
C 202.00 536.29 202.18 537.73 202.00 539.00
C 202.43 542.18 202.18 545.98 202.00 549.00
C 202.34 551.40 202.61 553.77 203.00 556.00
C 204.56 560.55 205.21 563.16 205.00 568.00
C 205.25 569.74 205.73 571.73 206.00 573.00
C 206.46 574.00 208.11 577.07 208.00 581.00
C 207.97 581.97 207.92 583.03 208.00 584.00
C 209.48 586.96 210.11 587.13 210.00 591.00
C 210.39 592.41 210.36 592.90 211.00 594.00
C 213.43 598.17 213.57 601.12 214.00 605.00
C 214.52 606.51 215.62 608.75 216.00 610.00
C 216.70 611.12 217.59 614.67 218.00 617.00
C 218.79 618.94 218.76 620.09 220.00 622.00
C 221.92 624.94 221.53 625.45 222.00 628.00
C 223.89 632.53 225.05 636.87 228.00 641.00
C 231.84 646.38 234.63 652.69 236.00 658.00
C 236.67 659.24 237.26 659.89 238.00 661.00
C 237.81 660.82 240.12 662.95 241.00 664.00
C 239.41 663.12 245.26 661.92 245.00 665.00
C 245.88 661.96 246.40 659.90 248.00 657.00
C 251.83 656.92 252.84 663.09 248.00 659.00
C 248.04 665.46 256.28 666.56 257.00 660.00
C 259.10 665.48 268.44 658.49 262.00 657.00
C 265.30 655.52 268.55 657.87 272.00 656.00
C 269.09 660.01 269.44 660.42 273.00 663.00
C 274.27 658.68 275.64 663.45 277.00 659.00
C 278.76 659.72 279.50 662.24 282.00 659.00
C 279.31 658.06 275.66 658.59 275.00 655.00
C 281.05 658.68 284.86 653.94 291.00 658.00
C 288.79 654.11 295.07 655.87 295.00 653.00
C 296.74 654.66 297.56 654.99 300.00 656.00
C 298.68 652.12 308.24 650.28 309.00 653.00
C 309.43 649.43 312.55 647.19 316.00 649.00
C 299.61 628.37 303.66 590.04 329.00 580.00
C 338.67 573.56 351.69 571.65 362.98 574.02 C 374.26 576.40 380.12 582.59 388.75 590.25 C 397.37 597.92 395.80 611.02 400.00 620.00
C 403.39 625.79 417.09 631.94 422.75 639.25 C 428.42 646.55 440.30 652.64 446.25 659.75 C 452.19 666.86 453.41 665.74 460.22 667.78 C 467.03 669.82 475.61 667.35 482.00 668.00 C 488.39 668.65 498.93 669.95 498.67 663.33 C 498.40 656.71 499.81 649.96 499.00 643.00 C 498.19 636.04 500.42 627.63 499.00 621.00 C 497.58 614.37 501.56 605.15 500.00 600.00
C 493.98 595.22 485.72 593.11 480.25 586.75 C 474.77 580.39 470.73 574.95 468.33 566.67 C 465.93 558.39 466.78 546.82 469.70 538.70 C 472.61 530.57 477.72 525.63 483.75 519.75 C 489.78 513.87 500.42 513.77 500.00 504.00 C 499.58 494.23 500.31 481.99 500.00 472.00
C 490.61 472.53 479.18 471.29 470.00 472.00 C 460.82 472.71 448.43 470.64 440.00 472.00 C 431.57 473.36 417.06 468.66 410.92 472.92 C 404.78 477.18 406.02 486.64 398.75 490.75 C 391.49 494.87 387.88 499.77 379.68 501.68 C 371.47 503.59 363.71 504.08 356.00 502.00
C 338.39 501.75 322.31 481.83 321.00 464.00
C 317.18 464.16 317.64 460.25 317.00 457.00
C 313.72 461.48 311.97 453.38 318.00 456.00
C 317.33 452.82 315.31 454.14 314.00 452.00
C 314.25 456.32 307.26 453.35 306.00 453.00
C 304.33 459.57 311.30 451.23 312.00 458.00
C 308.19 455.74 306.29 458.45 304.00 461.00
C 306.73 456.32 300.48 456.18 301.00 460.00
C 299.22 455.32 295.44 456.48 292.00 455.00
C 292.38 464.65 278.87 454.48 275.00 461.00
C 271.71 459.00 268.26 458.91 265.00 461.00
C 267.22 462.47 268.99 460.11 269.00 464.00
C 263.18 463.28 258.74 462.48 253.00 462.00
C 252.71 465.84 252.50 466.11 258.00 468.00
C 252.03 469.06 248.57 470.99 244.00 467.00
C 247.64 469.18 242.89 469.67 241.00 468.00
C 240.09 470.70 240.41 471.80 239.00 474.00
C 232.41 471.48 224.24 476.74 220.23 480.23 C 216.22 483.73 211.89 490.73 210.00 484.00
C 206.54 485.51 208.17 492.52 203.00 490.00
C 207.67 488.78 202.07 483.83 204.00 479.00
C 203.27 479.42 202.15 481.39 202.00 482.00 Z"/>
</g>
<g fill="#DD162C" fill-opacity="1.00" stroke="None">
<path d="
M 558.00 549.00
C 558.72 553.05 558.64 557.03 558.00 561.00
C 559.23 571.67 551.18 576.32 546.75 584.75 C 542.32 593.18 529.65 591.55 527.00 600.00 C 524.35 608.45 528.42 625.15 527.00 635.00 C 525.58 644.85 528.06 658.78 527.00 669.00
C 540.19 671.09 552.75 666.22 566.00 669.00 C 579.25 671.78 583.35 663.09 589.25 654.25 C 595.15 645.41 604.20 642.63 613.00 640.00
C 618.18 637.44 628.03 635.44 635.01 637.99 C 641.98 640.55 646.80 642.14 652.70 646.30 C 658.59 650.47 660.41 654.85 664.77 660.23 C 669.13 665.61 668.97 673.59 671.00 680.00 C 673.03 686.41 667.90 696.73 672.00 699.00
C 668.39 700.40 670.43 700.91 671.00 704.00
C 675.79 700.81 684.55 702.50 687.00 696.00
C 689.39 698.84 689.59 701.36 688.00 705.00
C 690.34 704.93 694.17 699.02 698.22 700.22 C 702.28 701.42 704.11 702.64 704.00 696.00
C 706.42 696.44 707.87 694.81 706.00 699.00
C 707.89 698.76 712.06 697.50 710.00 695.00
C 713.59 696.87 714.67 700.56 715.00 695.00
C 715.95 696.98 717.75 698.94 716.00 701.00
C 718.06 700.49 720.99 698.43 718.00 697.00
C 721.26 695.50 721.63 698.57 724.70 696.65 C 727.76 694.73 730.50 691.23 730.00 698.00
C 731.21 694.59 731.25 693.30 735.00 692.00
C 736.44 694.46 735.60 696.95 732.00 696.00
C 736.96 700.36 738.29 689.14 741.00 697.00
C 740.36 694.33 740.75 692.34 740.00 690.00
C 742.61 691.16 743.54 693.30 747.00 693.00
C 745.44 695.57 740.96 692.76 742.00 697.00
C 744.77 695.28 753.17 692.73 749.00 699.00
C 751.75 697.92 754.20 695.21 754.00 692.00
C 756.95 693.57 757.74 689.65 759.00 694.00
C 761.03 692.22 759.53 688.52 760.00 686.00
C 762.12 688.65 764.50 686.43 766.00 689.00
C 769.67 686.33 764.32 679.89 771.00 680.00
C 769.39 682.12 772.81 682.26 771.00 685.00
C 776.47 677.42 782.03 662.40 788.00 658.00
C 788.25 657.27 788.78 657.14 789.00 656.00
C 789.63 652.71 790.80 650.89 792.00 650.00
C 792.22 649.19 792.95 649.38 793.00 648.00
C 793.24 641.87 798.58 630.22 801.97 623.97 C 805.36 617.73 806.51 601.92 812.00 598.00
C 812.00 598.00 812.21 597.39 812.00 597.00
C 809.70 592.59 814.54 586.95 816.00 584.00
C 816.52 581.19 817.25 578.69 818.00 576.00
C 818.02 576.21 815.69 577.11 816.00 573.00 C 816.31 568.88 818.49 565.25 820.00 562.00
C 820.21 560.54 820.65 559.37 821.00 558.00
C 821.00 558.04 817.23 558.08 819.33 553.33 C 821.43 548.58 821.54 540.79 822.00 536.00
C 821.82 534.04 822.00 531.97 822.00 530.00
C 822.00 520.36 821.62 510.63 822.00 501.00
C 819.02 505.12 821.92 510.74 821.00 516.00
C 818.90 511.76 817.83 511.01 817.00 516.00
C 816.27 511.47 814.40 504.16 811.00 509.00
C 808.78 504.50 813.87 505.78 812.00 502.00
C 810.77 505.97 804.61 499.08 807.00 505.00
C 803.46 504.94 801.10 500.37 797.00 503.00
C 803.69 498.81 793.08 500.26 796.00 496.00
C 792.92 497.36 789.97 498.71 790.00 495.00
C 788.39 497.99 787.51 495.13 785.00 495.00
C 787.77 498.67 782.14 498.04 780.00 499.00
C 781.03 495.13 783.03 494.59 778.00 494.00
C 777.35 496.37 780.62 499.28 778.00 501.00
C 776.31 498.96 777.71 496.03 776.00 494.00
C 771.54 494.26 766.89 493.00 763.00 497.00
C 762.65 493.71 755.49 495.23 757.00 490.00
C 756.65 495.68 749.83 490.32 752.00 496.00
C 749.05 496.33 750.26 491.16 748.00 495.00
C 748.14 490.52 747.01 493.78 745.00 495.00
C 742.37 493.12 744.45 488.64 739.00 490.00
C 743.69 496.67 731.47 491.05 734.00 496.00
C 731.07 494.60 731.79 494.57 729.00 496.00
C 729.78 490.94 721.30 493.61 720.00 490.00
C 717.06 492.18 714.21 492.49 710.00 494.00
C 711.41 490.68 704.62 490.81 706.00 494.00
C 704.10 491.72 699.79 492.51 699.00 488.00
C 694.57 492.91 687.51 487.33 687.00 493.00
C 687.59 487.40 679.26 489.71 680.00 485.00
C 677.52 484.16 675.31 487.17 677.00 489.00
C 671.03 489.09 672.88 488.43 674.00 485.00
C 671.25 486.70 669.92 487.26 668.00 489.00
C 667.29 484.11 662.64 486.40 661.00 482.00
C 658.84 479.55 665.42 483.31 664.00 480.00
C 660.37 478.51 658.26 482.53 655.00 482.00
C 658.45 485.45 662.46 491.72 666.75 494.25 C 671.05 496.77 675.27 504.41 680.00 505.00
C 691.78 500.56 707.76 502.91 717.92 509.08 C 728.09 515.25 734.94 522.50 739.01 533.99 C 743.07 545.49 741.42 561.58 734.77 571.77 C 728.12 581.96 720.36 587.62 708.67 591.67 C 696.98 595.72 683.21 592.96 672.08 586.92 C 660.95 580.88 657.78 573.43 651.78 562.22 C 645.78 551.02 652.75 535.52 655.22 525.22 C 657.69 514.93 640.77 509.78 634.75 501.25 C 628.73 492.71 619.00 488.33 611.25 478.75 C 603.49 469.18 584.66 472.17 572.00 472.00 C 559.34 471.83 540.24 472.13 527.00 472.00
C 528.72 481.98 524.71 498.68 527.01 507.99 C 529.31 517.30 541.43 515.78 546.75 524.25 C 552.07 532.71 557.29 538.59 558.00 549.00 Z"/>
</g>
<g fill="#FE223A" fill-opacity="0.38" stroke="None">
<path d="
M 200.00 495.00
C 200.76 491.01 202.63 487.13 202.00 482.00
C 201.87 480.98 201.16 480.55 201.00 480.00
C 200.47 484.36 200.00 489.90 200.00 495.00 Z"/>
</g>
<g fill="#FD203C" fill-opacity="0.59" stroke="None">
<path d="
M 823.00 482.00
C 823.15 481.55 822.97 480.50 823.00 480.00
C 819.30 480.20 820.89 486.58 823.00 488.00
C 822.58 485.41 822.26 484.30 823.00 482.00 Z"/>
</g>
<g fill="#FB1E39" fill-opacity="0.53" stroke="None">
<path d="
M 822.00 501.00
C 821.62 510.63 822.00 520.36 822.00 530.00
C 822.14 528.97 823.85 525.98 824.00 525.00
C 824.00 516.67 824.00 508.33 824.00 500.00
C 821.69 499.33 824.20 495.74 822.00 495.00
C 821.94 497.00 822.08 499.00 822.00 501.00 Z"/>
</g>
<g fill="#FE1F39" fill-opacity="0.66" stroke="None">
<path d="
M 200.00 522.00
C 200.94 515.11 200.74 506.94 200.00 500.00
C 200.00 507.33 200.00 514.67 200.00 522.00 Z"/>
</g>
<g fill="#FD1A35" fill-opacity="0.24" stroke="None">
<path d="
M 822.00 530.00
C 822.00 531.97 821.82 534.04 822.00 536.00
C 822.12 537.32 822.83 538.22 823.00 539.00
C 823.39 535.01 824.00 529.74 824.00 525.00
C 823.85 525.98 822.14 528.97 822.00 530.00 Z"/>
</g>
<g fill="#FB1E3A" fill-opacity="0.60" stroke="None">
<path d="
M 200.00 529.00
C 200.24 530.35 201.83 533.71 202.00 535.00
C 202.00 530.96 200.62 528.10 200.00 526.00
C 200.00 527.00 200.00 528.00 200.00 529.00 Z"/>
</g>
<g fill="#FC1B36" fill-opacity="0.18" stroke="None">
<path d="
M 201.00 541.00
C 201.15 540.46 201.86 539.99 202.00 539.00
C 202.18 537.73 202.00 536.29 202.00 535.00
C 201.83 533.71 200.24 530.35 200.00 529.00
C 200.00 533.12 200.58 537.54 201.00 541.00 Z"/>
</g>
<g fill="#E11A2D" fill-opacity="1.00" stroke="None">
<path d="
M 702.00 529.00
C 677.14 522.84 665.24 556.46 688.93 566.07 C 712.61 575.69 725.82 534.90 702.00 529.00 Z"/>
</g>
<g fill="#E01B2E" fill-opacity="1.00" stroke="None">
<path d="
M 517.00 535.00
C 490.65 529.54 484.77 569.28 509.93 573.07 C 535.09 576.87 540.43 539.85 517.00 535.00 Z"/>
</g>
<g fill="#F81A35" fill-opacity="0.51" stroke="None">
<path d="
M 821.00 558.00
C 822.33 552.76 824.22 544.55 823.00 539.00
C 822.83 538.22 822.12 537.32 822.00 536.00
C 821.54 540.79 821.43 548.58 819.33 553.33 C 817.23 558.08 821.00 558.04 821.00 558.00 Z"/>
</g>
<g fill="#FA1B36" fill-opacity="0.45" stroke="None">
<path d="
M 201.00 541.00
C 201.33 543.69 201.65 546.51 202.00 549.00
C 202.18 545.98 202.43 542.18 202.00 539.00
C 201.86 539.99 201.15 540.46 201.00 541.00 Z"/>
</g>
<g fill="#F099A4" fill-opacity="1.00" stroke="None">
<path d="
M 558.00 561.00
C 558.64 557.03 558.72 553.05 558.00 549.00
C 558.27 552.90 558.21 557.10 558.00 561.00 Z"/>
</g>
<g fill="#F91B38" fill-opacity="0.40" stroke="None">
<path d="
M 205.00 568.00
C 205.21 563.16 204.56 560.55 203.00 556.00
C 203.68 559.88 204.50 564.54 205.00 568.00 Z"/>
</g>
<g fill="#F91834" fill-opacity="0.49" stroke="None">
<path d="
M 818.00 576.00
C 819.34 571.20 819.29 567.01 820.00 562.00
C 818.49 565.25 816.31 568.88 816.00 573.00 C 815.69 577.11 818.02 576.21 818.00 576.00 Z"/>
</g>
<g fill="#F91835" fill-opacity="0.38" stroke="None">
<path d="
M 206.00 573.00
C 206.57 575.64 207.52 578.77 208.00 581.00
C 208.11 577.07 206.46 574.00 206.00 573.00 Z"/>
</g>
<g fill="#CA0E25" fill-opacity="1.00" stroke="None">
<path d="
M 241.00 664.00
C 242.41 665.68 243.61 667.24 244.92 669.08 C 246.23 670.92 244.58 675.29 244.00 673.00
C 245.14 674.88 245.62 674.90 247.00 676.00
C 251.90 679.91 254.56 684.99 258.00 690.00
C 264.91 700.07 272.07 710.07 281.00 719.00
C 289.25 727.25 297.80 735.80 306.00 744.00
C 315.94 753.94 331.16 762.00 339.00 771.00
C 339.93 771.66 340.88 772.30 342.00 773.00
C 345.08 773.90 353.80 775.94 355.00 781.00
C 355.00 781.00 355.66 781.23 356.00 781.00
C 358.35 779.37 370.59 788.07 374.68 789.32 C 378.77 790.58 390.80 796.84 392.00 799.00
C 392.46 799.18 393.32 799.76 394.00 800.00
C 397.38 800.04 404.08 800.71 407.69 803.31 C 411.31 805.90 418.68 806.16 422.01 807.99 C 425.34 809.82 435.26 809.52 436.00 813.00
C 440.40 812.71 441.83 814.80 445.00 816.00
C 445.87 816.03 447.15 816.19 448.00 816.00
C 451.37 815.25 457.90 815.93 461.67 817.33 C 465.44 818.73 474.92 816.98 476.00 821.00
C 476.00 821.00 476.56 820.84 477.00 821.00
C 482.77 816.73 493.52 822.34 501.00 821.00 C 508.48 819.66 519.20 821.30 527.00 821.00
C 537.39 820.60 547.83 819.32 558.00 818.00
C 562.18 817.46 565.92 816.79 570.00 816.00
C 573.59 815.31 577.38 814.83 581.00 814.00
C 585.32 813.01 589.60 811.97 594.00 811.00
C 604.69 808.63 615.08 803.32 625.68 800.68 C 636.27 798.03 645.26 789.76 656.00 788.00
C 656.00 788.00 656.50 788.05 657.00 788.00
C 658.76 783.74 672.37 777.55 676.00 777.00
C 676.21 776.78 677.64 776.15 678.00 776.00
C 683.94 769.61 693.54 764.60 701.23 759.23 C 708.92 753.86 715.00 745.87 723.00 741.00
C 730.25 733.75 737.80 726.20 745.00 719.00
C 751.29 712.71 757.55 703.58 763.00 699.00
C 763.70 698.07 764.25 697.07 765.00 696.00
C 766.14 692.45 768.27 688.79 771.00 685.00
C 772.81 682.26 769.39 682.12 771.00 680.00
C 764.32 679.89 769.67 686.33 766.00 689.00
C 764.50 686.43 762.12 688.65 760.00 686.00
C 759.53 688.52 761.03 692.22 759.00 694.00
C 757.74 689.65 756.95 693.57 754.00 692.00
C 754.20 695.21 751.75 697.92 749.00 699.00
C 753.17 692.73 744.77 695.28 742.00 697.00
C 740.96 692.76 745.44 695.57 747.00 693.00
C 743.54 693.30 742.61 691.16 740.00 690.00
C 740.75 692.34 740.36 694.33 741.00 697.00
C 738.29 689.14 736.96 700.36 732.00 696.00
C 735.60 696.95 736.44 694.46 735.00 692.00
C 731.25 693.30 731.21 694.59 730.00 698.00
C 730.50 691.23 727.76 694.73 724.70 696.65 C 721.63 698.57 721.26 695.50 718.00 697.00
C 720.99 698.43 718.06 700.49 716.00 701.00
C 717.75 698.94 715.95 696.98 715.00 695.00
C 714.67 700.56 713.59 696.87 710.00 695.00
C 712.06 697.50 707.89 698.76 706.00 699.00
C 707.87 694.81 706.42 696.44 704.00 696.00
C 704.11 702.64 702.28 701.42 698.22 700.22 C 694.17 699.02 690.34 704.93 688.00 705.00
C 689.59 701.36 689.39 698.84 687.00 696.00
C 684.55 702.50 675.79 700.81 671.00 704.00
C 670.43 700.91 668.39 700.40 672.00 699.00
C 667.90 696.73 673.03 686.41 671.00 680.00 C 668.97 673.59 669.13 665.61 664.77 660.23 C 660.41 654.85 658.59 650.47 652.70 646.30 C 646.80 642.14 641.98 640.55 635.01 637.99 C 628.03 635.44 618.18 637.44 613.00 640.00
C 625.62 636.22 639.82 639.13 650.30 646.70 C 660.78 654.26 666.75 663.80 669.00 676.00 C 671.25 688.20 668.30 703.47 659.75 712.75 C 651.20 722.04 640.55 728.19 628.00 729.00 C 615.45 729.81 602.02 725.62 592.75 716.25 C 583.48 706.88 580.77 693.23 565.00 696.00 C 549.24 698.77 532.32 694.41 517.00 696.00 C 501.68 697.59 484.48 694.58 470.00 696.00 C 455.52 697.42 443.38 692.69 433.23 684.77 C 423.08 676.85 416.98 670.60 407.75 662.25 C 398.52 653.90 391.28 643.60 381.75 653.75 C 372.21 663.90 357.25 664.30 345.02 662.98 C 332.80 661.65 323.39 653.97 315.75 644.25 C 308.12 634.52 305.51 618.73 309.01 607.01 C 312.51 595.29 318.64 586.89 329.00 580.00
C 303.66 590.04 299.61 628.37 316.00 649.00
C 312.55 647.19 309.43 649.43 309.00 653.00
C 308.24 650.28 298.68 652.12 300.00 656.00
C 297.56 654.99 296.74 654.66 295.00 653.00
C 295.07 655.87 288.79 654.11 291.00 658.00
C 284.86 653.94 281.05 658.68 275.00 655.00
C 275.66 658.59 279.31 658.06 282.00 659.00
C 279.50 662.24 278.76 659.72 277.00 659.00
C 275.64 663.45 274.27 658.68 273.00 663.00
C 269.44 660.42 269.09 660.01 272.00 656.00
C 268.55 657.87 265.30 655.52 262.00 657.00
C 268.44 658.49 259.10 665.48 257.00 660.00
C 256.28 666.56 248.04 665.46 248.00 659.00
C 252.84 663.09 251.83 656.92 248.00 657.00
C 246.40 659.90 245.88 661.96 245.00 665.00
C 245.26 661.92 239.41 663.12 241.00 664.00 Z"/>
</g>
<g fill="#FA1837" fill-opacity="0.36" stroke="None">
<path d="
M 210.00 591.00
C 210.11 587.13 209.48 586.96 208.00 584.00
C 208.22 586.63 209.41 588.88 210.00 591.00 Z"/>
</g>
<g fill="#F61534" fill-opacity="0.44" stroke="None">
<path d="
M 812.00 597.00
C 815.10 594.62 815.31 587.68 816.00 584.00
C 814.54 586.95 809.70 592.59 812.00 597.00 Z"/>
</g>
<g fill="#F61834" fill-opacity="0.38" stroke="None">
<path d="
M 214.00 605.00
C 213.57 601.12 213.43 598.17 211.00 594.00
C 212.17 597.59 212.85 601.67 214.00 605.00 Z"/>
</g>
<g fill="#DA172A" fill-opacity="1.00" stroke="None">
<path d="
M 355.00 598.00
C 329.72 595.87 326.38 635.18 352.00 637.00 C 377.62 638.82 379.03 600.02 355.00 598.00 Z"/>
</g>
<g fill="#F71332" fill-opacity="0.36" stroke="None">
<path d="
M 793.00 648.00
C 797.64 641.24 801.56 632.08 804.03 624.03 C 806.49 615.97 812.58 606.67 812.00 598.00
C 806.51 601.92 805.36 617.73 801.97 623.97 C 798.58 630.22 793.24 641.87 793.00 648.00 Z"/>
</g>
<g fill="#CF0E11" fill-opacity="1.00" stroke="None">
<path d="
M 400.00 620.00
C 412.52 635.94 426.09 639.45 439.75 655.25 C 453.42 671.05 479.05 671.09 500.00 669.00
C 498.53 658.02 501.96 644.75 500.00 634.00 C 498.04 623.25 503.86 609.97 500.00 600.00
C 501.56 605.15 497.58 614.37 499.00 621.00 C 500.42 627.63 498.19 636.04 499.00 643.00 C 499.81 649.96 498.40 656.71 498.67 663.33 C 498.93 669.95 488.39 668.65 482.00 668.00 C 475.61 667.35 467.03 669.82 460.22 667.78 C 453.41 665.74 452.19 666.86 446.25 659.75 C 440.30 652.64 428.42 646.55 422.75 639.25 C 417.09 631.94 403.39 625.79 400.00 620.00 Z"/>
</g>
<g fill="#F7182F" fill-opacity="0.35" stroke="None">
<path d="
M 216.00 610.00
C 216.78 612.58 217.07 614.71 218.00 617.00
C 217.59 614.67 216.70 611.12 216.00 610.00 Z"/>
</g>
<g fill="#F9162C" fill-opacity="0.32" stroke="None">
<path d="
M 222.00 628.00
C 221.53 625.45 221.92 624.94 220.00 622.00
C 220.73 624.09 221.22 626.12 222.00 628.00 Z"/>
</g>
<g fill="#F81431" fill-opacity="0.35" stroke="None">
<path d="
M 236.00 658.00
C 234.63 652.69 231.84 646.38 228.00 641.00
C 230.55 646.77 232.91 652.29 236.00 658.00 Z"/>
</g>
<g fill="#F7132C" fill-opacity="0.36" stroke="None">
<path d="
M 789.00 656.00
C 791.11 653.35 791.07 653.48 792.00 650.00
C 790.80 650.89 789.63 652.71 789.00 656.00 Z"/>
</g>
<g fill="#F4132E" fill-opacity="0.39" stroke="None">
<path d="
M 771.00 685.00
C 768.27 688.79 766.14 692.45 765.00 696.00
C 773.29 684.10 783.24 671.89 788.00 658.00
C 782.03 662.40 776.47 677.42 771.00 685.00 Z"/>
</g>
<g fill="#F3122D" fill-opacity="0.49" stroke="None">
<path d="
M 238.00 661.00
C 240.36 664.54 241.68 669.17 244.00 673.00
C 244.58 675.29 246.23 670.92 244.92 669.08 C 243.61 667.24 242.41 665.68 241.00 664.00
C 240.12 662.95 237.81 660.82 238.00 661.00 Z"/>
</g>
<g fill="#D21528" fill-opacity="1.00" stroke="None">
<path d="
M 629.00 664.00
C 603.49 658.35 595.02 696.63 619.78 702.22 C 644.54 707.81 652.67 669.24 629.00 664.00 Z"/>
</g>
<g fill="#F5122F" fill-opacity="0.52" stroke="None">
<path d="
M 255.00 688.00
C 255.90 688.77 257.23 689.32 258.00 690.00
C 254.56 684.99 251.90 679.91 247.00 676.00
C 249.98 679.99 251.27 684.84 255.00 688.00 Z"/>
</g>
<g fill="#F4102C" fill-opacity="0.36" stroke="None">
<path d="
M 277.00 717.00
C 278.18 718.05 281.03 719.02 281.00 719.00
C 272.07 710.07 264.91 700.07 258.00 690.00
C 257.23 689.32 255.90 688.77 255.00 688.00
C 262.10 698.24 268.47 707.41 277.00 717.00 Z"/>
</g>
<g fill="#F10F28" fill-opacity="0.32" stroke="None">
<path d="
M 745.00 719.00
C 744.28 720.05 743.93 722.13 744.00 722.00
C 750.88 714.84 756.79 707.18 763.00 699.00
C 757.55 703.58 751.29 712.71 745.00 719.00 Z"/>
</g>
<g fill="#F30D28" fill-opacity="0.47" stroke="None">
<path d="
M 304.00 744.00
C 304.07 744.02 305.03 743.53 306.00 744.00
C 297.80 735.80 289.25 727.25 281.00 719.00
C 281.03 719.02 278.18 718.05 277.00 717.00
C 285.87 726.98 294.53 734.53 304.00 744.00 Z"/>
</g>
<g fill="#F70D2B" fill-opacity="0.52" stroke="None">
<path d="
M 723.00 741.00
C 723.69 740.58 724.27 740.32 725.00 740.00
C 732.24 736.86 738.44 727.78 744.00 722.00
C 743.93 722.13 744.28 720.05 745.00 719.00
C 737.80 726.20 730.25 733.75 723.00 741.00 Z"/>
</g>
<g fill="#F00A26" fill-opacity="0.33" stroke="None">
<path d="
M 723.00 741.00
C 715.00 745.87 708.92 753.86 701.23 759.23 C 693.54 764.60 683.94 769.61 678.00 776.00
C 695.99 768.23 711.36 752.36 725.00 740.00
C 724.27 740.32 723.69 740.58 723.00 741.00 Z"/>
</g>
<g fill="#F20B29" fill-opacity="0.35" stroke="None">
<path d="
M 304.00 744.00
C 314.44 754.44 327.50 762.82 339.00 771.00
C 331.16 762.00 315.94 753.94 306.00 744.00
C 305.03 743.53 304.07 744.02 304.00 744.00 Z"/>
</g>
<g fill="#F10927" fill-opacity="0.38" stroke="None">
<path d="
M 342.00 773.00
C 346.58 775.85 349.86 778.98 355.00 781.00
C 353.80 775.94 345.08 773.90 342.00 773.00 Z"/>
</g>
<g fill="#EF0927" fill-opacity="0.33" stroke="None">
<path d="
M 657.00 788.00
C 662.50 787.47 672.36 780.78 676.00 777.00
C 672.37 777.55 658.76 783.74 657.00 788.00 Z"/>
</g>
<g fill="#F40926" fill-opacity="0.35" stroke="None">
<path d="
M 356.00 781.00
C 359.23 786.16 367.88 787.58 372.93 791.07 C 377.98 794.57 386.34 796.82 392.00 799.00
C 390.80 796.84 378.77 790.58 374.68 789.32 C 370.59 788.07 358.35 779.37 356.00 781.00 Z"/>
</g>
<g fill="#F20725" fill-opacity="0.35" stroke="None">
<path d="
M 594.00 811.00
C 593.87 811.04 594.00 812.00 594.00 812.00
C 603.03 813.41 618.96 805.10 626.92 801.92 C 634.89 798.75 651.43 795.31 656.00 788.00
C 645.26 789.76 636.27 798.03 625.68 800.68 C 615.08 803.32 604.69 808.63 594.00 811.00 Z"/>
</g>
<g fill="#F50928" fill-opacity="0.45" stroke="None">
<path d="
M 394.00 800.00
C 407.59 804.87 420.48 810.56 435.00 813.00
C 435.49 813.08 436.00 813.00 436.00 813.00
C 435.26 809.52 425.34 809.82 422.01 807.99 C 418.68 806.16 411.31 805.90 407.69 803.31 C 404.08 800.71 397.38 800.04 394.00 800.00 Z"/>
</g>
<g fill="#EF0725" fill-opacity="0.47" stroke="None">
<path d="
M 581.00 814.00
C 580.66 814.28 580.26 815.86 580.00 816.00
C 584.53 815.28 590.01 814.37 594.00 812.00
C 594.00 812.00 593.87 811.04 594.00 811.00
C 589.60 811.97 585.32 813.01 581.00 814.00 Z"/>
</g>
<g fill="#EF0923" fill-opacity="0.27" stroke="None">
<path d="
M 445.00 816.00
C 441.83 814.80 440.40 812.71 436.00 813.00
C 436.00 813.00 435.49 813.08 435.00 813.00
C 436.21 815.57 442.47 815.91 445.00 816.00 Z"/>
</g>
<g fill="#F40625" fill-opacity="0.62" stroke="None">
<path d="
M 570.00 816.00
C 570.36 816.00 572.70 817.01 573.00 817.00
C 575.38 816.42 577.58 816.39 580.00 816.00
C 580.26 815.86 580.66 814.28 581.00 814.00
C 577.38 814.83 573.59 815.31 570.00 816.00 Z"/>
</g>
<g fill="#F40827" fill-opacity="0.48" stroke="None">
<path d="
M 448.00 816.00
C 456.82 817.88 466.31 820.78 476.00 821.00
C 474.92 816.98 465.44 818.73 461.67 817.33 C 457.90 815.93 451.37 815.25 448.00 816.00 Z"/>
</g>
<g fill="#EE0725" fill-opacity="0.35" stroke="None">
<path d="
M 558.00 818.00
C 557.59 818.18 557.26 819.88 557.00 820.00
C 562.78 819.44 567.54 818.33 573.00 817.00
C 572.70 817.01 570.36 816.00 570.00 816.00
C 565.92 816.79 562.18 817.46 558.00 818.00 Z"/>
</g>
<g fill="#F40624" fill-opacity="0.57" stroke="None">
<path d="
M 527.00 821.00
C 529.43 821.24 533.93 821.96 536.00 822.00
C 543.20 821.30 549.94 820.68 557.00 820.00
C 557.26 819.88 557.59 818.18 558.00 818.00
C 547.83 819.32 537.39 820.60 527.00 821.00 Z"/>
</g>
<g fill="#F30625" fill-opacity="0.43" stroke="None">
<path d="
M 477.00 821.00
C 493.22 826.79 519.35 823.61 536.00 822.00
C 533.93 821.96 529.43 821.24 527.00 821.00
C 519.20 821.30 508.48 819.66 501.00 821.00 C 493.52 822.34 482.77 816.73 477.00 821.00 Z"/>
</g>
</svg>
