<svg xmlns="http://www.w3.org/2000/svg" xmlns:v="https://svgstorm.com"
viewBox = "0 0 1024 1024"
width="1024"
height="1024">
<g fill="None" fill-opacity="0.0" stroke="#000000" stroke-opacity="0.00" stroke-width="0.3"><path d="
M 0.00 1024.00
L 1024.00 1024.00
L 1024.00 0.00
L 0.00 0.00
L 0.00 1024.00
M 800.00 299.00
C 801.53 327.15 801.10 355.35 801.00 384.00 C 800.90 412.65 801.33 442.26 801.00 471.00 C 800.67 499.74 801.80 529.35 801.00 558.00 C 800.21 586.65 802.79 616.68 801.00 645.00 C 799.21 673.32 805.79 703.00 799.00 730.00
C 798.43 732.25 796.36 735.11 796.00 737.00
C 795.75 738.29 796.22 739.71 796.00 741.00
C 795.10 746.30 790.01 753.88 787.00 758.00
C 786.01 759.35 784.90 760.65 784.00 762.00
C 783.08 763.38 782.09 764.67 781.00 766.00
C 777.11 770.73 773.78 774.27 769.00 778.00
C 761.74 783.68 755.67 788.60 747.00 792.00
C 742.81 793.64 739.33 794.88 735.00 796.00
C 732.29 796.70 729.82 797.49 727.00 798.00
C 693.39 804.14 657.52 796.96 623.00 799.00 C 588.48 801.04 552.82 798.23 518.00 799.00 C 483.18 799.77 448.00 798.98 413.00 799.00 C 378.00 799.02 342.07 799.70 307.00 799.00
C 301.99 798.90 297.71 798.20 293.00 797.00
C 291.63 796.65 290.43 796.31 289.00 796.00
C 286.52 795.46 285.02 794.75 283.00 794.00
C 277.39 791.90 272.18 789.88 267.00 787.00
C 265.79 786.33 265.08 785.81 264.00 785.00
C 259.98 781.97 255.83 779.17 252.00 776.00
C 249.18 773.66 247.28 771.80 245.00 769.00
C 241.47 764.66 237.74 761.35 236.00 756.00
C 230.17 747.15 225.50 737.01 224.00 726.00
C 223.69 723.72 223.20 721.09 223.00 719.00
C 220.27 689.91 224.14 660.24 223.00 631.00 C 221.86 601.76 223.35 571.21 223.00 542.00 C 222.65 512.79 222.80 481.88 223.00 453.00 C 223.20 424.12 222.12 392.03 223.00 364.00 C 223.88 335.97 219.18 303.90 226.98 278.98 C 234.77 254.05 246.24 244.45 267.69 230.69 C 289.15 216.94 317.67 220.01 345.00 220.00 C 372.33 219.99 405.57 220.10 434.00 220.00 C 462.43 219.90 494.28 220.26 523.00 220.00 C 551.72 219.74 583.62 220.60 612.00 220.00 C 640.38 219.41 673.83 221.33 701.00 220.00 C 728.17 218.67 751.51 223.47 770.08 239.92 C 788.66 256.37 798.69 274.89 800.00 299.00 Z"/>
</g>
<g fill="None" fill-opacity="0.0" stroke="#F72235" stroke-opacity="0.99" stroke-width="0.3"><path d="
M 223.00 719.00
C 225.29 698.56 225.28 676.02 225.00 654.00 C 224.72 631.98 225.15 609.17 225.00 587.00 C 224.85 564.83 225.11 542.21 225.00 520.00
C 227.10 527.80 225.63 543.00 226.00 551.00 C 226.37 559.00 224.73 573.28 232.00 568.00
C 231.58 571.08 233.60 573.99 237.00 573.00
C 232.66 571.50 236.50 570.59 238.00 568.00
C 238.83 570.59 237.63 572.79 240.00 575.00
C 241.16 573.08 242.95 573.07 245.00 574.00
C 245.08 569.73 255.78 566.12 255.00 572.00
C 261.90 569.22 264.14 570.97 270.00 569.00
C 268.76 576.08 278.35 568.01 276.00 575.00
C 280.26 574.87 283.20 571.80 288.00 572.00
C 286.93 569.22 288.68 565.39 288.00 562.00
C 292.04 561.16 292.18 567.15 294.00 562.00
C 293.86 569.86 294.20 578.44 295.00 586.00 C 295.80 593.56 292.23 602.82 298.00 608.00
C 296.81 607.39 296.24 605.11 296.00 604.00
C 294.84 598.57 296.39 591.48 296.00 586.00 C 295.61 580.52 295.87 573.20 296.00 568.00 C 296.13 562.80 295.27 554.38 296.00 550.00 C 296.73 545.62 293.42 534.71 298.00 533.00
C 299.87 529.26 311.33 533.01 316.00 532.00 C 320.67 530.99 329.26 532.43 335.00 532.00 C 340.74 531.57 348.83 532.20 355.00 532.00 C 361.17 531.80 367.57 532.07 374.00 532.00 C 380.43 531.93 387.39 532.00 394.00 532.00 C 400.61 532.00 406.12 531.92 413.00 532.00 C 419.88 532.08 425.67 531.80 433.00 532.00 C 440.33 532.20 443.55 531.52 452.00 532.00 C 460.45 532.48 461.38 530.98 472.00 532.00 C 482.62 533.02 500.68 530.52 511.00 532.00 C 521.32 533.48 539.88 527.94 545.19 534.25
C 556.09 550.31 569.21 559.95 588.00 563.00
C 592.39 562.88 600.76 562.99 605.00 563.00
C 645.64 555.72 666.97 509.53 644.00 475.00
C 640.35 471.38 634.49 465.32 632.00 462.00
C 622.85 454.33 613.79 450.92 602.00 449.00
C 596.97 449.22 590.10 449.75 585.00 450.00
C 570.41 453.44 559.46 459.78 550.00 472.00
C 547.90 476.55 545.43 481.07 538.00 480.00 C 530.57 478.93 523.41 480.48 516.00 480.00 C 508.59 479.52 501.45 480.21 494.00 480.00 C 486.55 479.79 478.44 480.10 471.00 480.00 C 463.56 479.90 456.38 480.05 449.00 480.00 C 441.62 479.95 434.36 480.03 427.00 480.00 C 419.64 479.97 412.35 480.04 405.00 480.00 C 397.65 479.96 389.24 480.06 382.00 480.00 C 374.76 479.94 366.93 480.13 360.00 480.00 C 353.07 479.87 344.35 480.29 338.00 480.00 C 331.65 479.71 321.12 480.65 316.00 480.00 C 310.88 479.35 296.04 482.70 296.00 477.00
C 291.27 472.42 296.48 459.98 295.00 453.00 C 293.52 446.02 295.68 435.85 295.00 428.00 C 294.32 420.15 295.41 410.22 295.00 402.00 C 294.59 393.78 295.39 385.42 295.00 377.00 C 294.61 368.58 295.62 359.54 295.00 351.00 C 294.38 342.46 296.31 334.71 295.00 326.00 C 293.69 317.29 296.38 310.98 300.00 305.00
C 302.52 299.66 307.01 295.07 313.00 294.00
C 316.81 291.59 325.92 291.80 334.00 292.00 C 342.08 292.20 351.68 291.91 360.00 292.00 C 368.32 292.09 376.55 291.96 385.00 292.00 C 393.45 292.04 402.46 291.98 411.00 292.00 C 419.54 292.02 428.47 291.99 437.00 292.00 C 445.53 292.01 453.46 292.00 462.00 292.00 C 470.54 292.00 479.43 292.00 488.00 292.00 C 496.57 292.00 505.46 292.00 514.00 292.00 C 522.54 292.00 530.47 292.00 539.00 292.00 C 547.53 292.00 556.48 292.01 565.00 292.00 C 573.52 291.99 581.47 292.02 590.00 292.00 C 598.53 291.98 607.44 292.03 616.00 292.00 C 624.56 291.97 633.49 292.07 642.00 292.00 C 650.51 291.93 658.56 292.17 667.00 292.00 C 675.44 291.83 684.65 292.36 693.00 292.00 C 701.35 291.64 709.89 291.56 714.00 295.00
C 722.58 297.79 722.39 305.09 727.00 311.00
C 727.21 311.27 727.78 311.70 728.00 312.00
C 733.48 319.43 727.19 334.33 729.00 344.00 C 730.81 353.67 728.18 366.60 729.00 377.00 C 729.82 387.40 728.63 399.27 729.00 410.00 C 729.37 420.73 728.83 432.12 729.00 443.00 C 729.17 453.88 728.92 465.05 729.00 476.00 C 729.08 486.95 728.97 498.02 729.00 509.00 C 729.03 519.98 728.98 531.00 729.00 542.00 C 729.02 553.00 728.99 563.98 729.00 575.00 C 729.01 586.02 729.00 596.94 729.00 608.00 C 729.00 619.06 729.00 629.86 729.00 641.00 C 729.00 652.14 729.00 663.81 729.00 675.00
C 730.89 655.53 729.67 634.21 730.00 614.00
C 732.24 618.09 730.40 624.16 731.00 629.00
C 734.08 629.63 734.40 631.55 736.00 628.00
C 737.55 631.17 737.67 631.59 735.00 634.00
C 737.86 632.89 741.09 634.72 740.00 630.00
C 743.27 632.40 744.01 630.02 743.00 627.00
C 745.73 626.61 746.37 629.93 748.00 631.00
C 747.38 627.97 752.63 629.11 752.00 626.00
C 755.01 630.91 762.86 622.23 763.00 629.00
C 767.44 625.29 776.59 622.80 781.00 630.00
C 783.04 628.40 787.72 624.78 786.00 629.00
C 789.55 628.96 789.23 626.07 791.00 630.00
C 791.86 627.73 793.68 625.26 792.00 623.00
C 795.03 624.76 793.68 625.22 797.00 625.00
C 797.00 620.33 797.00 615.67 797.00 611.00
C 800.00 636.60 796.00 665.48 799.00 691.00
C 799.00 625.92 797.21 560.00 799.00 495.00 C 800.79 430.00 793.81 362.93 800.00 299.00
C 798.69 274.89 788.66 256.37 770.08 239.92 C 751.51 223.47 728.17 218.67 701.00 220.00 C 673.83 221.33 640.38 219.41 612.00 220.00 C 583.62 220.60 551.72 219.74 523.00 220.00 C 494.28 220.26 462.43 219.90 434.00 220.00 C 405.57 220.10 372.33 219.99 345.00 220.00 C 317.67 220.01 289.15 216.94 267.69 230.69 C 246.24 244.45 234.77 254.05 226.98 278.98 C 219.18 303.90 223.88 335.97 223.00 364.00 C 222.12 392.03 223.20 424.12 223.00 453.00 C 222.80 481.88 222.65 512.79 223.00 542.00 C 223.35 571.21 221.86 601.76 223.00 631.00 C 224.14 660.24 220.27 689.91 223.00 719.00
M 575.00 513.00
C 574.01 511.34 571.71 504.71 573.00 500.00
C 574.00 500.00 575.00 500.00 576.00 500.00
C 580.02 486.58 597.51 480.78 608.30 489.71 C 619.08 498.63 621.06 514.84 607.92 523.92 C 594.78 532.99 582.04 524.74 575.00 513.00 Z"/>
</g>
<g fill="None" fill-opacity="0.0" stroke="#FD3240" stroke-opacity="0.60" stroke-width="0.3"><path d="
M 313.00 294.00
C 331.44 290.70 351.22 295.46 370.00 294.00 C 388.78 292.54 408.03 294.58 427.00 294.00 C 445.97 293.42 465.97 294.13 485.00 294.00 C 504.03 293.87 523.00 293.74 542.00 294.00 C 561.00 294.26 581.15 293.21 600.00 294.00 C 618.85 294.79 638.52 292.10 657.00 294.00 C 675.48 295.90 696.61 289.35 714.00 295.00
C 709.89 291.56 701.35 291.64 693.00 292.00 C 684.65 292.36 675.44 291.83 667.00 292.00 C 658.56 292.17 650.51 291.93 642.00 292.00 C 633.49 292.07 624.56 291.97 616.00 292.00 C 607.44 292.03 598.53 291.98 590.00 292.00 C 581.47 292.02 573.52 291.99 565.00 292.00 C 556.48 292.01 547.53 292.00 539.00 292.00 C 530.47 292.00 522.54 292.00 514.00 292.00 C 505.46 292.00 496.57 292.00 488.00 292.00 C 479.43 292.00 470.54 292.00 462.00 292.00 C 453.46 292.00 445.53 292.01 437.00 292.00 C 428.47 291.99 419.54 292.02 411.00 292.00 C 402.46 291.98 393.45 292.04 385.00 292.00 C 376.55 291.96 368.32 292.09 360.00 292.00 C 351.68 291.91 342.08 292.20 334.00 292.00 C 325.92 291.80 316.81 291.59 313.00 294.00 Z"/>
</g>
<g fill="None" fill-opacity="0.0" stroke="#000000" stroke-opacity="0.00" stroke-width="0.3"><path d="
M 300.00 305.00
C 292.20 321.49 298.78 341.49 297.00 360.00 C 295.22 378.51 298.32 399.02 297.00 418.00 C 295.68 436.98 298.73 457.92 297.00 477.00
C 304.26 482.38 318.46 476.29 328.00 478.00 C 337.54 479.71 350.77 477.21 361.00 478.00 C 371.23 478.79 382.44 477.66 393.00 478.00 C 403.56 478.34 415.32 477.85 426.00 478.00 C 436.68 478.15 447.30 477.96 458.00 478.00 C 468.70 478.04 480.37 478.04 491.00 478.00 C 501.63 477.96 512.60 478.15 523.00 478.00 C 533.40 477.85 543.43 480.50 550.00 472.00
C 559.46 459.78 570.41 453.44 585.00 450.00
C 586.43 449.66 588.01 449.08 590.00 449.00
C 594.00 448.42 598.05 448.36 602.00 449.00
C 613.79 450.92 622.85 454.33 632.00 462.00
C 636.84 466.06 640.52 469.77 644.00 475.00
C 666.97 509.53 645.64 555.72 605.00 563.00
C 599.55 563.98 593.38 563.87 588.00 563.00
C 569.21 559.95 556.09 550.31 545.00 535.00
C 533.76 529.38 517.70 535.92 505.00 534.00 C 492.30 532.08 477.22 534.96 464.00 534.00 C 450.78 533.04 436.44 534.65 423.00 534.00 C 409.56 533.35 395.50 534.78 382.00 534.00 C 368.50 533.22 354.46 535.42 341.00 534.00 C 327.54 532.58 312.18 536.93 299.00 534.00
C 296.13 540.20 296.50 550.01 297.00 557.00 C 297.50 563.99 295.70 575.87 297.00 582.00 C 298.30 588.13 293.23 603.02 299.00 606.00
C 309.67 609.31 322.75 604.53 334.00 606.00 C 345.25 607.47 357.44 605.38 369.00 606.00 C 380.56 606.62 393.34 605.78 405.00 606.00 C 416.66 606.22 428.35 606.05 440.00 606.00 C 451.65 605.95 463.04 605.53 474.00 608.00
C 477.91 608.88 477.55 608.73 480.00 611.00
C 481.42 611.27 481.01 611.51 482.00 612.00
C 489.00 615.48 495.22 623.86 501.00 629.00
C 505.57 633.06 510.05 637.42 514.00 642.00
C 523.11 652.56 534.06 663.06 544.00 673.00
C 548.73 677.73 553.96 682.69 559.00 687.00
C 565.40 692.47 571.37 698.85 577.00 705.00
C 582.44 710.07 587.37 717.76 594.00 722.00
C 595.08 722.69 596.09 723.38 597.00 724.00
C 608.32 727.66 622.96 722.71 635.00 724.00 C 647.04 725.29 660.67 724.22 673.00 724.00 C 685.33 723.78 699.73 725.75 712.00 724.00
C 722.20 722.54 722.33 715.05 727.00 708.00
C 729.04 695.19 726.10 682.04 727.00 669.00 C 727.90 655.96 726.59 642.17 727.00 629.00 C 727.41 615.83 726.80 602.18 727.00 589.00 C 727.20 575.82 726.88 563.19 727.00 550.00 C 727.12 536.81 726.89 523.22 727.00 510.00 C 727.11 496.78 726.82 483.17 727.00 470.00 C 727.18 456.83 726.63 444.12 727.00 431.00 C 727.37 417.88 726.20 404.03 727.00 391.00 C 727.80 377.97 725.25 363.75 727.00 351.00 C 728.75 338.25 723.13 323.07 727.00 311.00
C 722.39 305.09 722.58 297.79 714.00 295.00
C 696.61 289.35 675.48 295.90 657.00 294.00 C 638.52 292.10 618.85 294.79 600.00 294.00 C 581.15 293.21 561.00 294.26 542.00 294.00 C 523.00 293.74 504.03 293.87 485.00 294.00 C 465.97 294.13 445.97 293.42 427.00 294.00 C 408.03 294.58 388.78 292.54 370.00 294.00 C 351.22 295.46 331.44 290.70 313.00 294.00
C 307.01 295.07 302.52 299.66 300.00 305.00 Z"/>
</g>
<g fill="None" fill-opacity="0.0" stroke="#FC1D36" stroke-opacity="0.45" stroke-width="0.3"><path d="
M 799.00 691.00
C 799.00 699.35 798.73 708.42 798.00 716.00
C 797.74 718.65 799.37 722.04 797.22 724.22 C 795.07 726.40 799.11 731.78 799.00 730.00
C 805.79 703.00 799.21 673.32 801.00 645.00 C 802.79 616.68 800.21 586.65 801.00 558.00 C 801.80 529.35 800.67 499.74 801.00 471.00 C 801.33 442.26 800.90 412.65 801.00 384.00 C 801.10 355.35 801.53 327.15 800.00 299.00
C 793.81 362.93 800.79 430.00 799.00 495.00 C 797.21 560.00 799.00 625.92 799.00 691.00 Z"/>
</g>
<g fill="None" fill-opacity="0.0" stroke="#FE283C" stroke-opacity="0.46" stroke-width="0.3"><path d="
M 296.00 477.00
C 296.26 477.25 297.00 477.00 297.00 477.00
C 298.73 457.92 295.68 436.98 297.00 418.00 C 298.32 399.02 295.22 378.51 297.00 360.00 C 298.78 341.49 292.20 321.49 300.00 305.00
C 296.38 310.98 293.69 317.29 295.00 326.00 C 296.31 334.71 294.38 342.46 295.00 351.00 C 295.62 359.54 294.61 368.58 295.00 377.00 C 295.39 385.42 294.59 393.78 295.00 402.00 C 295.41 410.22 294.32 420.15 295.00 428.00 C 295.68 435.85 293.52 446.02 295.00 453.00 C 296.48 459.98 291.27 472.42 296.00 477.00 Z"/>
</g>
<g fill="None" fill-opacity="0.0" stroke="#FC1B35" stroke-opacity="0.06" stroke-width="0.3"><path d="
M 727.00 708.00
C 727.18 707.73 727.78 707.30 728.00 707.00
C 731.71 681.24 726.45 654.05 728.00 628.00 C 729.55 601.95 727.58 575.17 728.00 549.00 C 728.42 522.83 728.42 496.17 728.00 470.00 C 727.58 443.83 729.55 417.05 728.00 391.00 C 726.45 364.95 731.71 337.76 728.00 312.00
C 727.78 311.70 727.21 311.27 727.00 311.00
C 723.13 323.07 728.75 338.25 727.00 351.00 C 725.25 363.75 727.80 377.97 727.00 391.00 C 726.20 404.03 727.37 417.88 727.00 431.00 C 726.63 444.12 727.18 456.83 727.00 470.00 C 726.82 483.17 727.11 496.78 727.00 510.00 C 726.89 523.22 727.12 536.81 727.00 550.00 C 726.88 563.19 727.20 575.82 727.00 589.00 C 726.80 602.18 727.41 615.83 727.00 629.00 C 726.59 642.17 727.90 655.96 727.00 669.00 C 726.10 682.04 729.04 695.19 727.00 708.00 Z"/>
</g>
<g fill="None" fill-opacity="0.0" stroke="#FF1F39" stroke-opacity="0.87" stroke-width="0.3"><path d="
M 728.00 707.00
C 730.74 703.29 728.56 696.95 729.00 692.00 C 729.44 687.05 729.00 680.13 729.00 675.00
C 729.00 663.81 729.00 652.14 729.00 641.00 C 729.00 629.86 729.00 619.06 729.00 608.00 C 729.00 596.94 729.01 586.02 729.00 575.00 C 728.99 563.98 729.02 553.00 729.00 542.00 C 728.98 531.00 729.03 519.98 729.00 509.00 C 728.97 498.02 729.08 486.95 729.00 476.00 C 728.92 465.05 729.17 453.88 729.00 443.00 C 728.83 432.12 729.37 420.73 729.00 410.00 C 728.63 399.27 729.82 387.40 729.00 377.00 C 728.18 366.60 730.81 353.67 729.00 344.00 C 727.19 334.33 733.48 319.43 728.00 312.00
C 731.71 337.76 726.45 364.95 728.00 391.00 C 729.55 417.05 727.58 443.83 728.00 470.00 C 728.42 496.17 728.42 522.83 728.00 549.00 C 727.58 575.17 729.55 601.95 728.00 628.00 C 726.45 654.05 731.71 681.24 728.00 707.00 Z"/>
</g>
<g fill="None" fill-opacity="0.0" stroke="#FE223A" stroke-opacity="0.02" stroke-width="0.3"><path d="
M 590.00 449.00
C 593.99 448.84 598.00 449.12 602.00 449.00
C 598.05 448.36 594.00 448.42 590.00 449.00 Z"/>
</g>
<g fill="None" fill-opacity="0.0" stroke="#F82035" stroke-opacity="0.44" stroke-width="0.3"><path d="
M 585.00 450.00
C 590.10 449.75 596.97 449.22 602.00 449.00
C 598.00 449.12 593.99 448.84 590.00 449.00
C 588.01 449.08 586.43 449.66 585.00 450.00 Z"/>
</g>
<g fill="None" fill-opacity="0.0" stroke="#FA1D35" stroke-opacity="0.43" stroke-width="0.3"><path d="
M 644.00 475.00
C 640.52 469.77 636.84 466.06 632.00 462.00
C 634.49 465.32 640.35 471.38 644.00 475.00 Z"/>
</g>
<g fill="None" fill-opacity="0.0" stroke="#EF1D34" stroke-opacity="0.55" stroke-width="0.3"><path d="
M 297.00 477.00
C 297.00 477.00 296.26 477.25 296.00 477.00
C 296.04 482.70 310.88 479.35 316.00 480.00 C 321.12 480.65 331.65 479.71 338.00 480.00 C 344.35 480.29 353.07 479.87 360.00 480.00 C 366.93 480.13 374.76 479.94 382.00 480.00 C 389.24 480.06 397.65 479.96 405.00 480.00 C 412.35 480.04 419.64 479.97 427.00 480.00 C 434.36 480.03 441.62 479.95 449.00 480.00 C 456.38 480.05 463.56 479.90 471.00 480.00 C 478.44 480.10 486.55 479.79 494.00 480.00 C 501.45 480.21 508.59 479.52 516.00 480.00 C 523.41 480.48 530.57 478.93 538.00 480.00 C 545.43 481.07 547.90 476.55 550.00 472.00
C 543.43 480.50 533.40 477.85 523.00 478.00 C 512.60 478.15 501.63 477.96 491.00 478.00 C 480.37 478.04 468.70 478.04 458.00 478.00 C 447.30 477.96 436.68 478.15 426.00 478.00 C 415.32 477.85 403.56 478.34 393.00 478.00 C 382.44 477.66 371.23 478.79 361.00 478.00 C 350.77 477.21 337.54 479.71 328.00 478.00 C 318.46 476.29 304.26 482.38 297.00 477.00 Z"/>
</g>
<g fill="None" fill-opacity="0.0" stroke="#000000" stroke-opacity="0.00" stroke-width="0.3"><path d="
M 576.00 500.00
C 574.90 503.67 574.17 508.99 575.00 513.00
C 582.04 524.74 594.78 532.99 607.92 523.92 C 621.06 514.84 619.08 498.63 608.30 489.71 C 597.51 480.78 580.02 486.58 576.00 500.00 Z"/>
</g>
<g fill="None" fill-opacity="0.0" stroke="#FB1B35" stroke-opacity="0.38" stroke-width="0.3"><path d="
M 575.00 513.00
C 574.17 508.99 574.90 503.67 576.00 500.00
C 575.00 500.00 574.00 500.00 573.00 500.00
C 571.71 504.71 574.01 511.34 575.00 513.00 Z"/>
</g>
<g fill="None" fill-opacity="0.0" stroke="#D7132F" stroke-opacity="1.00" stroke-width="0.3"><path d="
M 223.00 719.00
C 223.20 721.09 223.69 723.72 224.00 726.00
C 224.19 725.59 225.88 725.26 226.00 725.00
C 225.36 719.57 228.15 713.71 227.00 722.00
C 228.47 720.21 231.08 718.95 231.00 716.00
C 233.76 720.67 239.22 720.11 246.00 718.00
C 248.24 722.29 250.14 720.36 253.00 724.00
C 253.50 715.30 263.08 723.78 263.00 718.00
C 271.14 722.79 281.27 717.75 290.00 721.00
C 290.57 724.66 286.31 720.59 286.00 724.00
C 290.49 727.23 292.63 718.96 296.00 724.00
C 296.93 720.77 296.88 718.31 296.00 715.00
C 307.68 731.56 326.90 726.85 346.00 727.00 C 365.10 727.15 388.50 727.31 408.00 727.00 C 427.50 726.69 450.88 727.97 470.00 727.00 C 489.12 726.03 510.00 731.94 524.00 721.00
C 517.34 726.10 513.60 714.66 508.00 712.00
C 509.64 713.64 518.11 720.88 518.00 723.00
C 518.14 728.47 503.48 725.51 498.00 726.00 C 492.52 726.49 480.73 725.77 474.00 726.00 C 467.27 726.23 458.36 725.90 451.00 726.00 C 443.64 726.10 434.61 725.96 427.00 726.00 C 419.39 726.04 411.74 725.99 404.00 726.00 C 396.26 726.01 387.78 726.02 380.00 726.00 C 372.22 725.98 364.77 726.06 357.00 726.00 C 349.23 725.94 340.72 726.13 333.00 726.00 C 325.28 725.87 317.23 727.18 311.00 724.00
C 304.09 720.47 299.55 716.25 297.00 709.00
C 294.73 702.54 296.01 694.44 296.00 687.00 C 295.99 679.56 295.32 670.52 296.00 663.00
C 292.68 659.78 305.43 657.99 310.00 659.00 C 314.57 660.01 324.15 658.56 330.00 659.00 C 335.85 659.44 344.65 658.79 351.00 659.00 C 357.35 659.21 364.44 658.89 371.00 659.00 C 377.56 659.11 384.30 658.92 391.00 659.00 C 397.70 659.08 405.27 658.90 412.00 659.00 C 418.73 659.10 425.31 658.80 432.00 659.00 C 438.69 659.20 445.71 658.17 452.00 660.00
C 456.66 661.36 471.33 673.78 471.00 678.00
C 471.27 678.21 471.75 678.75 472.00 679.00
C 473.28 678.90 474.33 679.69 476.00 681.00
C 485.19 688.19 493.80 697.80 502.00 706.00
C 504.36 707.53 510.08 713.29 514.00 711.00
C 514.56 713.85 516.35 714.90 518.00 717.00
C 520.25 712.77 521.65 719.17 524.00 720.00
C 521.73 715.05 528.60 717.66 531.00 715.00
C 529.97 717.42 530.10 719.53 531.00 722.00
C 534.65 717.24 540.62 715.47 546.23 716.79 C 551.84 718.10 559.55 710.97 563.00 720.00
C 566.58 716.32 571.41 721.74 576.00 718.00
C 577.63 720.40 577.81 719.56 576.00 723.00
C 579.58 718.04 585.45 722.92 584.00 716.00
C 591.10 723.26 596.31 727.56 607.00 727.00 C 617.69 726.44 630.08 727.06 641.00 727.00 C 651.92 726.94 664.12 726.59 675.00 727.00 C 685.88 727.41 698.46 725.86 709.00 727.00 C 719.54 728.14 723.98 713.87 730.00 719.00
C 729.12 713.20 731.61 715.76 734.77 716.58 C 737.94 717.39 744.20 713.34 748.00 713.00
C 745.79 717.47 751.53 714.42 754.00 717.00
C 750.28 712.09 755.17 716.13 758.00 716.00
C 758.26 710.95 760.88 713.82 765.25 713.80 C 769.62 713.78 773.75 713.45 777.00 718.00
C 778.85 716.42 782.61 713.00 782.00 718.00
C 786.03 715.39 791.50 718.28 793.00 713.00
C 794.31 714.73 795.62 716.61 797.00 718.00
C 796.72 717.28 797.14 714.04 798.00 716.00
C 798.73 708.42 799.00 699.35 799.00 691.00
C 796.00 665.48 800.00 636.60 797.00 611.00
C 797.00 615.67 797.00 620.33 797.00 625.00
C 793.68 625.22 795.03 624.76 792.00 623.00
C 793.68 625.26 791.86 627.73 791.00 630.00
C 789.23 626.07 789.55 628.96 786.00 629.00
C 787.72 624.78 783.04 628.40 781.00 630.00
C 776.59 622.80 767.44 625.29 763.00 629.00
C 762.86 622.23 755.01 630.91 752.00 626.00
C 752.63 629.11 747.38 627.97 748.00 631.00
C 746.37 629.93 745.73 626.61 743.00 627.00
C 744.01 630.02 743.27 632.40 740.00 630.00
C 741.09 634.72 737.86 632.89 735.00 634.00
C 737.67 631.59 737.55 631.17 736.00 628.00
C 734.40 631.55 734.08 629.63 731.00 629.00
C 730.40 624.16 732.24 618.09 730.00 614.00
C 729.67 634.21 730.89 655.53 729.00 675.00
C 729.00 680.13 729.44 687.05 729.00 692.00 C 728.56 696.95 730.74 703.29 728.00 707.00
C 727.78 707.30 727.18 707.73 727.00 708.00
C 722.33 715.05 722.20 722.54 712.00 724.00
C 702.68 727.98 686.95 726.13 675.00 726.00 C 663.05 725.87 646.72 727.34 635.00 726.00 C 623.28 724.66 606.36 730.37 597.00 724.00
C 596.09 723.38 595.08 722.69 594.00 722.00
C 591.71 721.49 585.65 716.89 581.75 712.25 C 577.85 707.60 572.94 703.61 568.75 699.25 C 564.56 694.89 560.14 690.33 555.75 686.25 C 551.37 682.16 546.29 676.53 544.00 673.00
C 534.06 663.06 523.11 652.56 514.00 642.00
C 511.74 640.24 505.99 636.24 503.00 633.00
C 496.67 628.91 485.69 618.47 482.00 612.00
C 481.01 611.51 481.42 611.27 480.00 611.00
C 477.98 610.62 475.67 610.47 474.00 609.00
C 466.38 610.40 458.11 606.87 450.00 608.00 C 441.89 609.13 433.25 607.55 425.00 608.00 C 416.75 608.45 408.32 607.92 400.00 608.00 C 391.68 608.08 382.28 608.21 374.00 608.00 C 365.72 607.79 357.06 608.68 349.00 608.00 C 340.94 607.32 331.66 609.61 324.00 608.00 C 316.34 606.39 304.77 611.45 298.00 608.00
C 292.23 602.82 295.80 593.56 295.00 586.00 C 294.20 578.44 293.86 569.86 294.00 562.00
C 292.18 567.15 292.04 561.16 288.00 562.00
C 288.68 565.39 286.93 569.22 288.00 572.00
C 283.20 571.80 280.26 574.87 276.00 575.00
C 278.35 568.01 268.76 576.08 270.00 569.00
C 264.14 570.97 261.90 569.22 255.00 572.00
C 255.78 566.12 245.08 569.73 245.00 574.00
C 242.95 573.07 241.16 573.08 240.00 575.00
C 237.63 572.79 238.83 570.59 238.00 568.00
C 236.50 570.59 232.66 571.50 237.00 573.00
C 233.60 573.99 231.58 571.08 232.00 568.00
C 224.73 573.28 226.37 559.00 226.00 551.00 C 225.63 543.00 227.10 527.80 225.00 520.00
C 225.11 542.21 224.85 564.83 225.00 587.00 C 225.15 609.17 224.72 631.98 225.00 654.00 C 225.28 676.02 225.29 698.56 223.00 719.00 Z"/>
</g>
<g fill="None" fill-opacity="0.0" stroke="#FE1B38" stroke-opacity="0.49" stroke-width="0.3"><path d="
M 298.00 533.00
C 298.24 532.91 298.77 533.95 299.00 534.00
C 312.18 536.93 327.54 532.58 341.00 534.00 C 354.46 535.42 368.50 533.22 382.00 534.00 C 395.50 534.78 409.56 533.35 423.00 534.00 C 436.44 534.65 450.78 533.04 464.00 534.00 C 477.22 534.96 492.30 532.08 505.00 534.00 C 517.70 535.92 533.76 529.38 545.00 535.00
C 539.88 527.94 521.32 533.48 511.00 532.00 C 500.68 530.52 482.62 533.02 472.00 532.00 C 461.38 530.98 460.45 532.48 452.00 532.00 C 443.55 531.52 440.33 532.20 433.00 532.00 C 425.67 531.80 419.88 532.08 413.00 532.00 C 406.12 531.92 400.61 532.00 394.00 532.00 C 387.39 532.00 380.43 531.93 374.00 532.00 C 367.57 532.07 361.17 531.80 355.00 532.00 C 348.83 532.20 340.74 531.57 335.00 532.00 C 329.26 532.43 320.67 530.99 316.00 532.00 C 311.33 533.01 299.87 529.26 298.00 533.00 Z"/>
</g>
<g fill="None" fill-opacity="0.0" stroke="#FC1833" stroke-opacity="0.08" stroke-width="0.3"><path d="
M 296.00 604.00
C 296.26 604.53 298.43 605.82 299.00 606.00
C 293.23 603.02 298.30 588.13 297.00 582.00 C 295.70 575.87 297.50 563.99 297.00 557.00 C 296.50 550.01 296.13 540.20 299.00 534.00
C 298.77 533.95 298.24 532.91 298.00 533.00
C 293.42 534.71 296.73 545.62 296.00 550.00 C 295.27 554.38 296.13 562.80 296.00 568.00 C 295.87 573.20 295.61 580.52 296.00 586.00 C 296.39 591.48 294.84 598.57 296.00 604.00 Z"/>
</g>
<g fill="None" fill-opacity="0.0" stroke="#FD1837" stroke-opacity="0.33" stroke-width="0.3"><path d="
M 588.00 563.00
C 593.38 563.87 599.55 563.98 605.00 563.00
C 600.76 562.99 592.39 562.88 588.00 563.00 Z"/>
</g>
<g fill="None" fill-opacity="0.0" stroke="#F91839" stroke-opacity="0.56" stroke-width="0.3"><path d="
M 298.00 608.00
C 304.77 611.45 316.34 606.39 324.00 608.00 C 331.66 609.61 340.94 607.32 349.00 608.00 C 357.06 608.68 365.72 607.79 374.00 608.00 C 382.28 608.21 391.68 608.08 400.00 608.00 C 408.32 607.92 416.75 608.45 425.00 608.00 C 433.25 607.55 441.89 609.13 450.00 608.00 C 458.11 606.87 466.38 610.40 474.00 609.00
C 473.75 608.78 474.00 608.00 474.00 608.00
C 463.04 605.53 451.65 605.95 440.00 606.00 C 428.35 606.05 416.66 606.22 405.00 606.00 C 393.34 605.78 380.56 606.62 369.00 606.00 C 357.44 605.38 345.25 607.47 334.00 606.00 C 322.75 604.53 309.67 609.31 299.00 606.00
C 298.43 605.82 296.26 604.53 296.00 604.00
C 296.24 605.11 296.81 607.39 298.00 608.00 Z"/>
</g>
<g fill="None" fill-opacity="0.0" stroke="#FB1231" stroke-opacity="0.35" stroke-width="0.3"><path d="
M 474.00 609.00
C 475.67 610.47 477.98 610.62 480.00 611.00
C 477.55 608.73 477.91 608.88 474.00 608.00
C 474.00 608.00 473.75 608.78 474.00 609.00 Z"/>
</g>
<g fill="None" fill-opacity="0.0" stroke="#F61335" stroke-opacity="0.58" stroke-width="0.3"><path d="
M 503.00 633.00
C 502.03 631.95 500.85 628.80 501.00 629.00
C 495.22 623.86 489.00 615.48 482.00 612.00
C 485.69 618.47 496.67 628.91 503.00 633.00 Z"/>
</g>
<g fill="None" fill-opacity="0.0" stroke="#E21531" stroke-opacity="0.22" stroke-width="0.3"><path d="
M 503.00 633.00
C 505.99 636.24 511.74 640.24 514.00 642.00
C 510.05 637.42 505.57 633.06 501.00 629.00
C 500.85 628.80 502.03 631.95 503.00 633.00 Z"/>
</g>
<g fill="None" fill-opacity="0.0" stroke="#F01235" stroke-opacity="0.74" stroke-width="0.3"><path d="
M 296.00 663.00
C 296.00 662.96 297.00 663.00 297.00 663.00
C 299.58 657.33 313.46 662.19 320.00 661.00 C 326.54 659.81 338.33 661.56 346.00 661.00 C 353.67 660.44 363.87 661.31 372.00 661.00 C 380.13 660.69 388.63 661.24 397.00 661.00 C 405.37 660.76 414.50 661.32 423.00 661.00 C 431.50 660.68 440.49 661.62 449.00 661.00
C 449.20 660.99 451.86 659.99 452.00 660.00
C 445.71 658.17 438.69 659.20 432.00 659.00 C 425.31 658.80 418.73 659.10 412.00 659.00 C 405.27 658.90 397.70 659.08 391.00 659.00 C 384.30 658.92 377.56 659.11 371.00 659.00 C 364.44 658.89 357.35 659.21 351.00 659.00 C 344.65 658.79 335.85 659.44 330.00 659.00 C 324.15 658.56 314.57 660.01 310.00 659.00 C 305.43 657.99 292.68 659.78 296.00 663.00 Z"/>
</g>
<g fill="None" fill-opacity="0.0" stroke="#F01234" stroke-opacity="0.49" stroke-width="0.3"><path d="
M 449.00 661.00
C 449.65 661.11 451.95 661.74 453.00 662.00
C 458.16 663.30 462.36 670.36 466.00 674.00
C 467.59 675.36 469.40 676.75 471.00 678.00
C 471.33 673.78 456.66 661.36 452.00 660.00
C 451.86 659.99 449.20 660.99 449.00 661.00 Z"/>
</g>
<g fill="None" fill-opacity="0.0" stroke="#000000" stroke-opacity="0.00" stroke-width="0.3"><path d="
M 297.00 663.00
C 298.33 677.81 293.99 694.48 297.00 709.00
C 299.55 716.25 304.09 720.47 311.00 724.00
C 327.35 727.33 345.27 722.49 362.00 724.00 C 378.73 725.51 396.08 723.30 413.00 724.00 C 429.92 724.70 446.93 723.64 464.00 724.00 C 481.07 724.36 498.87 723.73 516.00 724.00
C 502.78 707.25 485.83 693.49 472.00 679.00
C 471.75 678.75 471.27 678.21 471.00 678.00
C 469.40 676.75 467.59 675.36 466.00 674.00
C 462.37 670.90 457.22 663.45 453.00 662.00
C 451.95 661.74 449.65 661.11 449.00 661.00
C 440.49 661.62 431.50 660.68 423.00 661.00 C 414.50 661.32 405.37 660.76 397.00 661.00 C 388.63 661.24 380.13 660.69 372.00 661.00 C 363.87 661.31 353.67 660.44 346.00 661.00 C 338.33 661.56 326.54 659.81 320.00 661.00 C 313.46 662.19 299.58 657.33 297.00 663.00 Z"/>
</g>
<g fill="None" fill-opacity="0.0" stroke="#FD033B" stroke-opacity="0.02" stroke-width="0.3"><path d="
M 466.00 674.00
C 462.36 670.36 458.16 663.30 453.00 662.00
C 457.22 663.45 462.37 670.90 466.00 674.00 Z"/>
</g>
<g fill="None" fill-opacity="0.0" stroke="#ED0D2E" stroke-opacity="0.09" stroke-width="0.3"><path d="
M 297.00 709.00
C 293.99 694.48 298.33 677.81 297.00 663.00
C 297.00 663.00 296.00 662.96 296.00 663.00
C 295.32 670.52 295.99 679.56 296.00 687.00 C 296.01 694.44 294.73 702.54 297.00 709.00 Z"/>
</g>
<g fill="None" fill-opacity="0.0" stroke="#EC1032" stroke-opacity="0.47" stroke-width="0.3"><path d="
M 594.00 722.00
C 587.37 717.76 582.44 710.07 577.00 705.00
C 570.84 699.24 564.90 692.90 559.00 687.00
C 553.96 682.69 548.73 677.73 544.00 673.00
C 546.29 676.53 551.37 682.16 555.75 686.25 C 560.14 690.33 564.56 694.89 568.75 699.25 C 572.94 703.61 577.85 707.60 581.75 712.25 C 585.65 716.89 591.71 721.49 594.00 722.00 Z"/>
</g>
<g fill="None" fill-opacity="0.0" stroke="#C40E28" stroke-opacity="0.40" stroke-width="0.3"><path d="
M 472.00 679.00
C 485.83 693.49 502.78 707.25 516.00 724.00
C 498.87 723.73 481.07 724.36 464.00 724.00 C 446.93 723.64 429.92 724.70 413.00 724.00 C 396.08 723.30 378.73 725.51 362.00 724.00 C 345.27 722.49 327.35 727.33 311.00 724.00
C 317.23 727.18 325.28 725.87 333.00 726.00 C 340.72 726.13 349.23 725.94 357.00 726.00 C 364.77 726.06 372.22 725.98 380.00 726.00 C 387.78 726.02 396.26 726.01 404.00 726.00 C 411.74 725.99 419.39 726.04 427.00 726.00 C 434.61 725.96 443.64 726.10 451.00 726.00 C 458.36 725.90 467.27 726.23 474.00 726.00 C 480.73 725.77 492.52 726.49 498.00 726.00 C 503.48 725.51 518.14 728.47 518.00 723.00
C 517.92 720.00 509.09 716.16 507.25 712.75 C 505.40 709.34 499.58 705.59 496.75 702.25 C 493.93 698.90 489.60 694.93 486.25 691.75 C 482.89 688.57 479.33 684.07 476.00 681.00
C 474.33 679.69 473.28 678.90 472.00 679.00 Z"/>
</g>
<g fill="None" fill-opacity="0.0" stroke="#F91136" stroke-opacity="0.65" stroke-width="0.3"><path d="
M 518.00 723.00
C 518.11 720.88 509.64 713.64 508.00 712.00
C 505.82 710.14 503.95 707.95 502.00 706.00
C 493.80 697.80 485.19 688.19 476.00 681.00
C 479.33 684.07 482.89 688.57 486.25 691.75 C 489.60 694.93 493.93 698.90 496.75 702.25 C 499.58 705.59 505.40 709.34 507.25 712.75 C 509.09 716.16 517.92 720.00 518.00 723.00 Z"/>
</g>
<g fill="None" fill-opacity="0.0" stroke="#FE0235" stroke-opacity="0.01" stroke-width="0.3"><path d="
M 577.00 705.00
C 571.37 698.85 565.40 692.47 559.00 687.00
C 564.90 692.90 570.84 699.24 577.00 705.00 Z"/>
</g>
<g fill="None" fill-opacity="0.0" stroke="#BA0E2A" stroke-opacity="1.00" stroke-width="0.3"><path d="
M 502.00 706.00
C 503.95 707.95 505.82 710.14 508.00 712.00
C 513.60 714.66 517.34 726.10 524.00 721.00
C 510.00 731.94 489.12 726.03 470.00 727.00 C 450.88 727.97 427.50 726.69 408.00 727.00 C 388.50 727.31 365.10 727.15 346.00 727.00 C 326.90 726.85 307.68 731.56 296.00 715.00
C 296.88 718.31 296.93 720.77 296.00 724.00
C 292.63 718.96 290.49 727.23 286.00 724.00
C 286.31 720.59 290.57 724.66 290.00 721.00
C 281.27 717.75 271.14 722.79 263.00 718.00
C 263.08 723.78 253.50 715.30 253.00 724.00
C 250.14 720.36 248.24 722.29 246.00 718.00
C 239.22 720.11 233.76 720.67 231.00 716.00
C 231.08 718.95 228.47 720.21 227.00 722.00
C 228.15 713.71 225.36 719.57 226.00 725.00
C 227.25 735.61 232.48 745.15 236.00 756.00
C 237.74 761.35 241.47 764.66 245.00 769.00
C 246.98 770.40 250.69 774.15 252.00 776.00
C 255.83 779.17 259.98 781.97 264.00 785.00
C 264.98 785.43 266.77 786.79 267.00 787.00
C 272.18 789.88 277.39 791.90 283.00 794.00
C 285.91 794.34 286.50 794.70 289.00 796.00
C 290.43 796.31 291.63 796.65 293.00 797.00
C 295.72 797.10 298.61 796.08 302.00 797.00
C 371.00 796.79 442.29 794.11 512.00 796.00 C 581.71 797.89 653.23 791.75 722.00 797.00
C 723.17 796.96 723.57 796.50 725.02 796.02 C 726.48 795.55 726.99 798.00 727.00 798.00
C 729.82 797.49 732.29 796.70 735.00 796.00
C 739.55 793.63 742.63 792.73 747.00 792.00
C 755.67 788.60 761.74 783.68 769.00 778.00
C 771.55 774.39 777.55 768.46 781.00 766.00
C 782.09 764.67 783.08 763.38 784.00 762.00
C 783.11 762.83 782.68 764.32 781.00 764.00
C 782.52 760.55 784.51 756.90 788.00 755.00
C 789.87 750.89 791.51 746.91 794.00 743.00
C 794.14 742.44 793.08 740.32 793.78 738.78 C 794.49 737.24 796.31 736.58 796.00 737.00
C 796.36 735.11 798.43 732.25 799.00 730.00
C 799.11 731.78 795.07 726.40 797.22 724.22 C 799.37 722.04 797.74 718.65 798.00 716.00
C 797.14 714.04 796.72 717.28 797.00 718.00
C 795.62 716.61 794.31 714.73 793.00 713.00
C 791.50 718.28 786.03 715.39 782.00 718.00
C 782.61 713.00 778.85 716.42 777.00 718.00
C 773.75 713.45 769.62 713.78 765.25 713.80 C 760.88 713.82 758.26 710.95 758.00 716.00
C 755.17 716.13 750.28 712.09 754.00 717.00
C 751.53 714.42 745.79 717.47 748.00 713.00
C 744.20 713.34 737.94 717.39 734.77 716.58 C 731.61 715.76 729.12 713.20 730.00 719.00
C 723.98 713.87 719.54 728.14 709.00 727.00 C 698.46 725.86 685.88 727.41 675.00 727.00 C 664.12 726.59 651.92 726.94 641.00 727.00 C 630.08 727.06 617.69 726.44 607.00 727.00 C 596.31 727.56 591.10 723.26 584.00 716.00
C 585.45 722.92 579.58 718.04 576.00 723.00
C 577.81 719.56 577.63 720.40 576.00 718.00
C 571.41 721.74 566.58 716.32 563.00 720.00
C 559.55 710.97 551.84 718.10 546.23 716.79 C 540.62 715.47 534.65 717.24 531.00 722.00
C 530.10 719.53 529.97 717.42 531.00 715.00
C 528.60 717.66 521.73 715.05 524.00 720.00
C 521.65 719.17 520.25 712.77 518.00 717.00
C 516.35 714.90 514.56 713.85 514.00 711.00
C 510.08 713.29 504.36 707.53 502.00 706.00 Z"/>
</g>
<g fill="None" fill-opacity="0.0" stroke="#C00E28" stroke-opacity="0.43" stroke-width="0.3"><path d="
M 712.00 724.00
C 699.73 725.75 685.33 723.78 673.00 724.00 C 660.67 724.22 647.04 725.29 635.00 724.00 C 622.96 722.71 608.32 727.66 597.00 724.00
C 606.36 730.37 623.28 724.66 635.00 726.00 C 646.72 727.34 663.05 725.87 675.00 726.00 C 686.95 726.13 702.68 727.98 712.00 724.00 Z"/>
</g>
<g fill="None" fill-opacity="0.0" stroke="#DD0E2F" stroke-opacity="0.52" stroke-width="0.3"><path d="
M 224.00 726.00
C 225.50 737.01 230.17 747.15 236.00 756.00
C 232.48 745.15 227.25 735.61 226.00 725.00
C 225.88 725.26 224.19 725.59 224.00 726.00 Z"/>
</g>
<g fill="None" fill-opacity="0.0" stroke="#E80C30" stroke-opacity="0.62" stroke-width="0.3"><path d="
M 794.00 743.00
C 794.18 742.72 796.09 740.81 796.00 741.00
C 796.22 739.71 795.75 738.29 796.00 737.00
C 796.31 736.58 794.49 737.24 793.78 738.78 C 793.08 740.32 794.14 742.44 794.00 743.00 Z"/>
</g>
<g fill="None" fill-opacity="0.0" stroke="#E00E29" stroke-opacity="0.19" stroke-width="0.3"><path d="
M 794.00 743.00
C 791.51 746.91 789.87 750.89 788.00 755.00
C 787.63 755.81 786.82 758.36 787.00 758.00
C 790.01 753.88 795.10 746.30 796.00 741.00
C 796.09 740.81 794.18 742.72 794.00 743.00 Z"/>
</g>
<g fill="None" fill-opacity="0.0" stroke="#E70E31" stroke-opacity="0.57" stroke-width="0.3"><path d="
M 784.00 762.00
C 784.90 760.65 786.01 759.35 787.00 758.00
C 786.82 758.36 787.63 755.81 788.00 755.00
C 784.51 756.90 782.52 760.55 781.00 764.00
C 782.68 764.32 783.11 762.83 784.00 762.00 Z"/>
</g>
<g fill="None" fill-opacity="0.0" stroke="#E30A2E" stroke-opacity="0.36" stroke-width="0.3"><path d="
M 769.00 778.00
C 773.78 774.27 777.11 770.73 781.00 766.00
C 777.55 768.46 771.55 774.39 769.00 778.00 Z"/>
</g>
<g fill="None" fill-opacity="0.0" stroke="#DF0A28" stroke-opacity="0.29" stroke-width="0.3"><path d="
M 245.00 769.00
C 247.28 771.80 249.18 773.66 252.00 776.00
C 250.69 774.15 246.98 770.40 245.00 769.00 Z"/>
</g>
<g fill="None" fill-opacity="0.0" stroke="#DD0A2F" stroke-opacity="0.34" stroke-width="0.3"><path d="
M 264.00 785.00
C 265.08 785.81 265.79 786.33 267.00 787.00
C 266.77 786.79 264.98 785.43 264.00 785.00 Z"/>
</g>
<g fill="None" fill-opacity="0.0" stroke="#DE0A2D" stroke-opacity="0.41" stroke-width="0.3"><path d="
M 735.00 796.00
C 739.33 794.88 742.81 793.64 747.00 792.00
C 742.63 792.73 739.55 793.63 735.00 796.00 Z"/>
</g>
<g fill="None" fill-opacity="0.0" stroke="#E0082B" stroke-opacity="0.36" stroke-width="0.3"><path d="
M 283.00 794.00
C 285.02 794.75 286.52 795.46 289.00 796.00
C 286.50 794.70 285.91 794.34 283.00 794.00 Z"/>
</g>
<g fill="None" fill-opacity="0.0" stroke="#D3082A" stroke-opacity="0.40" stroke-width="0.3"><path d="
M 293.00 797.00
C 297.71 798.20 301.99 798.90 307.00 799.00
C 305.86 798.83 303.11 797.30 302.00 797.00
C 298.61 796.08 295.72 797.10 293.00 797.00 Z"/>
</g>
<g fill="None" fill-opacity="0.0" stroke="#9B0D26" stroke-opacity="1.00" stroke-width="0.3"><path d="
M 302.00 797.00
C 371.97 796.06 442.04 798.25 512.00 797.00 C 581.96 795.75 652.08 799.40 722.00 797.00
C 653.23 791.75 581.71 797.89 512.00 796.00 C 442.29 794.11 371.00 796.79 302.00 797.00 Z"/>
</g>
<g fill="None" fill-opacity="0.0" stroke="#DD0B2E" stroke-opacity="0.54" stroke-width="0.3"><path d="
M 722.00 797.00
C 652.08 799.40 581.96 795.75 512.00 797.00 C 442.04 798.25 371.97 796.06 302.00 797.00
C 303.11 797.30 305.86 798.83 307.00 799.00
C 342.07 799.70 378.00 799.02 413.00 799.00 C 448.00 798.98 483.18 799.77 518.00 799.00 C 552.82 798.23 588.48 801.04 623.00 799.00 C 657.52 796.96 693.39 804.14 727.00 798.00
C 726.99 798.00 726.48 795.55 725.02 796.02 C 723.57 796.50 723.17 796.96 722.00 797.00 Z"/>
</g>
<g fill="#000000" fill-opacity="0.00" stroke="None">
<path d="
M 0.00 1024.00
L 1024.00 1024.00
L 1024.00 0.00
L 0.00 0.00
L 0.00 1024.00
M 800.00 299.00
C 801.53 327.15 801.10 355.35 801.00 384.00 C 800.90 412.65 801.33 442.26 801.00 471.00 C 800.67 499.74 801.80 529.35 801.00 558.00 C 800.21 586.65 802.79 616.68 801.00 645.00 C 799.21 673.32 805.79 703.00 799.00 730.00
C 798.43 732.25 796.36 735.11 796.00 737.00
C 795.75 738.29 796.22 739.71 796.00 741.00
C 795.10 746.30 790.01 753.88 787.00 758.00
C 786.01 759.35 784.90 760.65 784.00 762.00
C 783.08 763.38 782.09 764.67 781.00 766.00
C 777.11 770.73 773.78 774.27 769.00 778.00
C 761.74 783.68 755.67 788.60 747.00 792.00
C 742.81 793.64 739.33 794.88 735.00 796.00
C 732.29 796.70 729.82 797.49 727.00 798.00
C 693.39 804.14 657.52 796.96 623.00 799.00 C 588.48 801.04 552.82 798.23 518.00 799.00 C 483.18 799.77 448.00 798.98 413.00 799.00 C 378.00 799.02 342.07 799.70 307.00 799.00
C 301.99 798.90 297.71 798.20 293.00 797.00
C 291.63 796.65 290.43 796.31 289.00 796.00
C 286.52 795.46 285.02 794.75 283.00 794.00
C 277.39 791.90 272.18 789.88 267.00 787.00
C 265.79 786.33 265.08 785.81 264.00 785.00
C 259.98 781.97 255.83 779.17 252.00 776.00
C 249.18 773.66 247.28 771.80 245.00 769.00
C 241.47 764.66 237.74 761.35 236.00 756.00
C 230.17 747.15 225.50 737.01 224.00 726.00
C 223.69 723.72 223.20 721.09 223.00 719.00
C 220.27 689.91 224.14 660.24 223.00 631.00 C 221.86 601.76 223.35 571.21 223.00 542.00 C 222.65 512.79 222.80 481.88 223.00 453.00 C 223.20 424.12 222.12 392.03 223.00 364.00 C 223.88 335.97 219.18 303.90 226.98 278.98 C 234.77 254.05 246.24 244.45 267.69 230.69 C 289.15 216.94 317.67 220.01 345.00 220.00 C 372.33 219.99 405.57 220.10 434.00 220.00 C 462.43 219.90 494.28 220.26 523.00 220.00 C 551.72 219.74 583.62 220.60 612.00 220.00 C 640.38 219.41 673.83 221.33 701.00 220.00 C 728.17 218.67 751.51 223.47 770.08 239.92 C 788.66 256.37 798.69 274.89 800.00 299.00 Z"/>
</g>
<g fill="#F72235" fill-opacity="0.99" stroke="None">
<path d="
M 223.00 719.00
C 225.29 698.56 225.28 676.02 225.00 654.00 C 224.72 631.98 225.15 609.17 225.00 587.00 C 224.85 564.83 225.11 542.21 225.00 520.00
C 227.10 527.80 225.63 543.00 226.00 551.00 C 226.37 559.00 224.73 573.28 232.00 568.00
C 231.58 571.08 233.60 573.99 237.00 573.00
C 232.66 571.50 236.50 570.59 238.00 568.00
C 238.83 570.59 237.63 572.79 240.00 575.00
C 241.16 573.08 242.95 573.07 245.00 574.00
C 245.08 569.73 255.78 566.12 255.00 572.00
C 261.90 569.22 264.14 570.97 270.00 569.00
C 268.76 576.08 278.35 568.01 276.00 575.00
C 280.26 574.87 283.20 571.80 288.00 572.00
C 286.93 569.22 288.68 565.39 288.00 562.00
C 292.04 561.16 292.18 567.15 294.00 562.00
C 293.86 569.86 294.20 578.44 295.00 586.00 C 295.80 593.56 292.23 602.82 298.00 608.00
C 296.81 607.39 296.24 605.11 296.00 604.00
C 294.84 598.57 296.39 591.48 296.00 586.00 C 295.61 580.52 295.87 573.20 296.00 568.00 C 296.13 562.80 295.27 554.38 296.00 550.00 C 296.73 545.62 293.42 534.71 298.00 533.00
C 299.87 529.26 311.33 533.01 316.00 532.00 C 320.67 530.99 329.26 532.43 335.00 532.00 C 340.74 531.57 348.83 532.20 355.00 532.00 C 361.17 531.80 367.57 532.07 374.00 532.00 C 380.43 531.93 387.39 532.00 394.00 532.00 C 400.61 532.00 406.12 531.92 413.00 532.00 C 419.88 532.08 425.67 531.80 433.00 532.00 C 440.33 532.20 443.55 531.52 452.00 532.00 C 460.45 532.48 461.38 530.98 472.00 532.00 C 482.62 533.02 500.68 530.52 511.00 532.00 C 521.32 533.48 539.88 527.94 545.19 534.25
C 556.09 550.31 569.21 559.95 588.00 563.00
C 592.39 562.88 600.76 562.99 605.00 563.00
C 645.64 555.72 666.97 509.53 644.00 475.00
C 640.35 471.38 634.49 465.32 632.00 462.00
C 622.85 454.33 613.79 450.92 602.00 449.00
C 596.97 449.22 590.10 449.75 585.00 450.00
C 570.41 453.44 559.46 459.78 550.00 472.00
C 547.90 476.55 545.43 481.07 538.00 480.00 C 530.57 478.93 523.41 480.48 516.00 480.00 C 508.59 479.52 501.45 480.21 494.00 480.00 C 486.55 479.79 478.44 480.10 471.00 480.00 C 463.56 479.90 456.38 480.05 449.00 480.00 C 441.62 479.95 434.36 480.03 427.00 480.00 C 419.64 479.97 412.35 480.04 405.00 480.00 C 397.65 479.96 389.24 480.06 382.00 480.00 C 374.76 479.94 366.93 480.13 360.00 480.00 C 353.07 479.87 344.35 480.29 338.00 480.00 C 331.65 479.71 321.12 480.65 316.00 480.00 C 310.88 479.35 296.04 482.70 296.00 477.00
C 291.27 472.42 296.48 459.98 295.00 453.00 C 293.52 446.02 295.68 435.85 295.00 428.00 C 294.32 420.15 295.41 410.22 295.00 402.00 C 294.59 393.78 295.39 385.42 295.00 377.00 C 294.61 368.58 295.62 359.54 295.00 351.00 C 294.38 342.46 296.31 334.71 295.00 326.00 C 293.69 317.29 296.38 310.98 300.00 305.00
C 302.52 299.66 307.01 295.07 313.00 294.00
C 316.81 291.59 325.92 291.80 334.00 292.00 C 342.08 292.20 351.68 291.91 360.00 292.00 C 368.32 292.09 376.55 291.96 385.00 292.00 C 393.45 292.04 402.46 291.98 411.00 292.00 C 419.54 292.02 428.47 291.99 437.00 292.00 C 445.53 292.01 453.46 292.00 462.00 292.00 C 470.54 292.00 479.43 292.00 488.00 292.00 C 496.57 292.00 505.46 292.00 514.00 292.00 C 522.54 292.00 530.47 292.00 539.00 292.00 C 547.53 292.00 556.48 292.01 565.00 292.00 C 573.52 291.99 581.47 292.02 590.00 292.00 C 598.53 291.98 607.44 292.03 616.00 292.00 C 624.56 291.97 633.49 292.07 642.00 292.00 C 650.51 291.93 658.56 292.17 667.00 292.00 C 675.44 291.83 684.65 292.36 693.00 292.00 C 701.35 291.64 709.89 291.56 714.00 295.00
C 722.58 297.79 722.39 305.09 727.00 311.00
C 727.21 311.27 727.78 311.70 728.00 312.00
C 733.48 319.43 727.19 334.33 729.00 344.00 C 730.81 353.67 728.18 366.60 729.00 377.00 C 729.82 387.40 728.63 399.27 729.00 410.00 C 729.37 420.73 728.83 432.12 729.00 443.00 C 729.17 453.88 728.92 465.05 729.00 476.00 C 729.08 486.95 728.97 498.02 729.00 509.00 C 729.03 519.98 728.98 531.00 729.00 542.00 C 729.02 553.00 728.99 563.98 729.00 575.00 C 729.01 586.02 729.00 596.94 729.00 608.00 C 729.00 619.06 729.00 629.86 729.00 641.00 C 729.00 652.14 729.00 663.81 729.00 675.00
C 730.89 655.53 729.67 634.21 730.00 614.00
C 732.24 618.09 730.40 624.16 731.00 629.00
C 734.08 629.63 734.40 631.55 736.00 628.00
C 737.55 631.17 737.67 631.59 735.00 634.00
C 737.86 632.89 741.09 634.72 740.00 630.00
C 743.27 632.40 744.01 630.02 743.00 627.00
C 745.73 626.61 746.37 629.93 748.00 631.00
C 747.38 627.97 752.63 629.11 752.00 626.00
C 755.01 630.91 762.86 622.23 763.00 629.00
C 767.44 625.29 776.59 622.80 781.00 630.00
C 783.04 628.40 787.72 624.78 786.00 629.00
C 789.55 628.96 789.23 626.07 791.00 630.00
C 791.86 627.73 793.68 625.26 792.00 623.00
C 795.03 624.76 793.68 625.22 797.00 625.00
C 797.00 620.33 797.00 615.67 797.00 611.00
C 800.00 636.60 796.00 665.48 799.00 691.00
C 799.00 625.92 797.21 560.00 799.00 495.00 C 800.79 430.00 793.81 362.93 800.00 299.00
C 798.69 274.89 788.66 256.37 770.08 239.92 C 751.51 223.47 728.17 218.67 701.00 220.00 C 673.83 221.33 640.38 219.41 612.00 220.00 C 583.62 220.60 551.72 219.74 523.00 220.00 C 494.28 220.26 462.43 219.90 434.00 220.00 C 405.57 220.10 372.33 219.99 345.00 220.00 C 317.67 220.01 289.15 216.94 267.69 230.69 C 246.24 244.45 234.77 254.05 226.98 278.98 C 219.18 303.90 223.88 335.97 223.00 364.00 C 222.12 392.03 223.20 424.12 223.00 453.00 C 222.80 481.88 222.65 512.79 223.00 542.00 C 223.35 571.21 221.86 601.76 223.00 631.00 C 224.14 660.24 220.27 689.91 223.00 719.00
M 575.00 513.00
C 574.01 511.34 571.71 504.71 573.00 500.00
C 574.00 500.00 575.00 500.00 576.00 500.00
C 580.02 486.58 597.51 480.78 608.30 489.71 C 619.08 498.63 621.06 514.84 607.92 523.92 C 594.78 532.99 582.04 524.74 575.00 513.00 Z"/>
</g>
<g fill="#FD3240" fill-opacity="0.60" stroke="None">
<path d="
M 313.00 294.00
C 331.44 290.70 351.22 295.46 370.00 294.00 C 388.78 292.54 408.03 294.58 427.00 294.00 C 445.97 293.42 465.97 294.13 485.00 294.00 C 504.03 293.87 523.00 293.74 542.00 294.00 C 561.00 294.26 581.15 293.21 600.00 294.00 C 618.85 294.79 638.52 292.10 657.00 294.00 C 675.48 295.90 696.61 289.35 714.00 295.00
C 709.89 291.56 701.35 291.64 693.00 292.00 C 684.65 292.36 675.44 291.83 667.00 292.00 C 658.56 292.17 650.51 291.93 642.00 292.00 C 633.49 292.07 624.56 291.97 616.00 292.00 C 607.44 292.03 598.53 291.98 590.00 292.00 C 581.47 292.02 573.52 291.99 565.00 292.00 C 556.48 292.01 547.53 292.00 539.00 292.00 C 530.47 292.00 522.54 292.00 514.00 292.00 C 505.46 292.00 496.57 292.00 488.00 292.00 C 479.43 292.00 470.54 292.00 462.00 292.00 C 453.46 292.00 445.53 292.01 437.00 292.00 C 428.47 291.99 419.54 292.02 411.00 292.00 C 402.46 291.98 393.45 292.04 385.00 292.00 C 376.55 291.96 368.32 292.09 360.00 292.00 C 351.68 291.91 342.08 292.20 334.00 292.00 C 325.92 291.80 316.81 291.59 313.00 294.00 Z"/>
</g>
<g fill="#000000" fill-opacity="0.00" stroke="None">
<path d="
M 300.00 305.00
C 292.20 321.49 298.78 341.49 297.00 360.00 C 295.22 378.51 298.32 399.02 297.00 418.00 C 295.68 436.98 298.73 457.92 297.00 477.00
C 304.26 482.38 318.46 476.29 328.00 478.00 C 337.54 479.71 350.77 477.21 361.00 478.00 C 371.23 478.79 382.44 477.66 393.00 478.00 C 403.56 478.34 415.32 477.85 426.00 478.00 C 436.68 478.15 447.30 477.96 458.00 478.00 C 468.70 478.04 480.37 478.04 491.00 478.00 C 501.63 477.96 512.60 478.15 523.00 478.00 C 533.40 477.85 543.43 480.50 550.00 472.00
C 559.46 459.78 570.41 453.44 585.00 450.00
C 586.43 449.66 588.01 449.08 590.00 449.00
C 594.00 448.42 598.05 448.36 602.00 449.00
C 613.79 450.92 622.85 454.33 632.00 462.00
C 636.84 466.06 640.52 469.77 644.00 475.00
C 666.97 509.53 645.64 555.72 605.00 563.00
C 599.55 563.98 593.38 563.87 588.00 563.00
C 569.21 559.95 556.09 550.31 545.00 535.00
C 533.76 529.38 517.70 535.92 505.00 534.00 C 492.30 532.08 477.22 534.96 464.00 534.00 C 450.78 533.04 436.44 534.65 423.00 534.00 C 409.56 533.35 395.50 534.78 382.00 534.00 C 368.50 533.22 354.46 535.42 341.00 534.00 C 327.54 532.58 312.18 536.93 299.00 534.00
C 296.13 540.20 296.50 550.01 297.00 557.00 C 297.50 563.99 295.70 575.87 297.00 582.00 C 298.30 588.13 293.23 603.02 299.00 606.00
C 309.67 609.31 322.75 604.53 334.00 606.00 C 345.25 607.47 357.44 605.38 369.00 606.00 C 380.56 606.62 393.34 605.78 405.00 606.00 C 416.66 606.22 428.35 606.05 440.00 606.00 C 451.65 605.95 463.04 605.53 474.00 608.00
C 477.91 608.88 477.55 608.73 480.00 611.00
C 481.42 611.27 481.01 611.51 482.00 612.00
C 489.00 615.48 495.22 623.86 501.00 629.00
C 505.57 633.06 510.05 637.42 514.00 642.00
C 523.11 652.56 534.06 663.06 544.00 673.00
C 548.73 677.73 553.96 682.69 559.00 687.00
C 565.40 692.47 571.37 698.85 577.00 705.00
C 582.44 710.07 587.37 717.76 594.00 722.00
C 595.08 722.69 596.09 723.38 597.00 724.00
C 608.32 727.66 622.96 722.71 635.00 724.00 C 647.04 725.29 660.67 724.22 673.00 724.00 C 685.33 723.78 699.73 725.75 712.00 724.00
C 722.20 722.54 722.33 715.05 727.00 708.00
C 729.04 695.19 726.10 682.04 727.00 669.00 C 727.90 655.96 726.59 642.17 727.00 629.00 C 727.41 615.83 726.80 602.18 727.00 589.00 C 727.20 575.82 726.88 563.19 727.00 550.00 C 727.12 536.81 726.89 523.22 727.00 510.00 C 727.11 496.78 726.82 483.17 727.00 470.00 C 727.18 456.83 726.63 444.12 727.00 431.00 C 727.37 417.88 726.20 404.03 727.00 391.00 C 727.80 377.97 725.25 363.75 727.00 351.00 C 728.75 338.25 723.13 323.07 727.00 311.00
C 722.39 305.09 722.58 297.79 714.00 295.00
C 696.61 289.35 675.48 295.90 657.00 294.00 C 638.52 292.10 618.85 294.79 600.00 294.00 C 581.15 293.21 561.00 294.26 542.00 294.00 C 523.00 293.74 504.03 293.87 485.00 294.00 C 465.97 294.13 445.97 293.42 427.00 294.00 C 408.03 294.58 388.78 292.54 370.00 294.00 C 351.22 295.46 331.44 290.70 313.00 294.00
C 307.01 295.07 302.52 299.66 300.00 305.00 Z"/>
</g>
<g fill="#FC1D36" fill-opacity="0.45" stroke="None">
<path d="
M 799.00 691.00
C 799.00 699.35 798.73 708.42 798.00 716.00
C 797.74 718.65 799.37 722.04 797.22 724.22 C 795.07 726.40 799.11 731.78 799.00 730.00
C 805.79 703.00 799.21 673.32 801.00 645.00 C 802.79 616.68 800.21 586.65 801.00 558.00 C 801.80 529.35 800.67 499.74 801.00 471.00 C 801.33 442.26 800.90 412.65 801.00 384.00 C 801.10 355.35 801.53 327.15 800.00 299.00
C 793.81 362.93 800.79 430.00 799.00 495.00 C 797.21 560.00 799.00 625.92 799.00 691.00 Z"/>
</g>
<g fill="#FE283C" fill-opacity="0.46" stroke="None">
<path d="
M 296.00 477.00
C 296.26 477.25 297.00 477.00 297.00 477.00
C 298.73 457.92 295.68 436.98 297.00 418.00 C 298.32 399.02 295.22 378.51 297.00 360.00 C 298.78 341.49 292.20 321.49 300.00 305.00
C 296.38 310.98 293.69 317.29 295.00 326.00 C 296.31 334.71 294.38 342.46 295.00 351.00 C 295.62 359.54 294.61 368.58 295.00 377.00 C 295.39 385.42 294.59 393.78 295.00 402.00 C 295.41 410.22 294.32 420.15 295.00 428.00 C 295.68 435.85 293.52 446.02 295.00 453.00 C 296.48 459.98 291.27 472.42 296.00 477.00 Z"/>
</g>
<g fill="#FC1B35" fill-opacity="0.06" stroke="None">
<path d="
M 727.00 708.00
C 727.18 707.73 727.78 707.30 728.00 707.00
C 731.71 681.24 726.45 654.05 728.00 628.00 C 729.55 601.95 727.58 575.17 728.00 549.00 C 728.42 522.83 728.42 496.17 728.00 470.00 C 727.58 443.83 729.55 417.05 728.00 391.00 C 726.45 364.95 731.71 337.76 728.00 312.00
C 727.78 311.70 727.21 311.27 727.00 311.00
C 723.13 323.07 728.75 338.25 727.00 351.00 C 725.25 363.75 727.80 377.97 727.00 391.00 C 726.20 404.03 727.37 417.88 727.00 431.00 C 726.63 444.12 727.18 456.83 727.00 470.00 C 726.82 483.17 727.11 496.78 727.00 510.00 C 726.89 523.22 727.12 536.81 727.00 550.00 C 726.88 563.19 727.20 575.82 727.00 589.00 C 726.80 602.18 727.41 615.83 727.00 629.00 C 726.59 642.17 727.90 655.96 727.00 669.00 C 726.10 682.04 729.04 695.19 727.00 708.00 Z"/>
</g>
<g fill="#FF1F39" fill-opacity="0.87" stroke="None">
<path d="
M 728.00 707.00
C 730.74 703.29 728.56 696.95 729.00 692.00 C 729.44 687.05 729.00 680.13 729.00 675.00
C 729.00 663.81 729.00 652.14 729.00 641.00 C 729.00 629.86 729.00 619.06 729.00 608.00 C 729.00 596.94 729.01 586.02 729.00 575.00 C 728.99 563.98 729.02 553.00 729.00 542.00 C 728.98 531.00 729.03 519.98 729.00 509.00 C 728.97 498.02 729.08 486.95 729.00 476.00 C 728.92 465.05 729.17 453.88 729.00 443.00 C 728.83 432.12 729.37 420.73 729.00 410.00 C 728.63 399.27 729.82 387.40 729.00 377.00 C 728.18 366.60 730.81 353.67 729.00 344.00 C 727.19 334.33 733.48 319.43 728.00 312.00
C 731.71 337.76 726.45 364.95 728.00 391.00 C 729.55 417.05 727.58 443.83 728.00 470.00 C 728.42 496.17 728.42 522.83 728.00 549.00 C 727.58 575.17 729.55 601.95 728.00 628.00 C 726.45 654.05 731.71 681.24 728.00 707.00 Z"/>
</g>
<g fill="#FE223A" fill-opacity="0.02" stroke="None">
<path d="
M 590.00 449.00
C 593.99 448.84 598.00 449.12 602.00 449.00
C 598.05 448.36 594.00 448.42 590.00 449.00 Z"/>
</g>
<g fill="#F82035" fill-opacity="0.44" stroke="None">
<path d="
M 585.00 450.00
C 590.10 449.75 596.97 449.22 602.00 449.00
C 598.00 449.12 593.99 448.84 590.00 449.00
C 588.01 449.08 586.43 449.66 585.00 450.00 Z"/>
</g>
<g fill="#FA1D35" fill-opacity="0.43" stroke="None">
<path d="
M 644.00 475.00
C 640.52 469.77 636.84 466.06 632.00 462.00
C 634.49 465.32 640.35 471.38 644.00 475.00 Z"/>
</g>
<g fill="#EF1D34" fill-opacity="0.55" stroke="None">
<path d="
M 297.00 477.00
C 297.00 477.00 296.26 477.25 296.00 477.00
C 296.04 482.70 310.88 479.35 316.00 480.00 C 321.12 480.65 331.65 479.71 338.00 480.00 C 344.35 480.29 353.07 479.87 360.00 480.00 C 366.93 480.13 374.76 479.94 382.00 480.00 C 389.24 480.06 397.65 479.96 405.00 480.00 C 412.35 480.04 419.64 479.97 427.00 480.00 C 434.36 480.03 441.62 479.95 449.00 480.00 C 456.38 480.05 463.56 479.90 471.00 480.00 C 478.44 480.10 486.55 479.79 494.00 480.00 C 501.45 480.21 508.59 479.52 516.00 480.00 C 523.41 480.48 530.57 478.93 538.00 480.00 C 545.43 481.07 547.90 476.55 550.00 472.00
C 543.43 480.50 533.40 477.85 523.00 478.00 C 512.60 478.15 501.63 477.96 491.00 478.00 C 480.37 478.04 468.70 478.04 458.00 478.00 C 447.30 477.96 436.68 478.15 426.00 478.00 C 415.32 477.85 403.56 478.34 393.00 478.00 C 382.44 477.66 371.23 478.79 361.00 478.00 C 350.77 477.21 337.54 479.71 328.00 478.00 C 318.46 476.29 304.26 482.38 297.00 477.00 Z"/>
</g>
<g fill="#000000" fill-opacity="0.00" stroke="None">
<path d="
M 576.00 500.00
C 574.90 503.67 574.17 508.99 575.00 513.00
C 582.04 524.74 594.78 532.99 607.92 523.92 C 621.06 514.84 619.08 498.63 608.30 489.71 C 597.51 480.78 580.02 486.58 576.00 500.00 Z"/>
</g>
<g fill="#FB1B35" fill-opacity="0.38" stroke="None">
<path d="
M 575.00 513.00
C 574.17 508.99 574.90 503.67 576.00 500.00
C 575.00 500.00 574.00 500.00 573.00 500.00
C 571.71 504.71 574.01 511.34 575.00 513.00 Z"/>
</g>
<g fill="#D7132F" fill-opacity="1.00" stroke="None">
<path d="
M 223.00 719.00
C 223.20 721.09 223.69 723.72 224.00 726.00
C 224.19 725.59 225.88 725.26 226.00 725.00
C 225.36 719.57 228.15 713.71 227.00 722.00
C 228.47 720.21 231.08 718.95 231.00 716.00
C 233.76 720.67 239.22 720.11 246.00 718.00
C 248.24 722.29 250.14 720.36 253.00 724.00
C 253.50 715.30 263.08 723.78 263.00 718.00
C 271.14 722.79 281.27 717.75 290.00 721.00
C 290.57 724.66 286.31 720.59 286.00 724.00
C 290.49 727.23 292.63 718.96 296.00 724.00
C 296.93 720.77 296.88 718.31 296.00 715.00
C 307.68 731.56 326.90 726.85 346.00 727.00 C 365.10 727.15 388.50 727.31 408.00 727.00 C 427.50 726.69 450.88 727.97 470.00 727.00 C 489.12 726.03 510.00 731.94 524.00 721.00
C 517.34 726.10 513.60 714.66 508.00 712.00
C 509.64 713.64 518.11 720.88 518.00 723.00
C 518.14 728.47 503.48 725.51 498.00 726.00 C 492.52 726.49 480.73 725.77 474.00 726.00 C 467.27 726.23 458.36 725.90 451.00 726.00 C 443.64 726.10 434.61 725.96 427.00 726.00 C 419.39 726.04 411.74 725.99 404.00 726.00 C 396.26 726.01 387.78 726.02 380.00 726.00 C 372.22 725.98 364.77 726.06 357.00 726.00 C 349.23 725.94 340.72 726.13 333.00 726.00 C 325.28 725.87 317.23 727.18 311.00 724.00
C 304.09 720.47 299.55 716.25 297.00 709.00
C 294.73 702.54 296.01 694.44 296.00 687.00 C 295.99 679.56 295.32 670.52 296.00 663.00
C 292.68 659.78 305.43 657.99 310.00 659.00 C 314.57 660.01 324.15 658.56 330.00 659.00 C 335.85 659.44 344.65 658.79 351.00 659.00 C 357.35 659.21 364.44 658.89 371.00 659.00 C 377.56 659.11 384.30 658.92 391.00 659.00 C 397.70 659.08 405.27 658.90 412.00 659.00 C 418.73 659.10 425.31 658.80 432.00 659.00 C 438.69 659.20 445.71 658.17 452.00 660.00
C 456.66 661.36 471.33 673.78 471.00 678.00
C 471.27 678.21 471.75 678.75 472.00 679.00
C 473.28 678.90 474.33 679.69 476.00 681.00
C 485.19 688.19 493.80 697.80 502.00 706.00
C 504.36 707.53 510.08 713.29 514.00 711.00
C 514.56 713.85 516.35 714.90 518.00 717.00
C 520.25 712.77 521.65 719.17 524.00 720.00
C 521.73 715.05 528.60 717.66 531.00 715.00
C 529.97 717.42 530.10 719.53 531.00 722.00
C 534.65 717.24 540.62 715.47 546.23 716.79 C 551.84 718.10 559.55 710.97 563.00 720.00
C 566.58 716.32 571.41 721.74 576.00 718.00
C 577.63 720.40 577.81 719.56 576.00 723.00
C 579.58 718.04 585.45 722.92 584.00 716.00
C 591.10 723.26 596.31 727.56 607.00 727.00 C 617.69 726.44 630.08 727.06 641.00 727.00 C 651.92 726.94 664.12 726.59 675.00 727.00 C 685.88 727.41 698.46 725.86 709.00 727.00 C 719.54 728.14 723.98 713.87 730.00 719.00
C 729.12 713.20 731.61 715.76 734.77 716.58 C 737.94 717.39 744.20 713.34 748.00 713.00
C 745.79 717.47 751.53 714.42 754.00 717.00
C 750.28 712.09 755.17 716.13 758.00 716.00
C 758.26 710.95 760.88 713.82 765.25 713.80 C 769.62 713.78 773.75 713.45 777.00 718.00
C 778.85 716.42 782.61 713.00 782.00 718.00
C 786.03 715.39 791.50 718.28 793.00 713.00
C 794.31 714.73 795.62 716.61 797.00 718.00
C 796.72 717.28 797.14 714.04 798.00 716.00
C 798.73 708.42 799.00 699.35 799.00 691.00
C 796.00 665.48 800.00 636.60 797.00 611.00
C 797.00 615.67 797.00 620.33 797.00 625.00
C 793.68 625.22 795.03 624.76 792.00 623.00
C 793.68 625.26 791.86 627.73 791.00 630.00
C 789.23 626.07 789.55 628.96 786.00 629.00
C 787.72 624.78 783.04 628.40 781.00 630.00
C 776.59 622.80 767.44 625.29 763.00 629.00
C 762.86 622.23 755.01 630.91 752.00 626.00
C 752.63 629.11 747.38 627.97 748.00 631.00
C 746.37 629.93 745.73 626.61 743.00 627.00
C 744.01 630.02 743.27 632.40 740.00 630.00
C 741.09 634.72 737.86 632.89 735.00 634.00
C 737.67 631.59 737.55 631.17 736.00 628.00
C 734.40 631.55 734.08 629.63 731.00 629.00
C 730.40 624.16 732.24 618.09 730.00 614.00
C 729.67 634.21 730.89 655.53 729.00 675.00
C 729.00 680.13 729.44 687.05 729.00 692.00 C 728.56 696.95 730.74 703.29 728.00 707.00
C 727.78 707.30 727.18 707.73 727.00 708.00
C 722.33 715.05 722.20 722.54 712.00 724.00
C 702.68 727.98 686.95 726.13 675.00 726.00 C 663.05 725.87 646.72 727.34 635.00 726.00 C 623.28 724.66 606.36 730.37 597.00 724.00
C 596.09 723.38 595.08 722.69 594.00 722.00
C 591.71 721.49 585.65 716.89 581.75 712.25 C 577.85 707.60 572.94 703.61 568.75 699.25 C 564.56 694.89 560.14 690.33 555.75 686.25 C 551.37 682.16 546.29 676.53 544.00 673.00
C 534.06 663.06 523.11 652.56 514.00 642.00
C 511.74 640.24 505.99 636.24 503.00 633.00
C 496.67 628.91 485.69 618.47 482.00 612.00
C 481.01 611.51 481.42 611.27 480.00 611.00
C 477.98 610.62 475.67 610.47 474.00 609.00
C 466.38 610.40 458.11 606.87 450.00 608.00 C 441.89 609.13 433.25 607.55 425.00 608.00 C 416.75 608.45 408.32 607.92 400.00 608.00 C 391.68 608.08 382.28 608.21 374.00 608.00 C 365.72 607.79 357.06 608.68 349.00 608.00 C 340.94 607.32 331.66 609.61 324.00 608.00 C 316.34 606.39 304.77 611.45 298.00 608.00
C 292.23 602.82 295.80 593.56 295.00 586.00 C 294.20 578.44 293.86 569.86 294.00 562.00
C 292.18 567.15 292.04 561.16 288.00 562.00
C 288.68 565.39 286.93 569.22 288.00 572.00
C 283.20 571.80 280.26 574.87 276.00 575.00
C 278.35 568.01 268.76 576.08 270.00 569.00
C 264.14 570.97 261.90 569.22 255.00 572.00
C 255.78 566.12 245.08 569.73 245.00 574.00
C 242.95 573.07 241.16 573.08 240.00 575.00
C 237.63 572.79 238.83 570.59 238.00 568.00
C 236.50 570.59 232.66 571.50 237.00 573.00
C 233.60 573.99 231.58 571.08 232.00 568.00
C 224.73 573.28 226.37 559.00 226.00 551.00 C 225.63 543.00 227.10 527.80 225.00 520.00
C 225.11 542.21 224.85 564.83 225.00 587.00 C 225.15 609.17 224.72 631.98 225.00 654.00 C 225.28 676.02 225.29 698.56 223.00 719.00 Z"/>
</g>
<g fill="#FE1B38" fill-opacity="0.49" stroke="None">
<path d="
M 298.00 533.00
C 298.24 532.91 298.77 533.95 299.00 534.00
C 312.18 536.93 327.54 532.58 341.00 534.00 C 354.46 535.42 368.50 533.22 382.00 534.00 C 395.50 534.78 409.56 533.35 423.00 534.00 C 436.44 534.65 450.78 533.04 464.00 534.00 C 477.22 534.96 492.30 532.08 505.00 534.00 C 517.70 535.92 533.76 529.38 545.00 535.00
C 539.88 527.94 521.32 533.48 511.00 532.00 C 500.68 530.52 482.62 533.02 472.00 532.00 C 461.38 530.98 460.45 532.48 452.00 532.00 C 443.55 531.52 440.33 532.20 433.00 532.00 C 425.67 531.80 419.88 532.08 413.00 532.00 C 406.12 531.92 400.61 532.00 394.00 532.00 C 387.39 532.00 380.43 531.93 374.00 532.00 C 367.57 532.07 361.17 531.80 355.00 532.00 C 348.83 532.20 340.74 531.57 335.00 532.00 C 329.26 532.43 320.67 530.99 316.00 532.00 C 311.33 533.01 299.87 529.26 298.00 533.00 Z"/>
</g>
<g fill="#FC1833" fill-opacity="0.08" stroke="None">
<path d="
M 296.00 604.00
C 296.26 604.53 298.43 605.82 299.00 606.00
C 293.23 603.02 298.30 588.13 297.00 582.00 C 295.70 575.87 297.50 563.99 297.00 557.00 C 296.50 550.01 296.13 540.20 299.00 534.00
C 298.77 533.95 298.24 532.91 298.00 533.00
C 293.42 534.71 296.73 545.62 296.00 550.00 C 295.27 554.38 296.13 562.80 296.00 568.00 C 295.87 573.20 295.61 580.52 296.00 586.00 C 296.39 591.48 294.84 598.57 296.00 604.00 Z"/>
</g>
<g fill="#FD1837" fill-opacity="0.33" stroke="None">
<path d="
M 588.00 563.00
C 593.38 563.87 599.55 563.98 605.00 563.00
C 600.76 562.99 592.39 562.88 588.00 563.00 Z"/>
</g>
<g fill="#F91839" fill-opacity="0.56" stroke="None">
<path d="
M 298.00 608.00
C 304.77 611.45 316.34 606.39 324.00 608.00 C 331.66 609.61 340.94 607.32 349.00 608.00 C 357.06 608.68 365.72 607.79 374.00 608.00 C 382.28 608.21 391.68 608.08 400.00 608.00 C 408.32 607.92 416.75 608.45 425.00 608.00 C 433.25 607.55 441.89 609.13 450.00 608.00 C 458.11 606.87 466.38 610.40 474.00 609.00
C 473.75 608.78 474.00 608.00 474.00 608.00
C 463.04 605.53 451.65 605.95 440.00 606.00 C 428.35 606.05 416.66 606.22 405.00 606.00 C 393.34 605.78 380.56 606.62 369.00 606.00 C 357.44 605.38 345.25 607.47 334.00 606.00 C 322.75 604.53 309.67 609.31 299.00 606.00
C 298.43 605.82 296.26 604.53 296.00 604.00
C 296.24 605.11 296.81 607.39 298.00 608.00 Z"/>
</g>
<g fill="#FB1231" fill-opacity="0.35" stroke="None">
<path d="
M 474.00 609.00
C 475.67 610.47 477.98 610.62 480.00 611.00
C 477.55 608.73 477.91 608.88 474.00 608.00
C 474.00 608.00 473.75 608.78 474.00 609.00 Z"/>
</g>
<g fill="#F61335" fill-opacity="0.58" stroke="None">
<path d="
M 503.00 633.00
C 502.03 631.95 500.85 628.80 501.00 629.00
C 495.22 623.86 489.00 615.48 482.00 612.00
C 485.69 618.47 496.67 628.91 503.00 633.00 Z"/>
</g>
<g fill="#E21531" fill-opacity="0.22" stroke="None">
<path d="
M 503.00 633.00
C 505.99 636.24 511.74 640.24 514.00 642.00
C 510.05 637.42 505.57 633.06 501.00 629.00
C 500.85 628.80 502.03 631.95 503.00 633.00 Z"/>
</g>
<g fill="#F01235" fill-opacity="0.74" stroke="None">
<path d="
M 296.00 663.00
C 296.00 662.96 297.00 663.00 297.00 663.00
C 299.58 657.33 313.46 662.19 320.00 661.00 C 326.54 659.81 338.33 661.56 346.00 661.00 C 353.67 660.44 363.87 661.31 372.00 661.00 C 380.13 660.69 388.63 661.24 397.00 661.00 C 405.37 660.76 414.50 661.32 423.00 661.00 C 431.50 660.68 440.49 661.62 449.00 661.00
C 449.20 660.99 451.86 659.99 452.00 660.00
C 445.71 658.17 438.69 659.20 432.00 659.00 C 425.31 658.80 418.73 659.10 412.00 659.00 C 405.27 658.90 397.70 659.08 391.00 659.00 C 384.30 658.92 377.56 659.11 371.00 659.00 C 364.44 658.89 357.35 659.21 351.00 659.00 C 344.65 658.79 335.85 659.44 330.00 659.00 C 324.15 658.56 314.57 660.01 310.00 659.00 C 305.43 657.99 292.68 659.78 296.00 663.00 Z"/>
</g>
<g fill="#F01234" fill-opacity="0.49" stroke="None">
<path d="
M 449.00 661.00
C 449.65 661.11 451.95 661.74 453.00 662.00
C 458.16 663.30 462.36 670.36 466.00 674.00
C 467.59 675.36 469.40 676.75 471.00 678.00
C 471.33 673.78 456.66 661.36 452.00 660.00
C 451.86 659.99 449.20 660.99 449.00 661.00 Z"/>
</g>
<g fill="#000000" fill-opacity="0.00" stroke="None">
<path d="
M 297.00 663.00
C 298.33 677.81 293.99 694.48 297.00 709.00
C 299.55 716.25 304.09 720.47 311.00 724.00
C 327.35 727.33 345.27 722.49 362.00 724.00 C 378.73 725.51 396.08 723.30 413.00 724.00 C 429.92 724.70 446.93 723.64 464.00 724.00 C 481.07 724.36 498.87 723.73 516.00 724.00
C 502.78 707.25 485.83 693.49 472.00 679.00
C 471.75 678.75 471.27 678.21 471.00 678.00
C 469.40 676.75 467.59 675.36 466.00 674.00
C 462.37 670.90 457.22 663.45 453.00 662.00
C 451.95 661.74 449.65 661.11 449.00 661.00
C 440.49 661.62 431.50 660.68 423.00 661.00 C 414.50 661.32 405.37 660.76 397.00 661.00 C 388.63 661.24 380.13 660.69 372.00 661.00 C 363.87 661.31 353.67 660.44 346.00 661.00 C 338.33 661.56 326.54 659.81 320.00 661.00 C 313.46 662.19 299.58 657.33 297.00 663.00 Z"/>
</g>
<g fill="#FD033B" fill-opacity="0.02" stroke="None">
<path d="
M 466.00 674.00
C 462.36 670.36 458.16 663.30 453.00 662.00
C 457.22 663.45 462.37 670.90 466.00 674.00 Z"/>
</g>
<g fill="#ED0D2E" fill-opacity="0.09" stroke="None">
<path d="
M 297.00 709.00
C 293.99 694.48 298.33 677.81 297.00 663.00
C 297.00 663.00 296.00 662.96 296.00 663.00
C 295.32 670.52 295.99 679.56 296.00 687.00 C 296.01 694.44 294.73 702.54 297.00 709.00 Z"/>
</g>
<g fill="#EC1032" fill-opacity="0.47" stroke="None">
<path d="
M 594.00 722.00
C 587.37 717.76 582.44 710.07 577.00 705.00
C 570.84 699.24 564.90 692.90 559.00 687.00
C 553.96 682.69 548.73 677.73 544.00 673.00
C 546.29 676.53 551.37 682.16 555.75 686.25 C 560.14 690.33 564.56 694.89 568.75 699.25 C 572.94 703.61 577.85 707.60 581.75 712.25 C 585.65 716.89 591.71 721.49 594.00 722.00 Z"/>
</g>
<g fill="#C40E28" fill-opacity="0.40" stroke="None">
<path d="
M 472.00 679.00
C 485.83 693.49 502.78 707.25 516.00 724.00
C 498.87 723.73 481.07 724.36 464.00 724.00 C 446.93 723.64 429.92 724.70 413.00 724.00 C 396.08 723.30 378.73 725.51 362.00 724.00 C 345.27 722.49 327.35 727.33 311.00 724.00
C 317.23 727.18 325.28 725.87 333.00 726.00 C 340.72 726.13 349.23 725.94 357.00 726.00 C 364.77 726.06 372.22 725.98 380.00 726.00 C 387.78 726.02 396.26 726.01 404.00 726.00 C 411.74 725.99 419.39 726.04 427.00 726.00 C 434.61 725.96 443.64 726.10 451.00 726.00 C 458.36 725.90 467.27 726.23 474.00 726.00 C 480.73 725.77 492.52 726.49 498.00 726.00 C 503.48 725.51 518.14 728.47 518.00 723.00
C 517.92 720.00 509.09 716.16 507.25 712.75 C 505.40 709.34 499.58 705.59 496.75 702.25 C 493.93 698.90 489.60 694.93 486.25 691.75 C 482.89 688.57 479.33 684.07 476.00 681.00
C 474.33 679.69 473.28 678.90 472.00 679.00 Z"/>
</g>
<g fill="#F91136" fill-opacity="0.65" stroke="None">
<path d="
M 518.00 723.00
C 518.11 720.88 509.64 713.64 508.00 712.00
C 505.82 710.14 503.95 707.95 502.00 706.00
C 493.80 697.80 485.19 688.19 476.00 681.00
C 479.33 684.07 482.89 688.57 486.25 691.75 C 489.60 694.93 493.93 698.90 496.75 702.25 C 499.58 705.59 505.40 709.34 507.25 712.75 C 509.09 716.16 517.92 720.00 518.00 723.00 Z"/>
</g>
<g fill="#FE0235" fill-opacity="0.01" stroke="None">
<path d="
M 577.00 705.00
C 571.37 698.85 565.40 692.47 559.00 687.00
C 564.90 692.90 570.84 699.24 577.00 705.00 Z"/>
</g>
<g fill="#BA0E2A" fill-opacity="1.00" stroke="None">
<path d="
M 502.00 706.00
C 503.95 707.95 505.82 710.14 508.00 712.00
C 513.60 714.66 517.34 726.10 524.00 721.00
C 510.00 731.94 489.12 726.03 470.00 727.00 C 450.88 727.97 427.50 726.69 408.00 727.00 C 388.50 727.31 365.10 727.15 346.00 727.00 C 326.90 726.85 307.68 731.56 296.00 715.00
C 296.88 718.31 296.93 720.77 296.00 724.00
C 292.63 718.96 290.49 727.23 286.00 724.00
C 286.31 720.59 290.57 724.66 290.00 721.00
C 281.27 717.75 271.14 722.79 263.00 718.00
C 263.08 723.78 253.50 715.30 253.00 724.00
C 250.14 720.36 248.24 722.29 246.00 718.00
C 239.22 720.11 233.76 720.67 231.00 716.00
C 231.08 718.95 228.47 720.21 227.00 722.00
C 228.15 713.71 225.36 719.57 226.00 725.00
C 227.25 735.61 232.48 745.15 236.00 756.00
C 237.74 761.35 241.47 764.66 245.00 769.00
C 246.98 770.40 250.69 774.15 252.00 776.00
C 255.83 779.17 259.98 781.97 264.00 785.00
C 264.98 785.43 266.77 786.79 267.00 787.00
C 272.18 789.88 277.39 791.90 283.00 794.00
C 285.91 794.34 286.50 794.70 289.00 796.00
C 290.43 796.31 291.63 796.65 293.00 797.00
C 295.72 797.10 298.61 796.08 302.00 797.00
C 371.00 796.79 442.29 794.11 512.00 796.00 C 581.71 797.89 653.23 791.75 722.00 797.00
C 723.17 796.96 723.57 796.50 725.02 796.02 C 726.48 795.55 726.99 798.00 727.00 798.00
C 729.82 797.49 732.29 796.70 735.00 796.00
C 739.55 793.63 742.63 792.73 747.00 792.00
C 755.67 788.60 761.74 783.68 769.00 778.00
C 771.55 774.39 777.55 768.46 781.00 766.00
C 782.09 764.67 783.08 763.38 784.00 762.00
C 783.11 762.83 782.68 764.32 781.00 764.00
C 782.52 760.55 784.51 756.90 788.00 755.00
C 789.87 750.89 791.51 746.91 794.00 743.00
C 794.14 742.44 793.08 740.32 793.78 738.78 C 794.49 737.24 796.31 736.58 796.00 737.00
C 796.36 735.11 798.43 732.25 799.00 730.00
C 799.11 731.78 795.07 726.40 797.22 724.22 C 799.37 722.04 797.74 718.65 798.00 716.00
C 797.14 714.04 796.72 717.28 797.00 718.00
C 795.62 716.61 794.31 714.73 793.00 713.00
C 791.50 718.28 786.03 715.39 782.00 718.00
C 782.61 713.00 778.85 716.42 777.00 718.00
C 773.75 713.45 769.62 713.78 765.25 713.80 C 760.88 713.82 758.26 710.95 758.00 716.00
C 755.17 716.13 750.28 712.09 754.00 717.00
C 751.53 714.42 745.79 717.47 748.00 713.00
C 744.20 713.34 737.94 717.39 734.77 716.58 C 731.61 715.76 729.12 713.20 730.00 719.00
C 723.98 713.87 719.54 728.14 709.00 727.00 C 698.46 725.86 685.88 727.41 675.00 727.00 C 664.12 726.59 651.92 726.94 641.00 727.00 C 630.08 727.06 617.69 726.44 607.00 727.00 C 596.31 727.56 591.10 723.26 584.00 716.00
C 585.45 722.92 579.58 718.04 576.00 723.00
C 577.81 719.56 577.63 720.40 576.00 718.00
C 571.41 721.74 566.58 716.32 563.00 720.00
C 559.55 710.97 551.84 718.10 546.23 716.79 C 540.62 715.47 534.65 717.24 531.00 722.00
C 530.10 719.53 529.97 717.42 531.00 715.00
C 528.60 717.66 521.73 715.05 524.00 720.00
C 521.65 719.17 520.25 712.77 518.00 717.00
C 516.35 714.90 514.56 713.85 514.00 711.00
C 510.08 713.29 504.36 707.53 502.00 706.00 Z"/>
</g>
<g fill="#C00E28" fill-opacity="0.43" stroke="None">
<path d="
M 712.00 724.00
C 699.73 725.75 685.33 723.78 673.00 724.00 C 660.67 724.22 647.04 725.29 635.00 724.00 C 622.96 722.71 608.32 727.66 597.00 724.00
C 606.36 730.37 623.28 724.66 635.00 726.00 C 646.72 727.34 663.05 725.87 675.00 726.00 C 686.95 726.13 702.68 727.98 712.00 724.00 Z"/>
</g>
<g fill="#DD0E2F" fill-opacity="0.52" stroke="None">
<path d="
M 224.00 726.00
C 225.50 737.01 230.17 747.15 236.00 756.00
C 232.48 745.15 227.25 735.61 226.00 725.00
C 225.88 725.26 224.19 725.59 224.00 726.00 Z"/>
</g>
<g fill="#E80C30" fill-opacity="0.62" stroke="None">
<path d="
M 794.00 743.00
C 794.18 742.72 796.09 740.81 796.00 741.00
C 796.22 739.71 795.75 738.29 796.00 737.00
C 796.31 736.58 794.49 737.24 793.78 738.78 C 793.08 740.32 794.14 742.44 794.00 743.00 Z"/>
</g>
<g fill="#E00E29" fill-opacity="0.19" stroke="None">
<path d="
M 794.00 743.00
C 791.51 746.91 789.87 750.89 788.00 755.00
C 787.63 755.81 786.82 758.36 787.00 758.00
C 790.01 753.88 795.10 746.30 796.00 741.00
C 796.09 740.81 794.18 742.72 794.00 743.00 Z"/>
</g>
<g fill="#E70E31" fill-opacity="0.57" stroke="None">
<path d="
M 784.00 762.00
C 784.90 760.65 786.01 759.35 787.00 758.00
C 786.82 758.36 787.63 755.81 788.00 755.00
C 784.51 756.90 782.52 760.55 781.00 764.00
C 782.68 764.32 783.11 762.83 784.00 762.00 Z"/>
</g>
<g fill="#E30A2E" fill-opacity="0.36" stroke="None">
<path d="
M 769.00 778.00
C 773.78 774.27 777.11 770.73 781.00 766.00
C 777.55 768.46 771.55 774.39 769.00 778.00 Z"/>
</g>
<g fill="#DF0A28" fill-opacity="0.29" stroke="None">
<path d="
M 245.00 769.00
C 247.28 771.80 249.18 773.66 252.00 776.00
C 250.69 774.15 246.98 770.40 245.00 769.00 Z"/>
</g>
<g fill="#DD0A2F" fill-opacity="0.34" stroke="None">
<path d="
M 264.00 785.00
C 265.08 785.81 265.79 786.33 267.00 787.00
C 266.77 786.79 264.98 785.43 264.00 785.00 Z"/>
</g>
<g fill="#DE0A2D" fill-opacity="0.41" stroke="None">
<path d="
M 735.00 796.00
C 739.33 794.88 742.81 793.64 747.00 792.00
C 742.63 792.73 739.55 793.63 735.00 796.00 Z"/>
</g>
<g fill="#E0082B" fill-opacity="0.36" stroke="None">
<path d="
M 283.00 794.00
C 285.02 794.75 286.52 795.46 289.00 796.00
C 286.50 794.70 285.91 794.34 283.00 794.00 Z"/>
</g>
<g fill="#D3082A" fill-opacity="0.40" stroke="None">
<path d="
M 293.00 797.00
C 297.71 798.20 301.99 798.90 307.00 799.00
C 305.86 798.83 303.11 797.30 302.00 797.00
C 298.61 796.08 295.72 797.10 293.00 797.00 Z"/>
</g>
<g fill="#9B0D26" fill-opacity="1.00" stroke="None">
<path d="
M 302.00 797.00
C 371.97 796.06 442.04 798.25 512.00 797.00 C 581.96 795.75 652.08 799.40 722.00 797.00
C 653.23 791.75 581.71 797.89 512.00 796.00 C 442.29 794.11 371.00 796.79 302.00 797.00 Z"/>
</g>
<g fill="#DD0B2E" fill-opacity="0.54" stroke="None">
<path d="
M 722.00 797.00
C 652.08 799.40 581.96 795.75 512.00 797.00 C 442.04 798.25 371.97 796.06 302.00 797.00
C 303.11 797.30 305.86 798.83 307.00 799.00
C 342.07 799.70 378.00 799.02 413.00 799.00 C 448.00 798.98 483.18 799.77 518.00 799.00 C 552.82 798.23 588.48 801.04 623.00 799.00 C 657.52 796.96 693.39 804.14 727.00 798.00
C 726.99 798.00 726.48 795.55 725.02 796.02 C 723.57 796.50 723.17 796.96 722.00 797.00 Z"/>
</g>
</svg>
